<mxfile host="Electron" agent="Mozilla/5.0 (Windows NT 10.0; Win64; x64) AppleWebKit/537.36 (KHTML, like Gecko) draw.io/28.0.6 Chrome/138.0.7204.100 Electron/37.2.3 Safari/537.36" version="28.0.6">
  <diagram name="Page-1" id="G7TyD1lQal7D2UQ73n0T">
    <mxGraphModel dx="1465" dy="607" grid="1" gridSize="10" guides="1" tooltips="1" connect="1" arrows="1" fold="1" page="1" pageScale="1" pageWidth="850" pageHeight="1100" math="0" shadow="0">
      <root>
        <mxCell id="0" />
        <mxCell id="1" parent="0" />
        <mxCell id="hwFNifnMXfar1LAswDKv-1" value="High Level Architecture" style="text;html=1;align=center;verticalAlign=middle;resizable=0;points=[];autosize=1;strokeColor=none;fillColor=none;fontSize=20;fontStyle=1" vertex="1" parent="1">
          <mxGeometry x="40" y="40" width="230" height="40" as="geometry" />
        </mxCell>
        <mxCell id="hwFNifnMXfar1LAswDKv-4" value="" style="rounded=0;whiteSpace=wrap;html=1;fillColor=none;strokeColor=light-dark(#787878, #ededed);dashed=1;" vertex="1" parent="1">
          <mxGeometry x="40" y="120" width="160" height="440" as="geometry" />
        </mxCell>
        <mxCell id="hwFNifnMXfar1LAswDKv-5" value="&lt;font style=&quot;font-size: 24px;&quot;&gt;Sources&lt;/font&gt;" style="rounded=0;whiteSpace=wrap;html=1;strokeColor=none;" vertex="1" parent="1">
          <mxGeometry x="80" y="110" width="80" height="20" as="geometry" />
        </mxCell>
        <mxCell id="hwFNifnMXfar1LAswDKv-6" value="" style="rounded=0;whiteSpace=wrap;html=1;fillColor=none;strokeColor=light-dark(#787878, #ededed);dashed=1;" vertex="1" parent="1">
          <mxGeometry x="240" y="120" width="520" height="440" as="geometry" />
        </mxCell>
        <mxCell id="hwFNifnMXfar1LAswDKv-7" value="&lt;span style=&quot;font-size: 24px;&quot;&gt;Data Warehouse&lt;/span&gt;" style="rounded=0;whiteSpace=wrap;html=1;strokeColor=none;" vertex="1" parent="1">
          <mxGeometry x="380" y="110" width="210" height="20" as="geometry" />
        </mxCell>
        <mxCell id="hwFNifnMXfar1LAswDKv-8" value="" style="rounded=0;whiteSpace=wrap;html=1;fillColor=none;strokeColor=light-dark(#787878, #ededed);dashed=1;" vertex="1" parent="1">
          <mxGeometry x="800" y="120" width="160" height="440" as="geometry" />
        </mxCell>
        <mxCell id="hwFNifnMXfar1LAswDKv-10" value="&lt;span style=&quot;font-size: 24px;&quot;&gt;Consume&lt;/span&gt;" style="rounded=0;whiteSpace=wrap;html=1;strokeColor=none;" vertex="1" parent="1">
          <mxGeometry x="830" y="110" width="80" height="20" as="geometry" />
        </mxCell>
        <mxCell id="hwFNifnMXfar1LAswDKv-11" value="&lt;font style=&quot;font-size: 20px;&quot;&gt;Silver Layer&lt;/font&gt;" style="rounded=0;whiteSpace=wrap;html=1;fillColor=#C0C0C0;strokeColor=#314354;fontColor=#ffffff;" vertex="1" parent="1">
          <mxGeometry x="450" y="150" width="130" height="30" as="geometry" />
        </mxCell>
        <mxCell id="hwFNifnMXfar1LAswDKv-12" value="" style="rounded=0;whiteSpace=wrap;html=1;fillColor=default;strokeColor=#d79b00;" vertex="1" parent="1">
          <mxGeometry x="280" y="190" width="130" height="350" as="geometry" />
        </mxCell>
        <mxCell id="hwFNifnMXfar1LAswDKv-15" value="" style="rounded=0;whiteSpace=wrap;html=1;fillColor=default;strokeColor=#C0C0C0;" vertex="1" parent="1">
          <mxGeometry x="450" y="190" width="130" height="350" as="geometry" />
        </mxCell>
        <mxCell id="hwFNifnMXfar1LAswDKv-16" value="" style="rounded=0;whiteSpace=wrap;html=1;fillColor=default;strokeColor=#FFD700;" vertex="1" parent="1">
          <mxGeometry x="610" y="190" width="130" height="350" as="geometry" />
        </mxCell>
        <mxCell id="hwFNifnMXfar1LAswDKv-17" value="&lt;font style=&quot;font-size: 20px;&quot;&gt;Bronze Layer&lt;/font&gt;" style="rounded=0;whiteSpace=wrap;html=1;fillColor=#ffe6cc;strokeColor=#d79b00;" vertex="1" parent="1">
          <mxGeometry x="280" y="150" width="130" height="30" as="geometry" />
        </mxCell>
        <mxCell id="hwFNifnMXfar1LAswDKv-18" value="&lt;font style=&quot;font-size: 20px;&quot;&gt;Gold Layer&lt;/font&gt;" style="rounded=0;whiteSpace=wrap;html=1;fillColor=#FFD700;strokeColor=#B09500;fontColor=#000000;" vertex="1" parent="1">
          <mxGeometry x="610" y="150" width="130" height="30" as="geometry" />
        </mxCell>
        <mxCell id="hwFNifnMXfar1LAswDKv-20" value="" style="image;aspect=fixed;html=1;points=[];align=center;fontSize=12;image=img/lib/azure2/general/Folder_Blank.svg;" vertex="1" parent="1">
          <mxGeometry x="90" y="188.12" width="59" height="47.88" as="geometry" />
        </mxCell>
        <mxCell id="hwFNifnMXfar1LAswDKv-22" value="" style="image;aspect=fixed;html=1;points=[];align=center;fontSize=12;image=img/lib/azure2/general/File.svg;" vertex="1" parent="1">
          <mxGeometry x="120" y="210" width="32.46" height="40" as="geometry" />
        </mxCell>
        <mxCell id="hwFNifnMXfar1LAswDKv-23" value="&lt;b&gt;CRM&lt;/b&gt;" style="text;html=1;align=center;verticalAlign=middle;resizable=0;points=[];autosize=1;strokeColor=none;fillColor=none;" vertex="1" parent="1">
          <mxGeometry x="89.5" y="250" width="50" height="30" as="geometry" />
        </mxCell>
        <mxCell id="hwFNifnMXfar1LAswDKv-24" value="" style="image;aspect=fixed;html=1;points=[];align=center;fontSize=12;image=img/lib/azure2/general/Folder_Blank.svg;" vertex="1" parent="1">
          <mxGeometry x="85" y="320" width="59" height="47.88" as="geometry" />
        </mxCell>
        <mxCell id="hwFNifnMXfar1LAswDKv-25" value="" style="image;aspect=fixed;html=1;points=[];align=center;fontSize=12;image=img/lib/azure2/general/File.svg;" vertex="1" parent="1">
          <mxGeometry x="120" y="345" width="32.46" height="40" as="geometry" />
        </mxCell>
        <mxCell id="hwFNifnMXfar1LAswDKv-26" value="ERP" style="text;html=1;align=center;verticalAlign=middle;resizable=0;points=[];autosize=1;strokeColor=none;fillColor=none;fontStyle=1" vertex="1" parent="1">
          <mxGeometry x="102.46000000000001" y="380" width="50" height="30" as="geometry" />
        </mxCell>
        <mxCell id="hwFNifnMXfar1LAswDKv-35" value="" style="line;strokeWidth=2;html=1;fontColor=#999999;" vertex="1" parent="1">
          <mxGeometry x="58.730000000000004" y="420" width="122.54" height="10" as="geometry" />
        </mxCell>
        <mxCell id="hwFNifnMXfar1LAswDKv-36" value="&lt;b&gt;Object Type&lt;/b&gt;: CSV File" style="text;html=1;align=center;verticalAlign=middle;resizable=0;points=[];autosize=1;strokeColor=none;fillColor=none;" vertex="1" parent="1">
          <mxGeometry x="45" y="440" width="150" height="30" as="geometry" />
        </mxCell>
        <mxCell id="hwFNifnMXfar1LAswDKv-37" value="&lt;b&gt;Interface&lt;/b&gt;: Files in Folder" style="text;html=1;align=center;verticalAlign=middle;resizable=0;points=[];autosize=1;strokeColor=none;fillColor=none;" vertex="1" parent="1">
          <mxGeometry x="39.5" y="470" width="160" height="30" as="geometry" />
        </mxCell>
        <mxCell id="hwFNifnMXfar1LAswDKv-38" value="" style="html=1;verticalLabelPosition=bottom;align=center;labelBackgroundColor=#ffffff;verticalAlign=top;strokeWidth=2;strokeColor=#CE8946;shadow=0;dashed=0;shape=mxgraph.ios7.icons.data;" vertex="1" parent="1">
          <mxGeometry x="325" y="210.9" width="40" height="39.1" as="geometry" />
        </mxCell>
        <mxCell id="hwFNifnMXfar1LAswDKv-39" value="" style="html=1;verticalLabelPosition=bottom;align=center;labelBackgroundColor=#ffffff;verticalAlign=top;strokeWidth=2;strokeColor=#C0C0C0;shadow=0;dashed=0;shape=mxgraph.ios7.icons.data;" vertex="1" parent="1">
          <mxGeometry x="495" y="208.61999999999995" width="40" height="44.55" as="geometry" />
        </mxCell>
        <mxCell id="hwFNifnMXfar1LAswDKv-40" value="" style="html=1;verticalLabelPosition=bottom;align=center;labelBackgroundColor=#ffffff;verticalAlign=top;strokeWidth=2;strokeColor=#FFD700;shadow=0;dashed=0;shape=mxgraph.ios7.icons.data;" vertex="1" parent="1">
          <mxGeometry x="655" y="208.17000000000002" width="40" height="44.55" as="geometry" />
        </mxCell>
        <mxCell id="hwFNifnMXfar1LAswDKv-41" value="" style="shape=singleArrow;whiteSpace=wrap;html=1;arrowWidth=0.2735451350136415;arrowSize=0.474033703251348;fillColor=#b1ddf0;strokeColor=#10739e;" vertex="1" parent="1">
          <mxGeometry x="170" y="211.11999999999998" width="120" height="35" as="geometry" />
        </mxCell>
        <mxCell id="hwFNifnMXfar1LAswDKv-44" value="" style="shape=singleArrow;whiteSpace=wrap;html=1;arrowWidth=0.4309523809523824;arrowSize=0.29814782521081423;fillColor=#b1ddf0;strokeColor=#10739e;" vertex="1" parent="1">
          <mxGeometry x="720" y="211.12000000000003" width="90" height="40" as="geometry" />
        </mxCell>
        <mxCell id="hwFNifnMXfar1LAswDKv-46" value="" style="shape=singleArrow;whiteSpace=wrap;html=1;arrowWidth=0.4309523809523824;arrowSize=0.29814782521081423;fillColor=#b1ddf0;strokeColor=#10739e;" vertex="1" parent="1">
          <mxGeometry x="400" y="210.9" width="70" height="40" as="geometry" />
        </mxCell>
        <mxCell id="hwFNifnMXfar1LAswDKv-47" value="" style="shape=singleArrow;whiteSpace=wrap;html=1;arrowWidth=0.4309523809523824;arrowSize=0.29814782521081423;fillColor=#b1ddf0;strokeColor=#10739e;" vertex="1" parent="1">
          <mxGeometry x="560" y="208.61999999999998" width="70" height="40" as="geometry" />
        </mxCell>
        <mxCell id="hwFNifnMXfar1LAswDKv-48" value="&lt;font&gt;&lt;span&gt;Raw Data&lt;/span&gt;&lt;/font&gt;&lt;div&gt;&lt;br&gt;&lt;/div&gt;" style="text;strokeColor=none;align=center;fillColor=none;html=1;verticalAlign=middle;whiteSpace=wrap;rounded=0;fontStyle=0;fontSize=13;" vertex="1" parent="1">
          <mxGeometry x="310" y="260" width="70" height="30" as="geometry" />
        </mxCell>
        <mxCell id="hwFNifnMXfar1LAswDKv-49" value="&lt;span style=&quot;font-size: 13px;&quot;&gt;Business-ready&lt;/span&gt;&lt;div&gt;&lt;span style=&quot;font-size: 13px;&quot;&gt;Data&lt;/span&gt;&lt;/div&gt;" style="text;strokeColor=none;align=center;fillColor=none;html=1;verticalAlign=middle;whiteSpace=wrap;rounded=0;" vertex="1" parent="1">
          <mxGeometry x="600" y="260" width="160" height="30" as="geometry" />
        </mxCell>
        <mxCell id="hwFNifnMXfar1LAswDKv-50" value="&lt;div&gt;&lt;font style=&quot;font-size: 13px;&quot;&gt;Clean, Standardized&amp;nbsp;&lt;/font&gt;&lt;/div&gt;&lt;div&gt;&lt;font style=&quot;font-size: 13px;&quot;&gt;Data&lt;/font&gt;&lt;/div&gt;" style="text;strokeColor=none;align=center;fillColor=none;html=1;verticalAlign=middle;whiteSpace=wrap;rounded=0;" vertex="1" parent="1">
          <mxGeometry x="440" y="260" width="160" height="30" as="geometry" />
        </mxCell>
        <mxCell id="hwFNifnMXfar1LAswDKv-52" value="&lt;div style=&quot;text-align: left;&quot;&gt;&lt;span style=&quot;background-color: transparent; color: light-dark(rgb(0, 0, 0), rgb(255, 255, 255));&quot;&gt;Object Type: &lt;span style=&quot;font-weight: normal;&quot;&gt;Table&lt;/span&gt;&lt;/span&gt;&lt;/div&gt;&lt;div&gt;&lt;br&gt;&lt;/div&gt;&lt;div style=&quot;text-align: left;&quot;&gt;Load:&amp;nbsp;&lt;/div&gt;&lt;div style=&quot;text-align: left;&quot;&gt;&lt;span style=&quot;background-color: transparent; color: light-dark(rgb(0, 0, 0), rgb(255, 255, 255));&quot;&gt;&lt;br&gt;&lt;/span&gt;&lt;/div&gt;&lt;div style=&quot;text-align: left;&quot;&gt;&lt;span style=&quot;background-color: transparent; color: light-dark(rgb(0, 0, 0), rgb(255, 255, 255));&quot;&gt;&lt;span style=&quot;font-weight: normal;&quot;&gt;1.&lt;/span&gt; &lt;span style=&quot;font-weight: normal;&quot;&gt;Batch Processing&lt;/span&gt;&lt;/span&gt;&lt;/div&gt;&lt;div style=&quot;text-align: left;&quot;&gt;&lt;span style=&quot;background-color: transparent; color: light-dark(rgb(0, 0, 0), rgb(255, 255, 255)); font-weight: normal;&quot;&gt;2. Full Load&amp;nbsp;&lt;/span&gt;&lt;/div&gt;&lt;div style=&quot;text-align: left;&quot;&gt;&lt;span style=&quot;font-weight: normal;&quot;&gt;&lt;span style=&quot;background-color: transparent; color: light-dark(rgb(0, 0, 0), rgb(255, 255, 255));&quot;&gt;3. Trunc&amp;nbsp;&lt;/span&gt;&lt;span style=&quot;background-color: transparent; color: light-dark(rgb(0, 0, 0), rgb(255, 255, 255));&quot;&gt;&amp;amp; Insert&lt;/span&gt;&lt;/span&gt;&lt;/div&gt;&lt;div style=&quot;text-align: left;&quot;&gt;&lt;span style=&quot;background-color: transparent; color: light-dark(rgb(0, 0, 0), rgb(255, 255, 255));&quot;&gt;&lt;br&gt;&lt;/span&gt;&lt;/div&gt;&lt;div style=&quot;text-align: left;&quot;&gt;No Transformations&lt;/div&gt;&lt;div style=&quot;text-align: left;&quot;&gt;&lt;br&gt;&lt;/div&gt;&lt;div style=&quot;text-align: left;&quot;&gt;Data Model: &lt;span style=&quot;font-weight: normal;&quot;&gt;None&lt;/span&gt;&lt;/div&gt;&lt;div style=&quot;text-align: left;&quot;&gt;&lt;span style=&quot;font-weight: normal;&quot;&gt;(AS-IS)&lt;/span&gt;&lt;/div&gt;" style="text;html=1;align=center;verticalAlign=middle;resizable=0;points=[];autosize=1;strokeColor=none;fillColor=none;fontSize=10;fontStyle=1" vertex="1" parent="1">
          <mxGeometry x="290" y="300" width="110" height="160" as="geometry" />
        </mxCell>
        <mxCell id="hwFNifnMXfar1LAswDKv-53" value="&lt;div style=&quot;text-align: left;&quot;&gt;&lt;span style=&quot;background-color: transparent; color: light-dark(rgb(0, 0, 0), rgb(255, 255, 255));&quot;&gt;Object Type: &lt;span style=&quot;font-weight: normal;&quot;&gt;Table&lt;/span&gt;&lt;/span&gt;&lt;/div&gt;&lt;div&gt;&lt;br&gt;&lt;/div&gt;&lt;div style=&quot;text-align: left;&quot;&gt;Load:&amp;nbsp;&lt;/div&gt;&lt;div style=&quot;text-align: left;&quot;&gt;&lt;span style=&quot;background-color: transparent; color: light-dark(rgb(0, 0, 0), rgb(255, 255, 255));&quot;&gt;&lt;br&gt;&lt;/span&gt;&lt;/div&gt;&lt;div style=&quot;text-align: left;&quot;&gt;&lt;span style=&quot;background-color: transparent; color: light-dark(rgb(0, 0, 0), rgb(255, 255, 255)); font-weight: normal;&quot;&gt;1. Batch Processing&lt;/span&gt;&lt;/div&gt;&lt;div style=&quot;text-align: left;&quot;&gt;&lt;span style=&quot;background-color: transparent; color: light-dark(rgb(0, 0, 0), rgb(255, 255, 255)); font-weight: normal;&quot;&gt;2. Full Load&amp;nbsp;&lt;/span&gt;&lt;/div&gt;&lt;div style=&quot;text-align: left;&quot;&gt;&lt;span style=&quot;font-weight: normal;&quot;&gt;&lt;span style=&quot;background-color: transparent; color: light-dark(rgb(0, 0, 0), rgb(255, 255, 255));&quot;&gt;3. Trunc&amp;nbsp;&lt;/span&gt;&lt;span style=&quot;background-color: transparent; color: light-dark(rgb(0, 0, 0), rgb(255, 255, 255));&quot;&gt;&amp;amp; Insert&lt;/span&gt;&lt;/span&gt;&lt;/div&gt;&lt;div style=&quot;text-align: left;&quot;&gt;&lt;span style=&quot;background-color: transparent; color: light-dark(rgb(0, 0, 0), rgb(255, 255, 255));&quot;&gt;&lt;br&gt;&lt;/span&gt;&lt;/div&gt;&lt;div style=&quot;text-align: left;&quot;&gt;&lt;span style=&quot;background-color: transparent; color: light-dark(rgb(0, 0, 0), rgb(255, 255, 255));&quot;&gt;Transformations:&lt;/span&gt;&lt;/div&gt;&lt;div style=&quot;text-align: left;&quot;&gt;&lt;span style=&quot;background-color: transparent; color: light-dark(rgb(0, 0, 0), rgb(255, 255, 255)); font-weight: normal;&quot;&gt;1. Data Cleaning&lt;/span&gt;&lt;/div&gt;&lt;div style=&quot;text-align: left;&quot;&gt;&lt;span style=&quot;background-color: transparent; color: light-dark(rgb(0, 0, 0), rgb(255, 255, 255)); font-weight: normal;&quot;&gt;2. Data Standardization&lt;/span&gt;&lt;/div&gt;&lt;div style=&quot;text-align: left;&quot;&gt;&lt;span style=&quot;background-color: transparent; color: light-dark(rgb(0, 0, 0), rgb(255, 255, 255)); font-weight: normal;&quot;&gt;3. Data Normalization&lt;/span&gt;&lt;/div&gt;&lt;div style=&quot;text-align: left;&quot;&gt;&lt;span style=&quot;background-color: transparent; color: light-dark(rgb(0, 0, 0), rgb(255, 255, 255)); font-weight: normal;&quot;&gt;4. Derived Columns&lt;/span&gt;&lt;/div&gt;&lt;div style=&quot;text-align: left;&quot;&gt;&lt;span style=&quot;background-color: transparent; color: light-dark(rgb(0, 0, 0), rgb(255, 255, 255)); font-weight: normal;&quot;&gt;5. Data Enrichment&lt;/span&gt;&lt;/div&gt;&lt;div style=&quot;text-align: left;&quot;&gt;&lt;br&gt;&lt;/div&gt;&lt;div style=&quot;text-align: left;&quot;&gt;Data Model: &lt;span style=&quot;font-weight: normal;&quot;&gt;None&lt;/span&gt;&lt;/div&gt;&lt;div style=&quot;text-align: left;&quot;&gt;&lt;span style=&quot;font-weight: normal;&quot;&gt;(AS-IS)&lt;/span&gt;&lt;/div&gt;" style="text;html=1;align=center;verticalAlign=middle;resizable=0;points=[];autosize=1;strokeColor=none;fillColor=none;fontSize=10;fontStyle=1" vertex="1" parent="1">
          <mxGeometry x="453.73" y="300" width="130" height="220" as="geometry" />
        </mxCell>
        <mxCell id="hwFNifnMXfar1LAswDKv-54" value="&lt;div style=&quot;text-align: left;&quot;&gt;&lt;span style=&quot;background-color: transparent; color: light-dark(rgb(0, 0, 0), rgb(255, 255, 255));&quot;&gt;Object Type: &lt;span style=&quot;font-weight: normal;&quot;&gt;Views&lt;/span&gt;&lt;/span&gt;&lt;/div&gt;&lt;div&gt;&lt;br&gt;&lt;/div&gt;&lt;div style=&quot;text-align: left;&quot;&gt;Load: None&lt;/div&gt;&lt;div style=&quot;text-align: left;&quot;&gt;&lt;span style=&quot;background-color: transparent; color: light-dark(rgb(0, 0, 0), rgb(255, 255, 255));&quot;&gt;&lt;br&gt;&lt;/span&gt;&lt;/div&gt;&lt;div style=&quot;text-align: left;&quot;&gt;&lt;span style=&quot;background-color: transparent; color: light-dark(rgb(0, 0, 0), rgb(255, 255, 255));&quot;&gt;Transformations:&lt;/span&gt;&lt;/div&gt;&lt;div style=&quot;text-align: left;&quot;&gt;&lt;span style=&quot;background-color: transparent; color: light-dark(rgb(0, 0, 0), rgb(255, 255, 255));&quot;&gt;&lt;span style=&quot;font-weight: normal;&quot;&gt;1&lt;/span&gt;. &lt;span style=&quot;font-weight: normal;&quot;&gt;Data Integration&lt;/span&gt;&lt;/span&gt;&lt;/div&gt;&lt;div style=&quot;text-align: left;&quot;&gt;&lt;span style=&quot;background-color: transparent; color: light-dark(rgb(0, 0, 0), rgb(255, 255, 255)); font-weight: normal;&quot;&gt;2. Data Aggregation&lt;/span&gt;&lt;/div&gt;&lt;div style=&quot;text-align: left;&quot;&gt;&lt;span style=&quot;background-color: transparent; color: light-dark(rgb(0, 0, 0), rgb(255, 255, 255)); font-weight: normal;&quot;&gt;3. Business Logic&amp;nbsp;&lt;/span&gt;&lt;/div&gt;&lt;div style=&quot;text-align: left;&quot;&gt;&lt;span style=&quot;background-color: transparent; color: light-dark(rgb(0, 0, 0), rgb(255, 255, 255)); font-weight: normal;&quot;&gt;&amp;amp; Roles&lt;/span&gt;&lt;/div&gt;&lt;div style=&quot;text-align: left;&quot;&gt;&lt;br&gt;&lt;/div&gt;&lt;div style=&quot;text-align: left;&quot;&gt;Data Model:&amp;nbsp;&lt;/div&gt;&lt;div style=&quot;text-align: left;&quot;&gt;&lt;span style=&quot;font-weight: normal;&quot;&gt;1. Star schemas&lt;/span&gt;&lt;/div&gt;&lt;div style=&quot;text-align: left;&quot;&gt;&lt;span style=&quot;font-weight: normal;&quot;&gt;2. Flat tables&lt;/span&gt;&lt;/div&gt;&lt;div style=&quot;text-align: left;&quot;&gt;&lt;span style=&quot;font-weight: normal;&quot;&gt;3. Aggregated table&lt;/span&gt;&lt;/div&gt;" style="text;html=1;align=center;verticalAlign=middle;resizable=0;points=[];autosize=1;strokeColor=none;fillColor=none;fontSize=10;fontStyle=1" vertex="1" parent="1">
          <mxGeometry x="620" y="300" width="110" height="180" as="geometry" />
        </mxCell>
        <mxCell id="hwFNifnMXfar1LAswDKv-55" value="" style="line;strokeWidth=2;html=1;fontColor=#999999;" vertex="1" parent="1">
          <mxGeometry x="283.73" y="290" width="122.54" height="10" as="geometry" />
        </mxCell>
        <mxCell id="hwFNifnMXfar1LAswDKv-56" value="" style="line;strokeWidth=2;html=1;fontColor=#999999;" vertex="1" parent="1">
          <mxGeometry x="453.73" y="290" width="122.54" height="10" as="geometry" />
        </mxCell>
        <mxCell id="hwFNifnMXfar1LAswDKv-57" value="" style="line;strokeWidth=2;html=1;fontColor=#999999;" vertex="1" parent="1">
          <mxGeometry x="613.73" y="290" width="122.54" height="10" as="geometry" />
        </mxCell>
        <mxCell id="hwFNifnMXfar1LAswDKv-58" value="" style="image;aspect=fixed;html=1;points=[];align=center;fontSize=12;image=img/lib/azure2/power_platform/PowerBI.svg;" vertex="1" parent="1">
          <mxGeometry x="820" y="178.06" width="51" height="68" as="geometry" />
        </mxCell>
        <mxCell id="hwFNifnMXfar1LAswDKv-62" value="" style="verticalLabelPosition=bottom;html=1;verticalAlign=top;align=center;shape=mxgraph.floorplan.chair;shadow=0;direction=south" vertex="1" parent="1">
          <mxGeometry x="1188" y="1150" width="52" height="40" as="geometry" />
        </mxCell>
        <mxCell id="hwFNifnMXfar1LAswDKv-64" value="" style="shape=image;aspect=fixed;image=data:image/png,iVBORw0KGgoAAAANSUhEUgAAAyAAAACjCAYAAAByvHqDAAAACXBIWXMAAJnKAACZygHjkaQiAAAgAElEQVR4nO3dCZQdxX3v8TIQvPC8xWbXVI+EXjBI8AxCGG+Z6FaNkI2deMkAkjCrIA42SDIItNyqxhiD2Z5m2KyRMItBwnYICXFIHPsZPz9j4cRLyLMT73Ycs4jVxhgclqCc6juCYZgZdfV03dvV9/s5p84Bm3O7p2/37fp1V9VfCBS29JMbj102vOmR0W3puo0Xc0gBAAAAlG7Zuo2nLBvetHVMu4pDDQAAAKB0BBAAAAAAbUMAAQAAANA2BBAAAAAAbUMAAQAAANA2BBAAAAAAbUMAAQAAANA2BBAAAAAAbUMAAQAAANA2BBAAAAAAbUMAAQAAANA2BBAAAAAAbUMAAQAAANA2BBAAAAAA3k7fsGn3pcObVnm3dRtvWTa8aesL28ZvFPms5cM3HsBXBwAAALTRg4OzHnhgcNZT47ahWReE2u5Hrtp00IuDRHvb8nUbTxABHX3B+nOPPn/DUxO1gU8My5DbBwAAACrngcFZv35waPbW8doDg7MvDrXdbgggCy9Yf/7CCzZsnagt+tjVScjtAwAAAJVDAAmHAAIAAACMQQAJhwACAAAAVCSApNde+7LTN2w60LctW7fpo2OHUi1dt/GzRT7rz6/a+NqQJwQBBAAAAKhIAOmGZXgJIAAAAMAYBJBwCCAAAADAGASQcAggAAAAwBgEkHAIIAAAAMAYBJBwCCAAAADAGASQcAggAAAAwBgEkHAIIAAAAMAYBJBwCCAAAADAGASQcAggAAAAwBgEkHAIIAAAAMAYBJBwCCAAAADAGASQcAggAFBv+w+kO+dpYmBgx07vKwBUBgEkHAIIANRXcnjam2i7NWf7WKf3FwAqgwASDgEEAOqLAAIAXRJATh/+nFy2buO7R7flwzceICqIAAIA9UUAAYAuCSAxIYAAQH0RQACgIAJIOAQQAKgvAgiArvDg0KxrHhic/e8lt2cneQPyaNnbe2ho1nxRUQvP33DL0Resv62stvD8DT9ZeMGGrRO1oy9Yf3vJ22OSIwC0CQEEQFd4cGjWbROFhVjaQ4Oz3ysq6ugL1v9ussBQ+Xb++i92+hgCQLcggADoCgSQsAggAIC8CCAAugIBJCwCCAAgLwIIgK5AAAmLAAIAyIsAAqArEEDCIoAAqJNEm3MTbb6Up+2lVr6u0/sbGwIIgK7g6nI8MDRrc6ltcNYzk6yCdU/p21t7wB+KiiKAAKiTRJlbE2235mk9Ot2r0/sbGwIIABREHZDnHfXxq9VR5189v6x29Pkbbpp8Gd4Nx5S5vSPPGz6YCwHANlLbvyaAhEMAAYCCCCDhUIgwbj06PUQqc0qetnv/Gbt0en+BsaQ2f0UACYcAAgAFEUDCIYDETSpzXt7O2wydyk7vLzCWVPYWAkg4BBAAKIgAEg4BJG4EEMROKvOXBJBwCCAAUBABJBwCSNwIIIhdou3NBJCAx/fwtDfv8U20/VjAXQGAuBBAwiGAxI0Agtglyn6OABLw+BJAAKAYAkg4BJC4EUAQu0TZzxJAAh5fAggA1DuA3H/mrLfeu2LWqZO1+87ab5aoEAJI3AggiJ3U5jMEkHAIIABQ8wBy34rZa7ecNXvrZM2FEFEhBJC4EUAQO6ntTQSQcAggAFAQASQcAkjcCCCInVRmEwEkHAIIABREAAmHABI3AghiJ7XdSAAJhwACAAURQMIhgMSNAILYJcreQAAJeHyZhA4AxRBAwiGAxI0AgtglynyaABLw+BJAAKAYAkg4BJC4EUAQu0Tb6wkgAY8vAQQAiiGAhEMAiRsBBLGT2lxHAAmHAAIABRFAwiGAxI0AgthJZa8lgIRDAAGAgggg4RBA4kYAQeykMtcQQMIhgABAQQSQcAggcSOAIHaJNlcTQAIeX+aAAEAxBJA4A8ji04ZetWjJ4KfGbScPLi/3L+lOBBDELlF2AwEk4PElgACou6WfvKl36fCma0a3Zes2rp7q5xJA4gwgx516xR6LTx7aOl5btGTwH8r9S7oTAQSxS5RZTwAJeHwJIADq7vThG+YuG960dXRbum7TnVP9XAJIOASQuBFAELtE22ECSMDjSwABUHcEkNlrt5w1e+tk7d4Vs04VFUIAiRsBBLGT2qwjgIRDAAFQe6ECyIODByy6/7IDjh+vPXj57ENERdwXYQA58rzhgxddsP74idoxF396l6KfzRCs8AggHTYwsGPPvOaspN+8Vyq7IlHmE1Kbq1pP9c1lUtmPS23P7tHNI3vnNfcVabrDuJ/Tl+6UKPutPE0qa0SNjByvrXlaj073Gu8zZi5IXyX700aizQelsmsTbW9OtPlSosw3pba3S23+Pqu4rsw5UtnF2XfRJQgg27fnu9JXTG+khybaLnTXl7uOR97MZdex+/cebZcmDfOOafPTmUKIl7Thq6uV3fvP2CXR6WHu+pPapok2F207xlLbS921mSjzkUSlC+Thq/ec6HOShpmX97fS/bft/SuRS1+6k/std9edqHoAiUWMASQkAkh4BJD2m9Gf7ib77YekMrdJZR7N23nOmrK/TbT9YqLtCUlf+pptnzlnzim/5/EZG0SNSG2v9A0g2fFyHZUsbJhvJ8o+4/U9aLtVarslCyU6faf7PFFTBJDxyUa6f6LNuYk2X5fKPOl77khtPiO1/UCpnaiamdafzs4ewij7jUSbpwsc4+t6tTncdVi3faZ72JP3M3qV+RMRgUSZK54PvHbC5oJbqH3oVfaoPPvg2kgI999Gf/qHrYdB2X3w7kSZxxNtv5dos2z/gXTnKf0BBBACyGgEkPAIIO0j56Vvkdr8le+NdMIbrLL/6Yrw9c5bk3gFEG2HRY2M3HzzHrPFI6tmPVTGdzAq1N3r3mC5NymiZgggY9406uai7Ol4SeeOewghlf3kDJ3Kzn3L1eF+y1wwk8reVeIxvt+9SXZhzyeA9Oj0j0UEpDa/y/k3fS/UPiTKDHoc17d5f74250pt7pMNe9Kufen/yP7HNN3BvaWS2vyjC6kzF6zatfAfQAAhgIxGAAmPABJeMj99Qzacp8wO75ggkg3zyPvfa7NO1Eii7OWhjq13U/YRN9RmwqFyESKAtLin4Yk2Pw13HZsnXSdu37eseKXoUq2hqObnAa/Ru6W2G/N/J+m7RATqHkASZU6V2vxin/lretxDAPfQzf3zzAWnvdT9/+7tR6LMrYmyd7hhzYX+AAIIAWQ0Akh4BJCABgZ2lNpY3+EZoZubMyFqJNF2qNPH9MUdF/t/J5pvEptuDyDuqWqi7N+07fxR9me92vSJLtL2Y5y7pe8UEahzAJFHrHyt1PbXiUr/qLUde4PUdrPU5n+35jSaS56bx6ftlh7VPLbQH0AAIYCMRgAJjwASxp596etDvvWYWgfHXCFqxOfG186W3QwLDDWomm4OILLfvDUba97288c83duwfya6gJtYnmjzy2r+VqYLRATqHECS/ubxbjje89uxN7h5Qe6f91IrX+c+L3sz0toHtxDBlwv9AQQQAshoBJDwCCDlS/rSPRJlvtvxm+fEnZvLRI2MrFq1tZodGPN4Ngk2Yt0aQHr6zbs9Onahzp9zRI1lK1Jp81jHr9MJWm9/Ol9EoM4BRLZ+34dfFEDc/A83n0fZ387QZ7/6+RXOzMOF/gACCAFkNAJIeASQck1vrNo9UebHnb5xbqcNiRrJXsV3/phOOkfHrd4iItWNASSbi6DtU50+d1rNLBM11NMw/a35a50+vhM3t48iArUOINqsc5/9/HbcECzzKzcnJFHmvxLVPPG5/68/fWOi7ROF/gACCAFkNAJIeASQ8iR96cvc2NRO3zS311yHXdRIVgOgAsd1O+2hoktPdlq3BZDWkCD7RAXOmW3t2VjmIuSV6OZ+rhMZwW+lEhGocwBJtFnt5geNNwTLhXO3Atbot5aF/0YCCAGkmwOIWyLQFThrZ/Mp4uYmgbVz36Y1Vu8tIjKyvOvW6t9U7aWiRtwkxEiO+3dirBfSTQEkq9Hj6rtU7dxxy8hOUlwvuoKC1X9L3GqRFCKsdQBRzYOyYXojda9GB5BsxIEL6H3pHiP7sF5qe0FtA8g9Kw54+5azZpsQ7b6zZm3eXiHCLWfN/nyw7Z9x4G6iQrotgEiV6o7/4Far/a2IhHtCOeW/V9lHXAVu2TBnuXXw3QTIHp0e4obvJDp9n6vyK5W9xY1xneJ2LhY1MlIRuejxeMJNWkyU/WhWpbo/nZ3N4elLX+ZWseqd3/xf7rvNqltr87Xslf+UvmezWkSmmwJItpTn1K6tZxJl/487Dq3x6ebNcr6Z42oAJY3m0dl5pu0/FTyPbhZdVjh0sjCfdXiVOdX9NvY0zNunKTPXXcOtGiLmkpFq5s9M7ftsrbxUdXUOIE6izefdcutjA4gjtf2Bq+/UKlpp7ncPEURdA8iWFbNtjpAQZztz9oEhjlmapjt84KS1+/m2xUsue/tEAWTxyYN3FPnMgROGiheqCYwAEmcAaQ29Mr+YQqflDtdZyV3JtVV86R1ZRdhseIZ3J/giUSOJthd6/v1PtzqazUXPFbTy64wPTWHs+hPRvdnrkgAyUsl5KsUETd7v1tUGcpXQ69ohnkhvv3lTsd+s7Lp9zAULn6GM2RstZZqJMvcU2WYsc7fqHkBm9Ke7ZW/NlDnHff9jrzP3lkRq88PnVi1btm5T6tuWDm8aHhtAlq3b9Msin7V83aYgy6cRQPydeOKFr5w4SLS3LVoyeJ6oKAJInAFEanNmwU7L/bKR/ulUtj1NNw+QynzVrxNjPiFqxP09Hn//hWUEgOkq/QOpzJ2FvvfICkF2QwDJHiIULYCn7A3bhoD4ck9ufVbactWeRcRcfZyCv5V/OZW6Oll1dWVOd0HRZ7uxLKNd9wCybcldV0RSKvtvrr6We4DUegNmb3ZvFac30kPFNi8KEm1uS4c3BllqkgDijwCSDwEkvgAy7bDlL3cTjP1vqubbJT4Jf0mi7QkeHeDzRY24Mb8eN77SigNm1Xe1vd4/gNinYhrP3w0BRCp7WpHvMdH2z6e67Wx4pcdbAVebRERI9qeNAuHjWTf0tKx9cNe/1Pb2uh3rbggg27iaH67YYKLNSqnNh90QR3cPFKMRQCowpKoiQ7AIIPkQQOILID4d/+duasr887YJdSV3hnNu//nxs3XgAlUnAkgmTXdwT+UKdKzWiEjUPoC4IY3a/sTr+1P2GbfiTkfmRSj7WREh9xbD+zpR5tQA+9H02P6bRQS6KYDkQgCpQKAggDAEK+5W+QDihkT4/U3mwW1VW8seQlLrTmJJS0mXHkCeG75j7/LrWNmfiUjUPYBIbY4o8Ns05Tcfo2ULH+Rf+vcJ37lLnebe+GVzr/yukcuD7Eu2oES+fXBzVkQECCBjEEAqECgIIASQuFulA4gLEr4TKt2Y74BDwfLe2D8qaiRbcaiDAcSRjfRg35WN3PwdEYG6B5BEmxs9O8ZB3kBkc0ny78dCEZFEmw/6HWPzY/ebFmJfpLZp7mtUmbkiAgSQMZZuuGk/7za8cWCcuRx3Ffms0zds2l0EwBwQf6ecMvyKRScPfde3LV4y+P0JJ5QvGXysyGcec/Lgh0VFMQQrrgDixp96dly+9aKxqmWurZ83BGmbihpJtDm30wGkQAfSvQ1bKSJQ5wAyUjz0Nx7Xzq9Dzd9xDyc8jvP1IiJS2S/4XBs9unlkqH0ZWQo53/fdml9QeQSQErAMbz3fgBRFHRDb7a3aAcTV5PD4e6a64tVk3JCM/J0oY0WN+HQoQgaQVs0Qj/NBmdtEBGodQFT6R16/ScqcE2pfZP+a6fn3xfxUxKIv3SlR5nGP4/yTUA9qfB9YuDebIgIEkC4JIHevfMPr7l5xwL4h2pYVs6/bXki4b8Wsc0Jt/0enzXypqJBuCyBZIR1tb2pnc5PSPG6+t7Z1/5RdISos0eaXHsfu4dx1PgqYuSB9lUfHtylqxHUKqxBARvblu/mDoN0iIlDnAOIzH8DNYQhZw8UtFetTOC+WldSS/vSNPiHPfSdVmTPm9l1EgADSJQEkpPtWzF67vQBy74pZpa8KUVXdFkA6wefHeIZOZaf3t1qTKj1uqtr+dcj9maHPfnWdq3GXNaY7eADR5jKv8yKCTmS9A4i5Lfffpuy9Wc2ZsC33mwKpjRIRkLq5xOuamJe+Jej+KPvxvPsyvZFWalTIRAggJSCAEEBGI4CERwAppqdh3u5zU02UXS4CkkesfG3d5h7k1SpKVY0A4obZeZ0XOj1MVFzNA0ix4oPVaKWuxFWJQqHKPB7yTbFv3SA3KkFEgABSAgIIAWQ0Akh4BJC2TBgNvprKtPnp7+fdF6nt2aJGfNb1Dx1A3OdXZV5QWeoaQLKV4zxXLqtSk8pcIiIwMtQ372/T7VUKRD3zmrNEBAggJSCAEEBGI4CERwApeNy0Pdurw9CX7iEC2rMvfX3+jku159b4ckX9qhJAxMDAjl6d2gCF1spW1wDSM2/NPp0OEVMLIPZaEYFEm69VaXWvRJuL8u9Pcz8RAQJICQggBJDRCCDhEUDCr6TimptgKgKa0Z/u5rE/Z4gaqVQAaT1hfdgjgHxEVFxdA4h7K9npEDGlpsytIgJS2+/kDlXaXhp8f5S5JO/+9M5r7isiQAApAQGEADIaASQ8Akj4m5hU5lER2PTGqt2rMh+l3RJlV1UpgEhlf+TxXawSFVfXABJ73SWpzVdEBKS2P/D4u9a0YX8uzbs/e+vm/xQRIICUgABCABmNABIeAaSYRNuhKi236rcql1kmasRNqq9SAPFZijeGFcnqGkASlS7odIjohgDi6npU6Y2gVHZt3v2ZNj+dKSJAAKlwALlTHvL+O5O5F03UvjVnTtDhEXVdhrdHNY9tjad8cXMd26l+PgEkPAJI+ImMUpknRWA+k5+lMqeLLp2P05YA4lEfpkfbpaLiCCBVDSDhJ2yXwavWVBsCbKLMYP7fynSGiAABpMIBZHNyyPo7e+dunajdtfuBu4gKiC2AuNoGkzzJeHyqn08ACY8AEr72hGuuUrkIaO++dFr+jov5sKgR2TBnVSyAPObRiTxZVFyNA4h3FXQXdqvSEm0Xiggk2v6Tx2/TVeH3x6NWz+Fpr4gAAaQEBBACyGgEkPAIIIWP2+lenZfAN7J95q/p8ehIVeYhRhmkNmdWJoD0pTsl2j6b/9xI3ycqrq4BxC2x6nUNR1IVu2oSbb+Y/7fJfjb4/ih7ed796Z23JhERIICUgABCABmNABIeAaSYpJG+x6fz0tufzhcBuRtl/v0xHxQ14lb1qkoAkY10f5/zQjbSg0XF1TWAzFywalevAKKbizq9zzFKtLk69/Wg7F2h90dqe2Xe/XFvlkUECCAlIIAQQEYjgIRHACnGPQ316mgq06xKJ7G3Yf9M1IibuFqZAKLtB3zOC1dAUlRcXQOI75LJUpvzO72/dS8UmmjzdOjhqm6YV+7rs7F6bxEBAkgJThu64VXL121aMLotHd70pql+LnNAwmAOSPwIIMXs3n/GLomyz3jcWL8uAnKTJes078CHW1a4KgEkUfaG/KHU/oeIQK0DiF+RvP/f6f2NkVTm/T6hPOk37w26P9qsq8rvRfsDiPnXKqwM2aPTt4luQQCJM4AMDKQ7L1yy9vDx2qIlQ3PK+Su6GwFkKsfO3pX7puqqYwecB+JT1Vk27EmiRtyywlXoUEw7bPnLE2UfyX9O2M+JCNQ5gPjU82ldO+n+nd7n2PgskNGO6yJRZn3ufelL9xA1CiAy4EMPqey1BJBxEEDiDCAIjwDSnidpI0+fLhKBuIJZ+W/wzRNFly4IEDKAuKFtnudDFPVY6hxAkoZ5h993Zi/s9D7HKNH27twhT9un3KIawfZF2Q1592VGf7qbiIDU9jf5fvtNsH5Zouzf5D2u0xvpoaJbEEDCIIDEjwBSXI9O/9ir86LM46HGFE9X6R/k3o/+5vGiRqSyp3U6gLi3H+7pos/5IPvXTBcRqHMAGRlK+VuPv++JkJ3juvJ669Cab3NdqH2R2n4q737s2Ze+XkQgUfbe3Me3L31NkH3Q5tv5v+PmfqJbEEDCIIDEjwBS3MwFp71UKvOo141V2S8IIV4iSpbMT9+QuxOumseKGnF1TTodQHyqK7c6WPY7IhJ1DiCO1Hajz3eXaHNjp/c5Nr3aHO53jN1S1uk7Oz1UKIZFInyHA/cq8ydlb9+FGp85kfKIla8V3YIAEgYBJH4EkKlJtL3e88bqOjCry9+P5n4end8PiBqR/fZDnQwgSaN5tF/tj7iKQdY9gBToHNeulk5oc+ac8ntSm/s8fycfdG92y94X93albh1lVz/F49y9ovTt6/R9HvefLaKbEEDCIIDEjwAyNYlqHuQfQOyzbulY0aGialLZxaJGXGewUwGkRzePlMr+p2fn9WE39EdEou4BxL2R9FpQotU5ftoNwWz3jvbOa+4rumI53ud+q/7D/bZ16qHRDH32q0XNirEm2jzmauCUun1lvurx+3er6CYEkDAIIPEjgExdos2XCoQQVxvkmrLWvJ/Wn8722PZCUSOusGK7A4gbfucWFchWN/P93rWxIiJdEECyIOl9DbeGnKwJMaRyvAcdUpvPSGXuF5Fy8ylc57fA7+SjZb619Vkqe9+3rHiliMD0Rnqg57l7cVnbdkPlvL7Pfvsh0U0IIGEQQOJHACmpKKFXTZAXPA26RypzStKXvqxdN6BeZY8SNeKz+pRU1rgli4tua/+BdOdWsUHz0yLft9T2392EdRGRbgggrbcgHk9xX/id3p4o8+ayd2iGTmU2vFCZb446fx8QEUuUXVXod7IVRL6aNMy8Ke+DNjfm3Wbooohl8nyL92wZD6LcQhrunPT4Dp+MZWWx0hBAwiCAxI8AUtJx1PbKojfWkfZQou2wmyAoD1+95/a2t5da+TrX6XGdbzepUmrzw7zbck97RY1kAc7/eH8vUfZydyzcEsaiL91pos93b02SRvoet+yyG788le+5E8N2pqpLAkj2FtF7ON0LOlf2C26BB3dtFj7OrflEQ1Kbf5lgGw/Ev3CH/dFUriGpzPddVXqpjdreECn3wMAt0OF+VxNtzpXK/IPPqmd7vit9hajhm+Ck1Z6YyoIkPTo9JFH2Z37b7MIFHAggYRBA4kcAKXE5T23+dYoh5PmbrLa/ceOfXUcke/KnzDfdjdetp597zfeJPruR/qmoEVfZfcrHW5knpTI/T5T9ljveIx3Au6fSIR2nDYkIdUsA8V3SecLm3oa680jbjW7ew0hAXij77UCim4vcv7sx+27lNKntTe6/zTs0KfYAsq3jWup1pexvpTa/aB1H+/+kMv+cvaFU5uHCb6a3tSm+mW6nLGwVeTOr7OfcW/y823EPyLIAqMyTvr+xU3n7HC0CSBgEkPgRQMrjJktONRy0p6XvEzUidXNJ54/pdm++X3UdBBGhbgogxZblbed5FH8A8V04opMttmt2ZEW3ZwudW9pulsp+PHsL30gPdsOrXBV7N7zXvW2S2p7tig36Bo9Y5751XwA548Bd7l31xl0naz9Pk8okcgJI/AggJR/PfvNWz8Jm7W+N9D2iRmTDntTxYzrZjdc9kQ1U/Ksdui2AtJaMtX9XzXOpHgHEcedKp4/n9tpkQzOrSipzSeXOW22+EuOx7KoAEhsCSPwIIKGeQvmv9tKuFqIQVScl2p7Q6WM6YVPmy7HUEphItwWQbUMqpTK3Va4jV6MA4rihPJ0+ppM1MTCwo4hNmu6QDauqyjnrhrNG/ABmygggYRBA4kcACWOabh7gP0GvPa2n37xb1EjS3zy+08d03KbMFe5puohcNwaQTF+6k9Tmqo6fRzUOII6bH+MmRHf62I7X2rHEchADAztKZT/Z6ePnhnW55ZdFNyOAhEEAiR8BJJxp89PfL1YpPfRNwRwhaqRyAUSZe2Jc7WoiXRtARkhl3j+ySl3Hz606BhDHTYKW2n6n08d3THtWRK5HNY/t0JBgNw9lyK16JrodASQMAkj8CCDh9fan8/0rLYdrbn9EjWSFsJR5vNPHVWrzK1dnJKbaAXl0ewBxpjVW750o8+kihSdLPceU/TdRV33pTom2ZyTaPNjpa7l1rM2TogakSmck2t7cvt9Bu7m337xJxGjztMNefkfPQXuV2e7sPeTGyeaA3NEzZ58yt/eV/fev3A3IJVG3nn2Zza17PsmJ+ETZ24tpTe5YEEDaWujs/Yk2X+/IDVXZn7kVTlytA1FDrrifCyJu2IFbvritHRVtfyAb5qy6jnMmgDxPzjdzpLK3THl5V+/r13w3Uc0Tu+GJsgvwiTYrs6V12/9b+Wyi7B2uAGTdCubJRnqwqwIvtfldgPPzv6Q2fz/ycCvOYWvOncnc4ycLC1G0ZO4aUTFu2EUHLuZyb/TKnNLp41g3BJD2c4WxWuuoZ29Fng10rdzv3lBKZVdMb6SHRn1TKMAFraxIozbXuYBQdidl5Lu7sEenb6v7sSWATFABujWB+ifh7nf2AVf8MtHpYaIbpekOPQ3TL5W5xg1rDPoAISvm2lzSO29NImpuhj771W5ollRmU6LsvcWPm/lVos3nXe2cPMVzo0AACYMAgnHPC2XOy/uDM0OnkqNYrumNVbu7atwjhZ1uG+nQ5JyQaZ7OJror8+VE2Q2Jsqt6lT0qq+yNF3DVqWV/2siKFirziUSbv2iNOXcFy+wj4z4VbP3vP3RLSLrhN24dfPeEb+aCVbt20+ElgGzn+KjmQdkbMGVuncrwIanMo4k2X0qU/WiizJtdB7xNX3E8lepb1+8ViTZfc4VCs9/AfMfX/aZ+z3WY3dyEHm2XujemXT9BWgixz/w1PYlKF2THJPtttNe7VbRG7kdfzP45K6rpCmeaM10dqWnz05lRrhC2PQSQMAggmHBIgW4uydPc0pQcxfZww3nc2F23mlb2Hc03c7KCUCqd4TrTbsgR30XJ0nSHbMlcOn4vPBeZA3YuiYIAAALGSURBVOLFBVQXIFoTgM1H3EMeqe2VibbD29pIrYY1WVV0lWr3RoXzruA16ypzq3RGVjxv5Lcy0c393NuM7Hru1voT8EcACYMAAgDwRQAB0BUIIGEQQAAAvgggALoCASQMAggAwBcBBEBX+McZcw/ZnMy9uNx2yL9MtmrV5mTuYJnb+4Y8tCEquPJOouzF5Tbz40lWlniq7O1Fu7Y0AESKAAIABVGIMAwKEQJAvRFAAKALAkhfmu60aMngu8Zrx5w4WKkiYgQQAKg3AggAdEEAOe64ta9ZfPLQ1vHaoiVDV4oKIYAAQL0RQACgIAJIGAQQAKg3AggAFEQACYMAAgD1tv9AunNW5C1PO3z1np3eXwCoDAJIGAQQAAAAYBwEkDAIIAAAAMA4CCBhEEAAAACAcRBAwiCAAAAAAOMggIRBAAEAAADGQQAJgwACAAAAjIMAEgYBBAAAABgHASQMAggAAAAwDgJIGAQQAAAAYBwEkDAIIAAAAMA4CCBhEEAAAACAcRBAwiCAAAAAABUJIAtPuewNi5cMft+3LTp58IeLTx7aOm5bMvhIkc885pS17wlxYhBAAAAAgIoEkEVL1r5xwiDR5rZoyWXHhzgxCCAAAADAOAggBBAAAACgbQggBBAAAACgbTbLQ0+6s/eQjRO1v5s586Vlb7MbhmAlyi6X2m6coH0qxDYBAAAAdGkAAQAAAFARAwPpzsecdOlM33b0iUMHTRwmBm8s8pknnnjhKzt9PAAAAABU0HHHrX3NxG8yhq7s9P4BAAAAqBECCAAAAIC2IYAAAAAAaBsCCAAAAIC2IYAAAAAAaBsCCAAAAIC2IYAAAAAAaBsCCAAAAIC2IYAAAAAAaBsCCAAAAIC2IYAAAAAAaBsCCAAAAIC2IYAAAAAAaBsCCAAAAIC2WXza0KsWLxl8ZLy26OTBi/gqAAAAAPEi/w20HLKZmT726wAAAABJRU5ErkJggg==;clipPath=inset(0% 79% 0% 0%);" vertex="1" parent="1">
          <mxGeometry x="880" y="190" width="55.77" height="54" as="geometry" />
        </mxCell>
        <mxCell id="hwFNifnMXfar1LAswDKv-65" value="Bi &amp;amp; Reporting&lt;div&gt;&lt;br&gt;&lt;/div&gt;" style="text;html=1;align=center;verticalAlign=middle;resizable=0;points=[];autosize=1;strokeColor=none;fillColor=none;" vertex="1" parent="1">
          <mxGeometry x="830" y="255" width="100" height="40" as="geometry" />
        </mxCell>
        <mxCell id="hwFNifnMXfar1LAswDKv-67" value="" style="points=[];aspect=fixed;html=1;align=center;shadow=0;dashed=0;fillColor=#FF6A00;strokeColor=none;shape=mxgraph.alibaba_cloud.machine_learning;" vertex="1" parent="1">
          <mxGeometry x="845.1" y="429.9" width="49.8" height="50.099999999999994" as="geometry" />
        </mxCell>
        <mxCell id="hwFNifnMXfar1LAswDKv-68" value="Machine Learning&lt;div&gt;&lt;br&gt;&lt;/div&gt;" style="text;html=1;align=center;verticalAlign=middle;resizable=0;points=[];autosize=1;strokeColor=none;fillColor=none;" vertex="1" parent="1">
          <mxGeometry x="815.77" y="480" width="120" height="40" as="geometry" />
        </mxCell>
        <mxCell id="hwFNifnMXfar1LAswDKv-69" value="" style="image;aspect=fixed;html=1;points=[];align=center;fontSize=12;image=img/lib/azure2/ai_machine_learning/Anomaly_Detector.svg;" vertex="1" parent="1">
          <mxGeometry x="853.27" y="310" width="45" height="45" as="geometry" />
        </mxCell>
        <mxCell id="hwFNifnMXfar1LAswDKv-70" value="Ad-hoc SQL&lt;div&gt;Queries&lt;/div&gt;" style="text;html=1;align=center;verticalAlign=middle;resizable=0;points=[];autosize=1;strokeColor=none;fillColor=none;" vertex="1" parent="1">
          <mxGeometry x="830.77" y="355" width="90" height="40" as="geometry" />
        </mxCell>
        <mxCell id="hwFNifnMXfar1LAswDKv-71" value="" style="shape=image;aspect=fixed;image=data:image/png,iVBORw0KGgoAAAANSUhEUgAAAgAAAAIACAYAAAD0eNT6AAAABHNCSVQICAgIfAhkiAAAAAlwSFlzAAAOxAAADsQBlSsOGwAAABl0RVh0U29mdHdhcmUAd3d3Lmlua3NjYXBlLm9yZ5vuPBoAACAASURBVHic7N11nB3V+cfxT9wFSQIlIWiQ4O7uVqB4cStapKVIW6BYgUKx0gItULxAoTgUKO7u7pAQkhAS4rb7++PZ+9uZM2fmzsyduXc3+b5fr/NqsjtzzrkbumfmyPOAiIiIiIiIiIiIiIiIiIiIiIiIiIiIiIiIiIiIiIiIiIiIiIiIiIiIiIiIiIiIiIiIiIiIiIiIiIiIiIiIiIiIiIiIiIiIiIiIiIiIiIiIiIiIiIiIiIiIiIiIiIiIiIiIiIiIiIiIiIiIiIiIiIiIiIiIiIiIiIiIiIiIiIiIiIiIiIiIiIiIiIiIiIiIiIiIiIiIiIiIiIiIiIiIiIiIiIiIiIiIiIiIiIiIiIiIiIiIiIiIiIiIiLQfPYDDgf6N7oiIiIiUb37gRGAk0Azs3djuiIiISJkWBS4BJmMDf6Xc0chOiYiISDlWBq4HZhIe+CtlMtCrYb0TERGRwnQANgPuxT/ou2XnxnRTREREitAV2Bd4h3QDf6Xc0IjOioiISG36AscAX5Nt4K+U8djDg4iIiLQDCwMXAj+Sb+APlm3q3HcRERHJaEngGmAG2Qf6V4A/AE3O12+u6ycQERGR1JYleUd/XHkXOB0YFqjrWeeayUCfOnwGERERSWkFbOCfRfZBf5mYOo/23LNvWR9ARERE0lsLO8rnTtfHlYnAFcBKKepegOgDxX+L7b6IiIhksRxwG+nf9t/HwvvOk7GdR516ZgML1d59ERERyWJZ4HbSvfFPw87vr1tDewd76j2+hvpEREQkg8WA60i3xv8d8FssqU+t+hA9Qvh2AfWKiIhIgoWwBD3TqD7wf44F++lZcB/+4mlrnYLbEBEREezN+xxgCtUH/i+Ag4DOJfVlWaJLDteV1JaIiMhcqRNwKDCK6gP/SOAo6hOi939O21PIvqFQREREPLbA1terDfxTgDOB3nXs286efvyyju2LiIjMcZYFHqD6wN+EheNduAF97EQ0g+A7DeiHiIhIu9cfuJx0YXs/AjZpTDf/305E+7VeQ3skIiLSzuwBfEv1gX86cAbQvTHdDOkAvEi4f/9uaI9ERETaicWAB0kfwa+y2e827IjfqthA3CibE+7bLGDxBvZHRESkTesCnEy6Y33VyijgbuD3wNbAgDp+Dog+wFxS5/ZFRETahfWIbqBLKuMzXBuMBXA3FjtgT2BFyjseuCgwKdD2RGw/g4iIiAA9gItJn6mvUt4AhgOHAf8hGoo3bZkJfAw8hEXzOxbYDssEuCDQsYbP5qYK/k0NdYlIDo1cCxSReCsDN2JH/JLMwP+mfj2wX8ufu2Chd7dsKStTzP/3ZwOjsSWFkVgOgREtXxsNTACmApOxh5DKnydgg/6dwI4tdX2D7W+YWUC/RERE2p2OWNrd6SS/nT+ELQ1sTHyCn2Ni2hgE7I09YHxTpZ2yyjRs6j/4tX3z/MBERETau0WAJ0keOMcAP3PuOzXm2lm0vmEnWRTYB7gC22uQdcmhqPIhFjBIRERkrrEvrVPjceUVYIjn3o7AozH3TAbWyNiXebG1/nOBp0mXSbCo8vOMfRUREWmXugPXUn1gfBbol1DPIODrmHvHAsvV0Mdu2HLDb4BbsaiCZc0SvI9mAUREZA43GHiJ6oPie6Q7Jrca8XECvgWGFdj3PsD6WEKfq4EXyHf80Ff2LLCfIiIibcr6pEvZ+yOwRIZ6f55Q11eUH3VvIWAz7JjfJVhsgdeB7xP65ZZ3qe2IoYiISJt0BHZ8L81geHCO+s9PqG8E1Y8WlqVXS9vrAdtj+x6OwR4Q3H7u3qA+ioiIFK4b8HfSvwk/T77z+h2AfybUOw5YM//HKMwA4Hb8ffyU8iIRioiI1NVOZIvlX0uq3C7A/Ql1jwc2raH+Wu2CBQtK+vxHNax3IiIiBVsC+B/VB//nCmirG3BXQhszgAMLaCeLwcC/Yvoz2/n7aKBvnfsnIiJSmg7A4dgZ/bjBeTRwB5YBcE3yH43rAlyX0E4z8EfKDwveFzib+M/8AZZj4C3n62eV3C8REZG6Wxp4mXTLAd8B52Hx8vM4iegbdrDchwUAKloX4Ejip/ubgCuxY4VgDzvBfk7GThaIiIjMUbpgb8Zx8fx90+S3AUNztLUZybH/vwBWz/1JwjpjRxI/TGjvTSyXgesS57p/FNQnERGRNmc94DPSbxCcApwO9Iyprwf25rwcsAGWE+AA7GEjKbTvNOA48p/D740d7fsioY3PsdwDcW30xqINVq6fBaySsz8iIiJtXj/g36R/CGgGvsQ2+j0FvI2d85+asQ5feYpsAYgGAmeSHPBnNPZwkOZ438qEH1SeR8GBRERkDncM1dMB16NMBo7FpvN9OmCzC9eT/NDxBnAQNiuRxVFOPXmCIomIiLQra+KfRh8L/OD5epnlPWCbQN8WxDYVfpRwzyxsNmPDGn8OwRmRMZSzUVFERKRNmRd4kPDAOgJYB5sOH9jy54OBC7Bp+zJnDv6LxfafmXDNy8CvKG7nfl/siGCl/isKqldERKRN6wT8mfAgOx3LJ+DTE9vtfw7Jb+hFlpHAqRSbbTBoODCxpa3ZFHdSQUREpM07gOju/auIX5+vWA24EIsjUNYDwGzgP8C22LHGMuyGxQxoBl6h+ucWERGZY6xLdCD/L+nC5a5L6wBaZhkL/I3a8hjEuTDQzikl1C8iItJmLUZ0av9NLMZ+NdVCAhddXgP+gKX2XRHLTVCLzsATLXVPw5YGRCSnsuN/i0jxBmKZ/lYLfO1LYHPg44T7FgI+Abo7Xz8R+BZLz/uTlvoHYbv9B7aUIn5XzMY2Mc5q+Xt3bI/DZCyw0XTgR2yT4QQsWdFkp46BWFAjsA2H6wTqExERmeP1Ah4g/MY9CnvTTnIR0Tf1C6vc0xWbedgMOBQ4FwtH/Azwqae+epaTq/RdRERkjtMVuIXwgPg9ybvkBxEN2jOC2qLsDQQ2BX6JbUx8jeSjgkWWacCyNfRdRESkXeoE3Eh4UBwHrJpwj28vwCYF96sHtvHwWCxU8ThPm0WV17FTEqthMyMiIiJzhU5YOF53JmClmOvXIDqI/r0OfVwN22/wDMmpiWsps7FlibuxWAh7YT+HWjcgioiItEkdgX8SHgzHED89/pJz7TjqO0gOAg7BggjVY6lgJhZR8HYsi+KuwDIonoCIiMwBOgI3Ex74vsB29rv2IzpI7lSXXpoliIY5bkSZjh2jvAWLLfBTYNESP7dIm6FjgCJzlq7AvcAWga+9gWXtmxj4Wnfs1EC/wNduBPYpuX/dsWWAk4geR5yJzWIcEvjardhMRlesr51b/nc+LFfCvECfEvr5A7a3IFg+xJYYRERE2qTewIuE33T/SzRM703ONWOxtfqybEF8foJngeWwh4Lg1/dPUW9XbJZjdWAH4EjgTGxfxLPYg04RswWTgeeBvwIHYoGIajk9ISIiUrj5gfcJD2DXEp7124XoILd+CX1ZAHuT9w2qPwCHER5IJwS+f1ZBfeiNxUjYFdsDcDuW5rjW44oTgP8BZ2MPHwsU1F8REZHclsBOAwQHrDMC3++NReALfv/8gvvwM2wK3zd4/gv/gPmxc02ZugKrYMsOV2DRBWtNqfxFS7+Pbam7zFkVERERr82IvuXuG/j+Pc733i+o3X7E5x74Ctg64d5nA9e+UlB/suiKJTP6HfAINvVf6yzB/djeh3UoL2OiiIhIyC+JrmUv1/K9Q4gOWEvW2N7GWG4Ct94m4B+ENx76/Cdwz/ga+1KErlhQo1OwvRSTqH0vwf+A07DNmTqKKCIipbma6Jt+byxOgDtAHZ2zje5YXgFfkJ8RwJYp67nSuXdAzv6UpQt2iqGocMcTsIeeX6AjiCIiUrCewDuEB56bsE2Bbpjeu3LUvyR2nt43wN1LtkH8TOf+tXP0pywbAY9TzMAfVz4ELgG2wf7dREREarIc0U1/hxLNKvgD2Tau7YhN1bsD2XRs+SFrvBF3yaLs2ARpbAQ8SfLA/TLw7yrXZC1Tsf0DB9H2ZkJERKQdOZzoAHMH0YFnjRR1dcRSAzd57h+FrZvnsYdT1x9y1lOElagesfARLBsihDc+nowdOXyA6GmMPGUWNvtwNDCkrA8sIiJzrrsJDyy+NfuTq9TRi/BmvWB5BRhcQ/82ceq7qYa68loUi4wYl7SoCVsqcbMufhq4Zhnne8OAvbE9Dm6MhqylCQv2dBJ23FNERKSqn+Cfsg+WRxPuXwh4Nea++7BUwLVYzqnzxRrry6Iv8CeSYwE8iEUddC3oXDd/lbYGYYGJLgPeTWgvTXkOC6g0T+ZPLCIic5VfkDygTMZ/Xn0p/Ef8mrFof0WccR/o1Pt9AXVW0xFbZ08KG/w4Fh8gTjCy4iyyhwleGNuTcSfwY0I/kspU4DZgO3S8UEREPDoAT5A8mKzl3LMy8F3MtddQXMS7TkSn3uctqG6fdbBli7ifw/vYgFrNRYF7RtXYpy5YPIXziD9dUa2MAv4MrFBjX0REZA6zNDCD+AHkhMC16xC/bHAnxYe7He20kWZTYlbzAFfh38TYjCVHOpr0sxovBe59quC+LgQcjJ0yqLZ84yvPArujKIQiItLiMuIHjXtarlmV+EHnWWpf8/dxYxbsVXD9exE/3T8TuJhs6+m9CAcGuqLIzjq6YjMS15P9YWAEFuJ4YIn9ExGRdmB+7Ny/b7D4Hps+Hhvz/Y+pvtEtr8ectk4tqN5FsHC+cQPkC9hSR1buyYVjCuhrGt2wLIQ3Es6iWK1Mw44srlanfoqISBt0AvEDRdygMp3oEbgi/ctp7/oa6+uA7ZKP21z3AxYjIevGvYrTnfo2r627uXTHgjLdDEwk/cPAc9hDRNaATSIi0s51A74h21TyiSX36VKig1ReQ7FgPXGf5d/40xJn8YJT56Aa66tVDywV823Y236af9PXsAcIPQiIiMxFjif94P8k+d+U0/qd0+bonPUcSPwsxhhsY1ytBhA+tfBxAXUWaT7gWKL7KuLKG8DO6EFARGSu0AsbENMMELOBZ7BZgLKi0PniFFRLIxzUF4sgGPcZ7sMCIhVhb6fuawqqtwyrYpEI08QZeAfYl+JPeIiISBtzGtmWAZppDUl7IpYRsCg7edpKu+dgfeKDFU3ABuwi3ei0cXDB9ZehD9ZPd+nCV94GtmpMN0VEpB7mwyLJZX0ICJa3sA1xtQafWddTd7Xp+o7YQ8ysmL69BCxeY79cXYmeoli64DbKtjx2HDQpJkQzlpWwvX02ERFJKWnaPGv5GItktybZ15OX9NT324Tr5yf+eF9TSz/KCIKzrdPWN7SftfPe2EbBa4kGXoorM8geI0FERNqBjSjuASBYvsZ29m9MujXlfp46ro25di3gq5h2xwBbpPrk+VzrtPf3EtsqwsLAEcBDpD8d4CtjgSNRvgERkTlGB+BDynkIqJTRwD+AbbAjiHHcAeppzzVHEZ+57xXsCGBZugLjnDZ3KrG9vBbH9mgk5TvIW97FgiCJiMgc4BTKfQAIlvHYssPPgJ5OP752rh0Z+F5X7CEirt5rsMA4ZdrBaXMatrmuLVgCOIn4tM1pB/enU1zXhOVU6FuXTyYiIqVZGv8v+muBu8kWZS5LmYIlFtob6E908GrC1q0HYMl2fHVMxyL+1cNdTtuP1KndOEOwN/3XyPfzn459hmOAxbCHmc8z3P8VOi0gItLuvU/0F/yBLd/rCmwKnI/t+i/jYWA6MNnz9X2IH5S+x/Yw1MMChJP/NFO/B4+gfti/y2NEUyinKWOwnAC7En2Dv8K59nFgUoo6r8Ue4EREpB06h+gv9lNirh0MHATcTnxioaJKXOreT4ClivnoqZzotD+D8hIjuboA2wO3ku/Y5tvAH7EUz3EbMjcn/LN+H9uv8RNso2PcUctKGdHSRxERaWfWIvpL/ZIU93UG1gPOwjad5XkrzVqeoX6DL1i8gY+cPtxXh3aXwmZdviPbz2c6dkTyKCwbYjX9CAdSmo39mwYNxz5ztbZvIFsERxERabAuRKd7b81Rz0Bs2v4m0ocazlJmYtkMF87Rt7y29/Tj5yW11QP7+T1J/OyHr0zGkhztRfYB2N1c+beEazfGZhSS+vIpsEbGPoiISAM9SvgX+ZM11tcRGwh+j2X3qzaNnLW8ik3ND66xn9U84bQ7CducWKTlgb+QbUllPBaWeGeiJyrS8gU2qvYA0QU7ceDbs1EpM4Bf036CJImIzNVOI/xL/IOC658XC+97DfEZ+/KU2dhu9j2xDYtFWs3T3j8KqrszthnvCU8bcWUCtolvG2r/rAOAUU79O2a4f1HggSr9vRdtEBQRafM2JfzL+/uS2tmX6nHo85ZvgTOwXftFuMXTxuo11rkANivyjaduX5mMLcfsRLGxDu522rkjZz27EX2QCJaPsRkOERFpowYSncYt2olkW9vOW6ZiU+pDa+jrcKLLFq/WUN/q2N6IuEiGwTIduAdb0y96uQHgUKe9H6gtXfIAog8UwTIJ2KOG+kVEpGRukpgeBdXbETtV4BscZuF/0y6izAAuxx5usrrTU9+hGevogK2zP56yvy9hu/fLPOWwJNENn1k/V5xDSA4cdTbaFyAi0iY9QfgXdp6B09UNm8KOG6B3A/4T872iHgR+BH5H+in0NYjOVHxP+rfxbljAnndT9O0rLA7DMinrrkVn4EWn/ScpdlBeAnie+M97O/k3LYqISEn+SviX9eI11tcPi1rnGwimAT8FFiQaZW8WNpCsgIWqvZ/astlVykekS2bjnohoxvYWVNMX2yE/sko/pmI7+DfBZkfq5SxPP8oIqNQZuID45Z6XsX93ERFpI04i/It65Rrq+gnwBv4BYAqwdct1J3u+f7Onvr7YOvLdRB8YspQm7CRCXCIfN+lPM7YRb0DCZ50HOJ1otkC3vAsci52IqLfNiAZq+m3Jbe5G/JLAF9Q3mqOIiCQ4gPAv6Q1y1rM08TH8J2EnDsCmnj8hOkCvWKX+QVhAoC9i2khTPgXWdurtGdPvS2P6MQCbvk861jgFO7rnRterp0HYCYlgv17A3tTLNpz4lNNjgDXr0AcREaliG8K/oLfIUcdawFj8v/B/BNYPXOsePWzGpvvT6ozFFsibpGgmFrCmwpcTYTrR0wQLYFPcSclyPgGOo/Hn4DsCDxOd0RhWxz70I/6UwCSUVVBEpOFWIfzLeevkyyO2Iz5C3A/Yw0GQb/f/+mTXCZu9+Dqm7WrlZmBV/Ef0gjkR5gXOTfiMTVhQou2p79p+Et8Sy5EN6EfSSZAZwC4N6JOIiLRYjPAv5u0y3Hsg8WvzY7EBNmh+ohv7nqmh72DHFk/GwuTmmQ1wvzYBm+bvjQXviat3EpZOd3iN/S/aOkQ/18M09ije8fiTRs3E4h6IiEgDDCb8S3mHlPf9nvgd399hu/ldx3muzfLAkWQAdtwsz2xAsJzd0k83PkKljMIeOOYpqN9Fmodwlr9mbJNi2bkT0tgVf2rjWcD+jeuWiMjcaxDhX8g7Vbm+E5Y9Lm4AHUH8+Xb3jPybFP9muhd2fj/vA0Dcrv7PgCMoLlBS0Trgj63Qlt6w18ef/Gg2cFAD+yUiMleal/Av458lXNsNuI34wfMrLOqcz7qe68sanAaRHKY2S3kby2VQj93ztTiaaN/vbGiP/FbGv2F0NuWlXBYREY++hH8R7xpz3TzAU8QPlJ8BiyS0c61z/aeUN6j2Aq5M6Gva8kfaRxjblYnurRgJzNfITiWIewiYiaU6FhGROvgJ4V/CP/VcMwR4h/iB8kOS15n7Ed1Ff3gx3Y9Ynfgz6FnLLOBMoEtJfS1CHyzaYbDfTdjxzrZsBfz7LKbT9vsuIjJHWIrwL+Atne8PJ/mo3btUD/F6uHPPtxSb5hZsb8IplJN2+EXilzYa7Uai/b2ioT1Kbzi2YdTt/2SiAZtERKRgqxP+5btR4Hvrkxzq9g2Sw+VWvOrcd1IxXf9/iwBPJ/QzuOyQ9yFgIm1vevoX+GdjykgnXJZV8EdVHItFlxQRkZJsQvgXbyVwz874j21Vysuki2+/qnPfeGxJoCj7UD0GwJfYBrOPq1xXrTRhCYLaQsCf1Yiu+08FVmpkp3LaGP9/a19gS1QiIlKCnxP+pbsSNmU/i/iB8DnSD+LukcFzCur3PMC/EvrYjG0quxB7Iy4iRkCl3I1tnmyUefHnLziigX2q1c74/5t7k/gkTiIiUoNTCP/CvZnkwe8J0k8x9yI8vTsFO6JXq42xI4dJ/XyZ1syGRyVcdyf+s+nVymsFfZasOgL3efpzWwP6UrRD8AeXuhfb4yEiIgXKclzucbKtLx/o3P+XGvvaBUvBmzQ7MRk4kdYBwzdVXinXt1zTp+Weaql93fIZsESNnymr33n68SnFLqs0ki85UzPwp0Z2SkRkTvQg6Qa7+8i+c//ZwP0zgUVr6Oey2Ft3Uh//Q/g4Yn/iN/69SPTz9APOw58gKK6MAJar4XNlsQnRh59p2EPOnKIj8UGcFC1QRKRA7hnyuGnyrhnrHe7UcUPO/nXAMtlNSejfV0TjF3Ro6bfv+pHAQgltDsNSFKd9CBhD+UmBFsJ/ZO4XJbfbCH2wCIzuZ50OrNnAfomIzDF648/SFiz/Il/EvosCdTSR7y15AeCBhL7NamnHt0nsmJh7pmEZ89LYAXtYSPMQ8C324FCGLljWRLfNa0pqry1YDHuw8i13NHIDpojIHMEXnz9YriPf5qvuhEO93pOjjh2Iz8jXDLxCNN1wxRrET+MfnLEf8wG3JPQjWL6mtmWOOH/2tPUKxQdTarR+2EzKlsAB+Dc7NgM3NaqDIiJziiOJH8yuIv959z2dutK+cYOdHLgioV8TgWOJfzCZB/8RuWZq24S4K9XjDTRjsQbmr6Ed18+I7owfCwwtsI16GYhF+Ps5cCrwT+AR4D3s3zXtkkszihQoIlKTf+D/5XoptSXB+V+gricz3Lca8EFMn5qxzWFDEu7vQPwGsieoPab/Elj0w2qD01NY5sRaDSMaJW8WsHkBdZdlfmAD4FBs5/6d2M8s6wBfrfyqXh9IRGRO5Btsaz1utQThN9atU9xTLY7/18BOKer5Vcz9X5AuZHEaPbC192oD1A3U9hDVE3jLU29bGfgWAbYCjsdmi57Cn+GvqDIGS0j1EJagaU459igiUnduFsDg2+tpwIo56/1joK7XqT4ILkJ8muFZwCWkiwS3Hv4HiMm0BgQq0nFU30B5Sg31X+ep7+oa6surBzYzczA2M/Qk6ZZCspRvsU2O/8SWBg4CtsPyVAwm+wkUERFJ4IYA9pV3sd30aUOxdsF+mVfu373K9XsTP5i8hg0AaQzCzuO7dTSl6EMtdgQmedoNPsBslKPeQz11PUH5A2FfLMriCdjGx/dIDrqUpYwEHsX2d5yAhf5dAdvzISIidRS3/u8rP2CR8qrtOt8pcM/HxG/U60/8zvpJ2LRy2qOHnYDHYuo6M2UdtVgN//n84MCXJWTwKkQT43yCnUYoUk/sFMgxWErhD6g+o5GmfI89rPwVyymxIemSRomISB10wNbFs/5y/xRLERwnGDzn0JhrNiI+jv89wMIZP0tc6Ng7qV/WvqVIzk3wv5R9mQcLLxy8dzywTAF9HAbsh72Bv0ntb/YzsDTPf8dOZWwGLFhAP0VEpESrkf8X/2xsndZd2x9C66Aygugu+K5YmF3fW+YI7LhbVtvhTx7zJtlyFhRhEZLTDR9X5f4OWNIbd5DNs+O/J7YT/yTsVERSPIU0ZTqWXOlK7MFuVbQuLyLSLsW9NWcpNxGepj8t8L0TnPaWwR/HfzZwGfkiuy2KP3nPaGwwboQFgfc9fWrGNiMumXDvyc71TdgeiTR6Yg8K52CpmuNOU6QpU7E8CX/FNv6tTO3HJ0VEpI0IHv+bAowi32BxM7YG3wn4suVr42jdNJgUx/8NLGJfHt2xSHi+N9WkJYp6+AnxMwFP4V8K2JjolPxvEtro3nLPGcDTZEte5JaPsSOLR2CDfZ6wzyIi0g4sR3gAeAAbqFfFBpSsZ7nPw876V/5e2Xg3CH9CnUnAr6ltoIlLYZw1zG9ZFiY+GuHhzrU/IfoAdolzTVfsweZULCWzu0kwbZmEbdA7Bwu1PLCQTysiIu3CeYQHhZOc7/cBfgv8SLpBpQnbpV6Z5h4AbI9/Z/x91D49v29MP9xBs9EWA74h2s+xtO6K70w0BsJt2P6JdbA4Ao9gP9c8A/4n2Nv9kdjpAr3di4jMpToTPqffTHxM9aXwp2RNKv/AH8d/JBZLv1bL4x8MH6ZtDm7LY0co3f5e1vL9C5yvz8Le8POEzZ2NBV66GItPoLd7ERH5fz8lPGhMJnk3dy/g36QfhNy49bOByykmbGtf4ENPmx9ix+faqvWJTtnPxGZZfCcY0pZZ2D6IC7EZl7b8MxARkQa7h/Agcn+Ke7pi8dezDlBvAmsV1O8O+B9EfgCWLqiNMu1K/oE++NDwInA+sC2KhS8iIikNxgaR4KCS9phZb+Al0g1Uk7Ed7EUeHTve084sLBlNW9UDm3G5Hv9xxTQD/nNYboWtSR+OWUREJOR8ogN12mA52+KPte8rIyh28F8b/zG3aoF1GqEnNh1/PdHlkDTlU+yEw67oDV9ERArQh+hmtJtS3Nef+CN3SaWIDX9gG9l8O+mvK6j+IsyDnUy4jeTEQL4ypuW+Q4Gh9e64iIjM+Y4jOvhsXeWe7bDd+0kD2Cxgf6KnBZ4soM+dsBj6bpvPEA0zXG+DgF9gpw+yRN2bhn2mE7FjefXKVSAiInOhzkQT/3xE/ODTD7iW6oNZE3Bgyz3DiR7PW6HGfvvCFX9Jtsx6RVoYy5z3FNmy5r2F7dTfClsiEBERqQtf4Bw3Gl3FFiRntQuWXzr3ugP2X2vo8/ZEj8hNAlaqoc48lsTe1l/y9CeujMNSHe+LsuOJiEiDdKE1Sl+lfI+d7w/qiUXSSzvIneJpaz7CMdXNcwAAIABJREFU0QNHEs0YmMZQouGIm4Ddc9SVx3Bs0H+GdD+LZmzz3iVYSlxlyRMRkYY7hOhgdZZzzcbEx633lXMS2vubc+2qGfvbHcsx77Z5asZ6sugArA6ciy2NpPkZTMdC9B4LLFFi30RERDLrRmuGvkr5EZi/5fu9sJC0WaLRXVqlzY2c60/L2OerPG3eRr6ZhCQdsQh9FxP9GcWV77C9EbuQL32xiIhIXRxN/Nv/esSnrI0r11B9IO5IOAnQyxn6u7+nzTeILlfk1QXYHMtVkDb98evYz2xNtGNfRETagf7AaMKD2Q9Y6tkLybaLvRm4FTuWl8btgfuasOyA1fiS/Iyh9syB3bENhf/E9j6k+azjgcOAITW2LSIiUncXEx3Y7gfe93y9WrmXbJH9jnHu37LK9b09/ZoJbJKhTbe+XYF/kT6lcbB8n7NdERGRhlqWbMFpksqj2Ft0Fus7dZxc5fqbPO26RwyrmQfYB7gLmOKpL0tpovGBhkRERDLLk7nPV54nfa6AoAWdem5LuPZQT7vXp2xnPuys/b34cwXUUoam7IOIiEibsCPRwSzP4Pgato8gjw7AxEBdn8RctyIw1Wn3BZJnHAZjmxufwMIQFznoB8uaGT+ziIhIw/QFviY6mJ2IhaNNO/i9S7qNe0leD9TXRDSzXR/gQ6fdkdgmRdfiWHrhF8h2ZLGW8tOaPr2IiEgdXY5/Gr8T8AfP93zlE/yDcFbBkwDN2Nt+0A3O92dgewcqFsM2Ez5D/Qb9YDmsgJ+BiIhI6dYjerRvCrBUy/dXovqg9xW1H7urOM+pe5vA9w7ztH0QFjXwHOCDFH0tskzzfO30gn4OIiIipekGvEd0EDvWue5TzzWVMorWh4UiuEGIDm35+spE1/1/JFso4lrLt1hcgyOB5YC1PNdcUeDPQkREpBRnEx3AHiMaue4Cz3XN2Ln3WlP3unZ22jgD26OQNfpgEeVrbMnhEPwPOT2wuAPBe+4q5scgIiJSjnWJ7oYfg38df12ig+Oklq8XbU2nnavxn/cvo4zEjh4eimX2S+Ntp46nc35uERGR0vUFPiM8cDUB28Zc3xGb/q5cOxnYsKS+DXH6NZFyBvtmbM/AVcDe2DHBPK5z6nwrZz0iIiKlcwetZuCiKvfc33LddGCrEvu2qqdvRZUmbA1/N2CBgvp7nNPGlwXVKyIiUqjdiA6MrxAfwnYB4L6W62Zia/RFWwpL/+vbkFh0mYVN05+AxQmo1XZO/eMLqFNERKRQiwDjCA9YPwBLxly/C7YvoBk7Krh3wX05kXDgnyLe8JNOLPiufwo4AAswlMcyTp2zUfpfERFpQ7oBLxMerGYCW3iu7Q/cSHigLCLAzYJYkJ7nKSdIz6dYOOF1gL/Q+vCSpkzATjtkTeXbnWgchbyhkEVERArni/Z3pOe6zYmGBf5VDe12xIL5/Ifokbmiy+1O212A7bGkP2nj/88ArgUWzvAZv3LqGJrhXhERkdLsSXSgu9y5pif21uy+mZ+es83BwKnYprgyB/1gOSmhPwsDZ2JH/dLUNQWLLtg3xWd93rm36NgIIiIimS1D9Cjdw0DnwDVrEU2w04xNiWfRCXvjvodyMu69WuX7vuUMVxcsFbB7fj+ufE31Uw8POPesn3y5iIhIufoD7xMenD4A5mn5fhfgLPxT81dg6+lpDMGSBvkyCtZavgcuoTUp0ISY62YHPlcaHbAd/E+n6EMTFi+gV0xdNzvXb5mhHyIiIoXqBDxEeGD6ltajb8sBr+Ef8G4g3U72VbHBr+i1/dnYLMUeRI8nxh0VfCdFf+NsDbyZol+v498b4O6v2L6GvoiIiNTkIsKD0jhsbboj8GuiiXUq5U7CywOujtgA90TM/bWUL7E9B4sktP9ozL1XVfl5VNMR2I/ohj63jMKWTILcnAplxEoQERGpan/CA9JkLO3vUOBx4ge3h4kPCNQNWzt/N+H+PGU6tkt/V5IfPCr+E1PPfinuTaMncC7JexgmARsE7nEfAPYoqC8iIiKprY8NqpXBaAp2tO9gLH1u3KD2JDb4uQZh6/tZztSnKW9hMQHmy/j54h4A4oIZ5bUWyRsFxwNrtFx7nvO9fQrui4iISKKlgLG0DkRTsbf2e0kejF8kGglvMeDvwLQq92YpE4AraR0487jLU+83NdSXpBvwV097weWAwcCfna8fVFJ/REREIhYgnOFvKjaAV3tzfxOYN1DPIsA/sIA4RQz6lXC7++GfYcjqHk8bNxZQb5J9sZkU3+d7AXuoCX6tiKiJIiIiVfXGEvoEB6HRVB+cP8Cm+MH2B1xFcQP/t9ha+rCCP6vv2N7BBbfhsxLhlMjB4s6S/LIO/RERkblcF+BBsg/QX2GD/hDsnH3cqYAsZTbwCLahr0tJn9cXsKiIrH5pDCNdrINaQieLiIhU1QG4huwD9QhgQ+z8epFr/L8o9+MCFhjIfZCpp8WBL0j+OZxQ5z6JiMhc5k/ke0v/H8UO/MFp/yzR+LLqSjRXwfUlthdnGZJPVBzXgD6JiMhc4jSKH8CzFje9cDO2gbAsS3raO6DE9pLsSHxK46Mb1CcREZnDHUfjB/8XsUx5o5yvNwGblPS5t/T0Y9GS2krjak9/moHDG9gnERGZQx1C/Jtn0WVSzNdnA6u39OcIz/c/ppgjf67DnXa+KKGNNJYB7iD+36EepxJERGQushc2+JY98D+NhbM9I+b7fw/0qQs24LvX/LPoDw9c6LRxbQltJBna0ma1VMf717lfIiIyB9ud4rPuBctkLA5AJe1uV2Ck57pxwACnb7vE1HlIYZ/ePOzUv1/B9ccZBFxKOMRyUtm7Tv0SEZE53B6UN/h/DBwP9Hfa3Dfm+rijfr4QvVOBlWv43C53v4EvNW+R+gNnEb8U0owtA7jBk5QMSEREarYX1aecs5bZWH6ArbA0uD6ve+57DIs94LMA4TwElfIpxRwNHOSptyzdsbP8bswBd+C/B1gF2xAZ/N4uJfZNRETmAj+n2MF/LHA+lugnyWaeeydTPeLeHjHtPgX0SPWJ423h1FnGccOO2MzHlyT/HO8DVgvc94zz/e1K6JuIiMwl9qa4wf8V7Lx82kH4KU8dx6a895aYPtwFdEpZh8+vnfqKXmffAniD5J/jA/gzGT7mXLd+wX0TEZG5xD7UPvhPA27A8tpnsYmnrueIXypw9cK/fNCMnR6IW0Ko5ganrsE563GtTHRzoVv+C6ydUMdDzvUrJlwrIiLitR+1Df5fAacAA3O2/6RT32Rg6Yx1DCU+G+GfyfcQ8Fagjo9y3O/r4/UkH6t8CFg3RV3uA0AjgxOJiEg7tD/5zvk3AY8CO1HbNPvGnrqPzFnXBsQfm7uK9DMKYEcSgzvtr8zZJ7ANiX8iPvthE7ZBcs0MdT7q1DFfDf0TEZG5zAFkH/wnAJdhkelq1QF4wan/fvJP2QPsTPzxxZtJnzJ4FefePOv/3bF9BONi+tOERffLc2zxCaeuslIhi4jIHOYgsg3+72IhePsU2Ad3B/9o7OhdrfYkfknjEWDeFHUc5Nw3LEP7HbEHhi9i+jAb27i4XIY6XcFTAFNqqEdEROYiB5Nt8L+7hD50Az5z2tmhwPr3I/4h4GNg2Sr3Xx64/nvSz0psTvyGxJnYHoCs+xt8gqcHvi2gPhERmcMdQnTwn4xNvcc9AOxYQj9+5bRxRQlt7Ih9triljN0T7n0ucO1DKdpaCdu572trBhZDoFpMgyyCcQM+LLBeERGZAx1KNJvcHdju9N3xD17Tgd4F92Mg4XXxD7GjfGVYi/jTAc3YG3lf555OhB8c/pBQ/6LYcUHfjMo04K/Yz7doEwPtPFdC/SIiMofYl/Ag9SGW6z74fd8A+XIJfbk2UP8MWtP8lmVx4E3iHwK+ILz8sKzz/W09dS4A/AX/qYMpwCXAQoV/EtPFae8/JbUjIiLt3K60rodPAk7GjrkFHYx/cLyl4L6sQ3gW4ncF1x+nB3AN8Q8BzVic/WWxDXzBrwczEfYHzsGfrGcidtyviI2MSQY67f6t5PZERKQd2o7W8+wPED8dfSD+QfHMAvvSifAGuWeoLYZAHvsDPxL/EDCb8O79SgKgnsBJ+I/0TcQeCuavz0dgKaf90+rUroiItBObYcFnRmNJfpLEJdU5uMD+/DJQ7wQaF71uEeB/xD8EBMu/seOPIz3fmwScR/0G/oq1nX7EpUsWEZG50HrYAHU96Qao7fEPgPsX1J+hhDeu7VdQvXl1AA4jPkhPcEbA/dpk4ALyhz6u1bZOf37aoH6IiEgbszq26W3LahcG+ELyNmMBcWrVgfARuVsLqLMoA7FNie7pCF+ZAlyEbQBspEMJ9ytr8iWRNqlzozsg0s4tj637r4vNAKQ1KubrRazR74+lvgX4Bji8gDqLNAEL0uNujKyYgeUCOBdbCmi0Ic7f4/7tRERkLtGN/FHm+uB/6/1tjX1akNZp9tnApjXWV5T+wFmElyWSlgHOo+3E2/8n4f51b2hvRESk3ZtAdPC7vsY67w3UdUGNdRWhF3AiFt7XN9gnnRB4EVis/l2OCG5g/K7BfRERkTmAL4b9CzXUF1yrfgOboWiUPtgxPl9UwNnYEcktsRmPytdneK6dQL7MgEX6iGL+fURERAC4Dv8bcZ6p78VpnV6fSm2Z72oxD3ZO3vfG/yOW2jiY6e+OwPd/BfwGC+nr3vtfYIm6fIKwDthmxEo/bm5AH0REpIHSZqfL4nj8U98bZaynE/Bs4P5jiutiagOBs/Eva3wDnAD0c+7pgGXWq1y3asvXlwNe9dQzFTiV+s5sDHD6cFYd2xYRkQbqgOWbL8Om+B8Azs9Yz+8IvymX8bASZxngKmxwdj/H21j8gbjd/isGrv2B8KmkLsDp+JcFPgX2oT5RDVdx2j6wDm2KiEiDdabcQaYX/uQ2H5B+EN+Q1rwDY4CfFN9Nr42xDYe+8/yPAdtQ/TOcGLgnLgfCCsDznjaagfeA3SjvAQ0s6E8tszMiItLOLEx9ppqfwj+4bZXi3oHAiMA9u5TUx4pu2IY83/T8LCzg0GoZ6nslcP9eCdd1xMIDj/e02wy8hQVQ6pGh7bSOctoaWkIbIiLSBnQGNqGcwcTnVPyD2mNV7utIONrfv0vs46JYUB7fjv7JWJrerMf1hgXqmEJ0f4DPT4DbPH2olLFY/IAiB+nzAvVPp/7JlEREpA56AHtS3wiZqxM/oK2bcF/w+NxYik+J2xGLcHg//vj8o7Hd/nkT85wZqOvGjPdujB1zjPu5zcLO7h8CzJezfxU3B+r9qMa6RESkDeqP7cpvRHjs4Dlzdy+AbyYiuO7fTLHn5BfFZiU+j+nTJ1ho4VpmSDoTXrrIE62wExb3wDcrESwzsJgDB2NZCbN6OlDXPTnuFxGRNmwBLGpeowLnnE78AHaxc6277n9fAe33w9bQnyQ+Sc+L2B6DIqbAdw7U+zm1beLrh03TTyb5QaBSPgb+hn2WhVPU/0Xg3nNq6KeIiLQxi2Lryr0b2IcliR94ZwM/b7nOXfefCAzO2WZXbKf+zYQD3bht343NOBTpuUAbpxdU54LYXgTfqYqkMgb7mZ6LbURcu6UusIed4DHEyr+DiIi0c8Oxo2SLN7ojhGP4+6ax9yd83r8ZO0aXRS/gZ9ia+w8J7Y0D/oQ9HBUtGPtgNvmm5ZMsgqUbnkm2BwG3TAU+dL62YsF9FRGRBlgSSzW7c6M70mJ9kgekJsKb8T4kPsBO0AAsGM9dxL/pV8pb2Lp6z4I+k89jgfbuKrGdRYBLsRTNtTwIVMpMlAVQRKTdWxj4EpsybkuCU+PVSlycgPmxh5pLsUh8cUsLlTIFmxHYqITP41rXaXudOrQ5P3ZaodpmwWrl/Tr0VURESjQP9sv8W9KdPa+n9ak+YAffnHthxwgPBf6KvcGnub8ZC+ZzBHb6oV4eCLT/ZB3bBdvguSfwOOl/RsFSZpwFEREpWRdac7vv2+C+xLmJ6oPRR8CoFNe5ZQw2M7BS3T5Nq7WdvmzTgD5UDMM2/X1K+p/d6Y3oqIiIFONK7Jf5c9Q3YU4Wg/En1slbRmKzA5vSuCh2HYAXAn16k7bz818RG9xfJXnj4K4N6p+IiNRoP1p/me/Q4L64Fsei1t0CfEftg/4XWPyA9Sk3UU5aexPuX1s9TtcLO/L4INGfadZQxyIi0gYMpzVQzCc0flBcABsEryY+4l6W8jUWy+Bw7HRDW9IT61+lr+/SNuPp9weOxaIv+pZO2sqMhYiIpNSZcPa64xrQh/7Ajtj6+7vUPuBXyufkDwRUL6cT7vOODe1N1GrYg1hSJMEHGtY7ERHJLRg8ZxYwbx3a7Alsjm00e4lw3P6iy4F1+Dx5DSE8sD7b2O78vy7AHlh44zQ/4z80ppsiIpLX4oQ31JU1AHXGzrj/HngCmEb2gfx7LK5/UpY7XxmLBftpi+4h3Nf1G9sd+gO/Ab4i2894u0Z0VkRE8ruL8C/y3xdUb0fsKN3xWLrciWQbUJqwEMRXY2/wy2BrzJ0Jr5enLTcU9LmKtBfhPjYyk94SwGWk+3d6E3jI+VrRqZZFRKREvtC6q9dQ3zDgMGyz3RhP3UllEhaA5mxgW+KXIXaKuf8Nqk9X71PDZyvaQMI/o1nAcg3oxzrAfwiHUPaV6dgJjPVa7vtb4Htf1LXHIiJSs0cI/5KfRbrY+RWDsLPfV5J9p/5ILLnPidigkjbN8KMx9W2DhS8em9DmVGDlDJ+vTLcS7ls9Qy53ADYjOblS8N/pXKIbKYMhmW+rS69FRKQQqxL9Zf9plXvmxTLlXY6FCk472M/A3s4vBnYj/678pfCHqH06cM12MddUyodA35ztF2VHwn0aRX3CDXfFMia+Q/K/VxP2oLUztuTi6gBMCFx/Qsn9FhGRAv2d6C/+/zrX9MIS6vwJOyZYbZq4UsZg69knARsAPQrq82Ux7bkb535bpX8PkW2mo0gDsLfqYH/KDrncB9uLUW3vxHjsGObSVepb1Llv7VJ6LSIiheuFf7PX37HB9HTsrXqG5xq3zMbeKK/C3i6XKqnPC+EP/3t/zPXXVOn3v6h/sKMO2CmGYD+epLwAOoOwPRXjSP5ZvAn8Auidst5dA/dOwo4MiohIO/BT0k/fu2UiNj18BrA19cuU53v7nwWsEHN9F6J7HNzyt3K7HHGM0/4Mytn4twRwBcn5Eiqb+vIcO7wwUM8jBfRXRETqxDf9H1c+A24EjsSO9TUiRO1g/HED/lrlvl7AM577guVy6jMTsDLRz3B+wW2sDtxO8lLN11jgpwVqaCf4M/1dDfWIiEidxW3gm47t7r4Q2wC2YKM66LicaF/HAfOnuLcvFmmw2nJAmXsCemObD4NtfkAxeyM6AFvSmsLZV6pt6suiK+GZhUYHLhIRkZT6E79LfrMG9ivOEvjf/o/OUMc8VI8R8DC2Wa4M1zltzQLWqrHOzlggoaSoiGk39WWxZqD+qaQ/vikiIg22GvEDxs4N7Fccd9NcM5YsKOvGs17YKYekh4APgGUL6XWroz3tnFNDfd2wUwMfeeoNfo5jSL+pL4tg3ojHS6hfRERKsjPxA8cBDeyXzw74p7M3yllfdyzqXdJDwPiWdouwEdGTFG+T7615fux0RlyExenYUkbZU/JPBtpUAiARkXbkQOIHv0akAY7TAwtM5PbxHzXW2wmbFk96CGjC3tJrOd42FBjt1DsDWCVjPYtiJyDiUvF+A5xKffZr9MEeNCptb1yHNkVEpCBHED/wndHAfrlOI9q/URSXqvhIYKanjWB5DRieo+6ewOue+rJEzFsJuDmhj48Bu1D7pr4stgu0Pwmt/4uItCsHED/g3dLAfgUth3/j3x4Ft7MV8IOnnWCZikXRS3v8sQPROP/NwN2kC/izCdFMe5XyI3Yiouh9CmkFZ07ubVAfREQkp7hses3AWw3sV0VX/G/PcRH/arU4yTvpK+VlLH9CNRd47v0MO4kQpxOWI+HlmLbfxWYsyjqlkFbw+OiRDe6LiIhktArxg9x06jul7HM20X79AAwpsc3u2N6Cag8Bs4HriV+GONJzzzTs5IVPH2y3/ucxbd2LHc0sK1RwFoMJ92/xxnZHRESy6k1ytrxlGtc11sLOyLt9+nmd2j8Yf44Et3wHHE74YWlP/BH4DvO0sxhwETal717/LbYXY6FCP1ntDqK1jx83uC8iIpLTW8QPboc2qE998J9tr3eu+SWA5z398JX3sbwKmxLeHV8pFzp1rwfcgf8h5ylsj0OjshRWcwetfb2swX0REZGcko7B3d2A/nTAYtj73obThPstWmfsaF21UwKV4hvQb8NyDPTGMu359hlMAq4kPqFRW9GL8DHEbRvbHRERyWsT4gezydiaeD392tOPJmCbOvfDtQbRGP5pytPYXovLgAme71ci9fWr30epSTD971TsgUBERNqhTsAI4geweg68G+F/0/5zHfuQpBeWNjhp34RbfEsss7AohJvTNjb1ZRE81vhwg/siIiI1+j3xA1i94gEshAX3cdt/iba3Fn4e2WcCKgP/H4GF69/lQvQgvDHyqMZ2R0REajUQW4P2DVrTqS1ffBq98J97/wELf9sW9MMGvHfIN/hXyn8p/+dZlmDciCbsOKCIiLRz5xA/aLk72IvUCbgnpt1dSmw3rVWAq4h/QKqUuMQ8vjIKOyrY3txEeGZGRETmAP3xT8E3A1Mo723v8pg2LympvTTmwfIkxEXjq5TPsQen5bFseFlnAx6j7e/6r+hGeBPjyY3tjoiIFGkv4gerW0to74SYtp6itux7eXQCtsT2PEyN6VczltXvL8C6hDfw+eIFpNksOBs79rh8mR+uANsT7ncjg0SJiEgJfGfwK+WnBbYTFy3vG+q7Rj4ce4v/2tOXSvkRC/u7Nf7wyPPiP/9/KBY176uEuoMPCw9jP+O0yYbq6WZa+/p+g/siIiIl6IOdTfcNUmMpJg7/TviP+03DQgCXbRHgJOBNTx+CfbkL2B3b/Z5kd8/9X9A6i9EdOI70+wRGYAGa1scCCDVab8J7IP7Y2O6IiEhZhhO/6e11astEty3+ULmVN+ayLIjt4n+W+Kn5aVjSnf1Jztjn+q+nrsM91/UBfkty3IW4h4ENaFxypr2dPq3RoH6IiEgd7EH8QPkI0DNHnZsRv75+ae1djlgYOBaLxudbbmjGoh3ege1/6JujjWFEf04jSI6g2AWbNXgmpk9xZSLwIDZ7sTb1eyB4MNCHr2l/wYtERCSjw4l/CHicbOFrNyQcQz5YHqC4de+lgBOxY2pxff8R2+y3C/keZIIu8tSfZSZjZeAKbHkly8NA5YHgYWwPw65YWt6iB+eBhJdrLiq4fhERaaOOJX4Aeh97A65mC+IH/7fJ9+Zd0R3YCptB+CShr+OA64AdKC6/QW8sWFGwnXfJ92beBQu7fD3+nAFpy3js4ewiLKXx2tgRz7yOdurX9L+IyFzkJJLfQg9OuHcnbG3dd+8oYGiO/gwFDsPW6+MeLJqx3fdXYA8IZYQTPt3T5nYF1Nsde1D5GxZrIO/DQLB8gy3dXIJlJNyQdNkVg8cbPy7gs4mISDtzJMkpcR8BlnXu2SfhnsnAminb7owNWOdhMwZxfZiFbfI7BVgx+0fMZAHCcfGbscA+ZVgaO0XwILXNDvjKWCzuwpXYbM8WtOYqWILwMsoZJX0+ERFp47YieQCaCVyNDRxHEL/xbibV35SXAA4BbiM6zR4s3wI3YDvV07zRFuUKpx/TiT4AlaETtm/gl9jPJsuJgixlItH4BQr+IyIyF1sOO+OeNHj4guIEi2/JYDCwL/BP4MuEeydjb8LHY2F0G7EjfTjRmY2zG9CPisHAji19eJjkB6a85fW6fRoREWmzBmEDTZ6B5LSWOgYCu2Fv0h8mXD8JeLTlvo2xmPSN1Al4jnAfP6F6sKB6WxTYGZu2v4d00QiTym/q230REWmrOmKx/OOC+vjKB9gmtLeIP6I3GovAdzy2R6BRwW/iHE+4v03A5g3tUXrzYbEYfg3ciJ3iSPPv1kTrvgAREREAViX5DT6pjMeC4VyCTf8Pp20HmVmMaITEyxvao3z6YrEK3iPdv9OTjemmiIi0db2xgTBu05+vXEbbiHOfVmcsomDwM3wM9GpkpzJaFjta6J5eqFbKDNEsIiJzgLWAN0g/sDyKbWBrD84l3PdZWErgtq4TtkHwUZLTE/+InSpwvz6ZbBEfRURkLtUZ2xsQl0zILeOwvANt2U+JDp5/aGiPqhtG9TTHs7BERntjIZF38VxzY707LiIi7dtQ4F8kv3UGy71Ymt62Zgmix+r+R3G5C4rUF4udUC3J0DvYrv6FnPtv8Vy7ST06LiIic57VsQh5aR4CJmOJfLo0pKdRfYA3CffxWywKYFvRCTuFcAPJYZFHY5stV42ppzu2DBC853Pa1z4NERFpg7YhOYxvsLwLbN+Ybv6/LsBDhPs1E4tF0GidsON8V2IDe9zPcRrwbyyvQLWHqh08959efNdFRGRu1AnYi/QPAk9iGwsb4WpPf45rUF/A9lZsjg36Y4j/mc3CsgEeBsyTof7rnHpm0zaXZEREpB3rgO1Mf5nqDwFNwJ3ET12X4TRPP66rY/sVfYGfAdeQPOjPBp7AEjblWZ7oim3GdPc5iIiIlGYr7E0/zYzAQ1hWwDIdSXTj4ovYGnk9LInNNDxKcpTFWgf9oG099e9dY50iIiKprAxcC0yl+oPA89gAVXRegF8QHfy/Irpbvki9sf0Rf6Z6RMXZ2MPSUcCCBfbheqedH7BjgSIiInUzAPgt8A3VHwRGA3+kmLXqA4lGMhyHhScuUldgA2yD3dPADBoz6Ff0IJri+ZIS2hEREUmlCxaY5kGqpxduwgbJg8gXte4AooP/VGygrlVXYB3s3P1DpAuQ9CNwB/Z5yj5yuDPRn+UyJbcpIiKSyhDg98CnVB88pwLcWCHvAAAgAElEQVS3Y9EF+6ao+zii0/6zgV1z9rU/NqV/NvAU6ZY0mrG8AhdjO/275mw7Dzf87+N1bFtERCSVDlhkuuuJBq3xlWnAA1gyG18627Nj7js2ZX86YUsEB2BJdt4ifUKkGdhO++OxsL2N0Ido8KDdG9QXERGRVHpgSwT/BqaQbtB9H7gU2A64IuaaCxLaXBg7lnc+9qac5iEkWEZhGx13Id3sRNkOJ9y/b6nv7IOIiEhN+gD7APdhb/1ZBuVguQULfdsRO463G7bJ8CHguxz1TQEeAU7CQiK3tbC6bkCmsxrbHRERkfz6YAP3TUST+CSVSdiswNNkf7OvlFnAC9jSwibUL3ZAHhsQ7fvQhvZIRESkIF2wmPmXAV+Qf2YgrkzHMu/9Edv41xam9dO6lfBnuaex3RERESnP0sAx2MbApMx5SaUSe2AjbB9Ce7Qg0fgD2zS0RyIiInXSHTtydwHwBul37zdjg+frwN+x6IGr0b42z51B+PN8TNvbnyAiIlIXfbDlgnOBV8j2QNCMpQp+FzuieAywHsWHKi5Cf6J7I45uaI9E2okOje6AiNTFvMD6wLrA2lg2wqxT/tOwo4cfAu8BH7SUj7D9A41wFhZquWICFmhpYuBrfYEtPfe+i810DMZOXFR0A3bAkhONKbCvIiIiDdcFO8p3NHbC4DPybx6chU273w2chwUSWhN76CjTT7CBPtiXCz3XDcRmQs7Fjj9e0fLnTbE8Ae6JgR2waIpFhE4WabM0AyAiFf2A5bHZgUpZmtrW06cDI7CgPCMD//tZ4M9fYANuVjcCPw/8fTYWhfCzhHtex4IfVa65BFgBuJ/WoEk3A4sDJ2Dhj0XmSJ0b3QERaTMmYMcAnwl8rT+W2nh5LEzwci3/mzZJUTdgsZYSZxr2kDAay1hYKd+3/O9ELAfBDy3/OwWbtt/Lqedukgf/OP9uqesCLG1wf+DLHPWItCt6ABCRJOOxMMGPO19fmNYHgmFYpMGlyJftrzv2xr14/m4C+dP+jsWOUS6OLYvcC2xcY19E2jw9AEitemBvd4OxJaXx2KawcY3slJTuq5byoPP1vtjDQOWhYFFsfX0otjmvS0n9eY3aputvw1IJrw4chR4AZC7QGTsi5BqJbYSpxb+AJZyvXYRtOHLdSWt2s8extTdp27pgG6kOw6ZNXYsQnUbtip05lznXj8CrLcXVCdu4NxT772MQ9uAY/N+FgF452s379l9xJ/Aw8DW2FCEyx+uMbfRxrYpN7b2Ts97FsPjl7ibDQTHXD6c1hehXOduU+ukA3AFsH/P9iYT/HXsAJ2K7sY8ot2vShs3GBtivCe8zcPUE5sNOEcwHzN/yv/2xvQe9sYeEXi1fa8ZeONIYgcU4qPgey5swDjva+EDL10djexNE5mhxR3vOqKHOk2PqPD7m+g8D19xZQ7tSH7vg//edgP2Sfz5w7XbApy3fv6a+3RQRkThJx3t2raHePWq4V9q+nZy/XwzMg72ddQO2CnzvCpJ3gMdZAzgHm2m4u6WNzdHRVRGRwgTf4Ny0ocvnqG/ZwP1NpJsBWAcLW7oZdiZX2raXaP03/RJb243zTeDaNDMA/bFB/05sH8pQbH14UyxW/ZMozauISM3cUwBPABvSmgZ0V+DtjHXuHvjzC1jY0Wqey9iGNFafwJ/fx6b9i9AX+C9wPrYRdXls38i3wMvAIdh/T/dgDwc6qy0iUoPgG/ptWPKPyt/fz1FfcD3/l6SbAZD25RNa/01vqXJtlhmA64G9W/58IfYQcCfwIhYAZt+W762DHfnScoCISE6+OAC3Afu0/HlpbEr+rZT1rULrbv6P8R8xLFInbMlhGLb2PBmLBPYe+d9KF8Uin03ATkF8l+KeAdjb6oCWdkdjiUa+z9kHsHXzZbC34qktdb1XY52dsX+jBbAd1OOxMKwfYAN0Hnnvcy2OHQ27MfC1V7Gz2WCzAmdiDwnPYQ8hm2NHt0REJAd3BqArdiSm8rUzM9R1fuC+M7A3tTQzAI9iO8U/Bf6Wop2hwF+wTF2+3ejjgD9jx4fiPBtocwNsQ+RlWGKQSj2zsZ+JbxNbF2B/bJBy9zpUEqQ8j22ITPum2g/7uX0V87lmYw9VR5AtX/sKwA1E93hUykgsRkPcMU2wh4TKz2tG4N6Jga9/ClwNHBn4+8zAtT861y4ZqP8owmlcL8QislWcjA36FVsCl1b/6CIiEsd9AAD7JV752gcp6+mAvU1W7luG9A8AWY4BHoXFAk+TpWw0lgLV5+vAdVthg0lcPUs59y6FDfxp+tCMPWxUC5E6nPiB31c+oPpmuM5YutTgQ01SmUj8CY7pKeu4H/hdymuHB+r/E+HTAxdiA/652EmCkcA2ge8viu0FEBGRHOJCAd8GHNjy56VItwywNq0D0pvY/oF1au2g4xTgbOdr3wKPYbMBg7EBv/ImOwALVbo2yZsZN8AeLHxewB5QKoZhQUyCswuzgadbruuILUusTesxy3Wwdez18Qc66ocFIBkS+NrH2M98JPa2v0hLPys53JcCHsECNvmi63UArqV1Tb3ii5b+j8ceSjahNW1rbywT2iCikdU+pzWMazCk6yTCkdNGYUlbKklZFqb1v7OJhPOrB/s9C/9/j72APbENgA8Evt655R4REcnJNwPQmfD0+lkp6gm+QZ/Y8rUiZwA2wgbaynVTgcOJHkHrhWX1Crb7KtFp+OAMQGVK+3vgdOCnwKHY+vJhgXv6Es2bfh+tYYyDhmGnKoLXvoTtVXCdFrhmNjbY+QzCZhOCdR4ac+2pznVj8Md26Ir9ewWn9Wdhx+7iBDcB3pxwHaTfBHgANs1fEVwCOAzbk7FQ4Ps/A/5YpW0REUngewAAm3atfP1Dz31BnbA38WZsPXyRlq8X+QDwMuFBcquY63z9b8bWjIO+dr7/Lf5sZMEHh98799xM8hn4rthba/CeYzzXvRH4vi9XQtAAwns0HvBcsyDhZZJx2JJMkh0JP2B9RPxnK+MBYBCW0KXSZvABoGNLm38JXH8flrhFRERySIoEGHwYGAasmHDthrSucT+PTTMXaXVgtcDfrwIeqnLPWdjDSIUbvc53/aeerze3/G93wg8wXwO/IPm0wQxgP8KZ8X5FdKo7OPVfLZ/5GOzo3etYHvPnPdccR+tSAdhDR7UjnXdhD00VS1L9Z1ak77Dlmt96vteEbdA8CHu42RN7wHm5br0TEZkDxc0ABN/qqy0DXBW4LriTu6gZgLOcepZL+kABF2IDxxHAms733BmAapv0NnGuPzn58pA/Ofeu5Xz/g8D3vsIyptXi7UB9X5M8SxG0COFZgLjZiDJmAMAejO7BlmH6YnsSKjphexUOx44B9nVvFhGR9JJmAGZjIVkr4nIDdMHWYyv33F5Av1zBAXMU6bMU/gp7IPkrtgkvzmct9SbZyPn7vb6LYri71Tdw/v5Y4M9DsAH8XGzTYNxGzTgDCe+uf4D0MRG+ILzZc8OMbddqFnbuvyMW6Od4bD/G9sCx2LT/itj5/x/r3DcRkTlK0gMAwK2BPw8DVvJcswWtu8gfp/pAmkfwjThraOI0Pk9xTTAWwFSyRUl83fm7u9fgQsID2rzYxrynsB32t2Kb5KrNUoAdjwvuW3Dbrua1wJ8XwpY+6mkWtoFxU2xJZmVsCWg89hB6GBbwSUREalDt7fJZLH92Zff1rtiGtaBg7P9qYWHzGhj4cy2R8OL8kOKa+QJ/Hke2SIOTsEGrl6cusIFuFyyn+bzO9+YBdmspzdgAfUtLGVmlnxA+opeGe/28Me2U7Xuqb4gUEZGcqs0ANBGe0neXAXpgU7RggWL+U1C/gjoSHhSnltBGmjr7Bf6c5w10SuDPPT3ffwSbur+I+EG7A7AqdszxMywmgvsQ566NZ+3rFOfvvr6KiEg7V+0BAMLLAEsSXgbYhtYB5yHSvUln1QRMC/y9R9yFJZsU+HOeQTGYQc8dZCtGYeveg7Fji3/Gcgr4dMMCI13tfH2S8/deZNPb+XtcX0VEpB1L8wDwIuFjfcFZgOD0/7+K6FCM8YE/u1Pk9RJ8uJmP9DvrwWYPgmvpY6tcPxMLQvQr7MTDwlhwoDsIPwyBZcgLbip0H8IGZOgnhPcZNBE+wigiInOINA8AzYSXASo7/nvSGpt9Mtl2xWcVPJ8/PPaqqK2w5EInYGvsvih8aQWDIfXAMiWmtbLz92pn/V1fA//APsMQbDd8UPBB7GNaYxeAZf/LItjXkUQfOEREZA6Q5gEAwssAS2GD8Da0Ti/fQ7k7s58L/HkhwlnkkuyC7Ro/HxtAZ9bQh2edv2+f4V732hcCfx4O/Brr31NUX+IYi8X3D8bBXzTw59FYFL+KrUk/W7Eo4QespKOTIiLSjqV9AHiVcCrWnQkvBZS1+7/ifufvcfHvg4IbFMGOKDbFXJvG04Snww8j3fr6fFg0wIqxhB8AlscCBR2EnftPisFfMYHwVP945/vBuANDCM8QJDmW8H8T7kxDHtMDf3b3F4iISAPFRQJ0nR247l1ss1klznxcbvoicwG8FrhmBrBGQl8BznHa3tb5fjAS4PVV6qoI/gyasWx7bpKhoM7Y5wne40ZUnB+bZq98/2Xif54Vmzl1/sb5/hDCyX3G4M9zELQF4bTB3xG/2TFLJMBgVMInq1wrIiJ1lPYBYAXn2kr5e8I9RT4AbEh4gPqB1v0IQV2xQDJNgWsfJzkbYNoHgP6EB7/K/ghfgJ4hRBMBfYb/LfgfznUPYDHvfdbEpvkr104ievYfwhkGm7H1/G0813UCjiT8ENIM7BHTPmR7AHgqcO1MbDZkYWypQUcMRUQaKO0DAFj0O/cBIGnKusgHALDoeG7772Mb/c7F3shHON8fQWt2wqA8DwBgm+R+cNqYim2CvBA7uvcgNvUdvGYM8TkM5vP0ezp2tPICbA/D9cArzjVNxKcO7ogl+HF/Xu/S+vP6J+FY/ZVydpWfQZYHgEs89VfK1lXuFRGREmV5ADjduX4kyRvMin4AAEsG4w6uceU94tPg5n0AADsBEEzgU628BCxRpc6lsBmCtHVOIZx4yacTcDHh2ZCkMgnb21BNlgeAZbAHJF97v0rRloiIlGRcoFxb5dplnOvPr3L9Gs71R8Rc93LgmhtS9Hkx7O11PP6BZQSWrS9pivmdQJtXJFwXpys2dR5c43bfzl/AzumnTejTC/g9yQ8CY7CseovF1OGzCvZgNTmmzu+wCIRD4ipwvErrzy5pCahiDeAZog8iF6f+BCIiUqikDWztQRcsNO4C2Ga677EjcO9hA0y9DMbWtAdgP9PRWM6E72qocwi2ZDAPFkRoNDZd/zbZ8hAEdcceBgZhyw7jsLgB79VQZxb9scROs4EvUYwBERERERERERERERERERERERERERERERERERERERERERERERERERERERGZK5QRCrgLMBAL+Tov0DfQVjPwIxYKdlLLn79q+fOcohMWGngBoA/QAwvBC5bOeCIWk38klpCoqQF9lPajKxa6eSEslHIfWv+/BDAB+2/oR1r//zSl/t0Ukfam1geAjsAKwEZY5r9lgWHYQ0AW4/m/9s473o6q2uPfJJckkEAIJfSQhGYgKF1QkENTOkiXIkgRxYI+gSfFguhDFAGliohBnoKIIi1UITRpCkp5tAAJYEioISRA6nl/rHu8N5dzzqw9M3vmnHt/389nf9DcffdeM3dmz9p7Nctz/zxWGOi+zv/OzihfbJYDtgA2xwrejMFy+Huvfy7wIpaL/17gHuBRTFFoJRYHVnL0exmYF1mW3kwHVqtha+yZGoc9U95iUjXepOt9egC4HyslrdoLQojMbA78gg/XsM+zzQNuBfYhXKGIyZrASVixnxjXPQOr9rcNpmC1AhV8sq9TknztTD/s/l6MVXqM9T7NAa4FdqF5CW8hhPgQ/YEDsNr2sRapRm1qAdfXjA7gc8CDFHvdU4BjaV7WuAgqSAHImw7gCBqXk47Z/lnA9QkhegnbY0fTRS9UtVZEqdp6LAZ8FTumL+vaq8A04FuUdxJSSZBPCkAYewJPU97zVLZCLYRoA5YCfoU5GZX5ASxDAdgaeDKlvLHa45j5pWgqTvmkADRneeAqyn+OpAAIIZqyLvAs5S9WRSsAQ4HfUL7S0+xenEm4Y1gWKk7ZpAA05uOYY17Zz48UACFEU7bBQorKXqiKVgA+gnnkl329nnYHtqMsgopTJikA9dkL88Av+5mRAiCEaMqnsLj8vBabhVjse6srAHvQWkqPp03GlJbYVJzySAH4MHtg4Z55/c1rOTSkAAghMtHzGHl14M/AkBRjTQUmYM6CjwGTsIWqluSnPzAMGN753xHAWGA9LIfAWOIkJvKwP/C/ZDtW/wCLuX4QeK6zzcCu/wMsGdCS2PWv0dk2w/IIpPXyXx24E9gWeCqD7CIO6wO/J53z5mTgJsxj/1+d//9dupL8dGDv0TAsQdBK2Ds0DvgkFq4qhBAu+mMfsNDdyO+wHWLWmPURWFjUBCwRTlEnAAfVmc/bPgCuBHakK9tfKIsB22F+B2lPIKZhPhuxqDjl0AlAF4OBZwj7O87D8gFsTnZleFXgGMxU1NOfRScAQohF+CJhi9WdwIaRZBkJ/Jgu00EsBWAn0n38ZwNnYJkA82Qp4GQsk1uoTJOJ5xNQccogBaCL7xD297uOePdvbSxx1/tIARBC9GAQ8Cr+xepMiskmthy2cM2NMPZY7Ig+9EN7Nb60uFlYmnThl3djuePzpuKcXwqAMRy/38sC4ESKMX+tCozHMngKIQQAh+D/yJxUgnwb5zzecMxGH/JxnQkcmLMcSXwaeCNQzvMiyFFxzi0FwDgO/9/riBLky/t9EkK0MbfiW6xuoXXy02dhPGEf1ZewokdlsCZhWeMWYpkb86TinFsKgPEvfPfr8rIEFEIIMI9/T4zyQnrHAr8TYR//Z4h/5J/ECMzL3yvzi1jEQV5UnPP2hucjK6viM93Mobg8DkIIUZdP4Vvc7y1LwBwZipWs9X5Ip2AOia3Aqpijn1f2s3Kcu+KcUwoA7IvvXv2pLAGFEALsOH+ss+9NMQUpiG9gH1IPs7DTgpfiiRPEK1hp5DnO/sfQOspLX6IvvU9CiDamP/6PxMsxBSmA4VhFPS9HYWmBW4m/Yw5mHgYB34soi6hPX3mfhBBtTn/8tuLpMQUpgOOw8DoPl2AJflqR84H7nX0/D4yOKIv4MH3lfRJCtDn98acpHRZTkMgMBr7k7DsdOCGiLFmpAl/FlxypAzvJEMXRF94nIUQvoANLhuOhbE/4LOwFLOPs+9/A2xFlyYNHsIRE+zv6Hg58nzjJlMSH6QvvU1YGAmthTqMjgcUxhWge5nvzNhbJMqnzv+3OUCziYxksG+MM4C0s+kqkZwXM52YMdn+HYM/WTOzevow9P09h2VvbmQ4sMd6y2Ib27W4t06BvOvtWgJ9nmaxEvMlWnsWKArUDP8WnAKwA7I4pDCI+Ie9Tq5qZYrAylkjr01ixIm8BrOnAfViRsmvpKi4Wi5HAxxP6zCLZiXMjTPnehvp1OuYDDwGnAzfU+fke+LJ6TqD4j9sIYGtHv0eA53OcdwD2/OyJ1U9Zw/l787EidbcDVwCP5yhTI3YmuajeAzT3BRoKHNo51lbUNy9Oxep9HNJknDU7xxgBvIC9R/9Zp/bDF7b0bgMBWh1vXHYVs5m3E3dRTMKZinMehQHC1/Ddq5dJVyWw3dgCq3OQtuBW9zYL24SsFlHegxxyPNvk99fBPjTeazqtwThXO3//oFRXmY3vOeRaiNWgyIMlsRopISHczdrD2KlwzKR2Lzjk2K/B7w7ATqLfcoxRu9eNOAW7d2OwU7YNMT+yPWodVnFOUgVO9V59C+EtcvQacfLox8R7bW+QrXZDxTmPFADb+Xnfpy+XJGMRjAGuJ58Fu2d7Hyu2FON9zaIAHI7txkOupZECsKvz969Pe6EZeNYh1505zNMfU6hfd8yXpj1IvAyvaRWAlYB7Aq+jkQLwdSyU/QjsWu/HaswMwr7lm9Y6Pu+caBblpcRNyzX4ru2csgTMwDJYXgDP9W2ZYZ6Kcw4pAKZovYPvfr0GjCpFynj0A76CrRUxFu3u7VHyv39pFYBjCS/eVaWxAtCBr0DbHCzEuSg2c8hUJXvdlDFYcbPYz9BcLD9M3qRRAFYmvIR4lfoKwEDgws7//S3McRzM7LhP588vqh2BeLOSDcE0zphHcHkyEH9e/HbMy/4WZh/1sHVMQcR/WAD8xdl3ecz+u2w8cQplMOZDcx7J9s882AA7zt28gLmacTBwNvlWdJyPzx9pIPDZHOdNwmNyeBPz2UjLdljOk60yjOFlMexv92uKqXDbiCHAbeRnNlkPezdqrIZt5FYDHsMUn3k1BeBCmtsRujMSc14p4o+TlY9ijhRJTMMcVtqRic5+qgBXHOcH9K29qB+LJEtRDMOckYqumLkccDOwScHz1lgLuIA45Zwvc/bzOAPnQYdzrstJH+FwKPb3LPJUA8x8cwnlFbv7BfWdRdPSgUXV1NgQU3TOpesEq9r9F/5M+NHJKbS2I9NR+K5lfEny5YG3lkOWlMYV5xwyAXRxH2Hv02zM3tmO1TaXBP5G+mPYD7BU11nMBtPxp/luRqgJINRe27M1MgHUeMgxxjyKKSy1o0OWKuk/ZAeTzVn0dWwztyDDGD9IKXtPQkwAoQXqerZ6m/chdJm1ayaA1bDQ2sGYwnpx918YTbgDSxUrfboprckF+K7hsJLky4Ml8dse0y4SFef4UgC62AhbmEPfp/vIdycQmw7CvN6rWFGrs7Hnqmd+jiWw6/8m8FfC7Or3k31DEqIA7BF43fVakgLwFec43kRnWbjcIUfaonE7E/bxnwvciDlCj2ZRh9B+WMjbbsBF+Hwpam0B9kHOilcB6I+/fHij1uj0/jTsZPErwJGd/3Yh9r07Grvni3BCSgHmY96FK3rvTkF4dyXtfvw6Gd91bpZy/IpzfCkAi/Iz0r1Pc7BqjkUfg6bhXPzXNR2LfOgIGH9TwnbZx2e8Hq8C0A94okmfJ7Dd5K6Y+W19LCRyX+CHwD87+yUpAMvgK9d+Z8brTmIIFgqeJMehKcZeB0uO5P0b/xkzvXhZAgtd9J4wvUz2kHevAnBgk5/PxvIWHIE9O+OwZ2l7bEf/e+xv0kgBWAxTgA6kS0FaGoug+Xq9X+jA7C9pFq1qpzAnY5m9WoFp+Bbbdgv/68mN+P4+e6ccv+IcXwrAoiyO7wi3UXsT8y5vVTPb/viv5QaypT8+zTnPLLKZArwKwDYNfjYJ23l6fAJqCkESVzlkWoB5kcei2Yeq1t7Gn+CpxiDgScfYVSzD324ZrmEdrMS7Z64zM8wDfgWgnqlwAaZYe05sh5Icnr8jthk5B1NK12vWeRgWM5h20api9rxjKPfDOhCfLeipsgTMEa+p45spx684x5cC8GFWxJ6xLO/TJCxJVZleyj1ZHgtj9Mh/LvnIfpxzviwZS70KwBV1/v0a4kQ/7OyQqYopi7HwbDLOSzHujxzjVrFdeR4ntavhy2PwHmZGSItHATi1zr/NwLIdlsowwu169dpkzPZQxg5mlFPG20uQLW++i+9af5Jy/IpzfCkA9VmRbCcBtfY08Dlaw1HwMnwy/zLneT274dlYdEAaPArAbD6cf+NmwkwbIQwA/u2Q62+R5h+Bz58l9AO9nnPct8h3bdkY8yFImvdHGebwKAA9M/3NwZy6W4IBWL75NMkterZJWK7iIncwWzplG1+gTLHwZgQMCU/rTsU5vhSAxgzGYo2zvktVLJf5Z4kTeuZhfXyna3eSv/K/HD7TXl0bpwOPAtCzPUn86o5nOORYCKweYe6vOuZ+MMW4niRt84Adsolfl3q7757t36T/ZnkUgJ7tCynnisp++Jw/PO3/MJtXEQvXLk6Zstp6WoF98F3rpSnHrzjHlwKQzNH4nLo87e/U8eQtAM/CPQMrRBWDkx3zP9zwt5sTqgDMo5iojbFOebI6Qdbjfse8Rzb87fpsim9zmeQkmZYl8WXsTHscH6oAeHM+lMLq+B3NPO1RzDs2Jns7ZYn1gBXJbviuNW31uYpzfCkAPsaSPX68e7sX+xsVwSh8u///iijDCiSnwF5IOqe4UAXg3AzXEcoDDnn+kfOca5L8oZ6JL+Fad36bMGYVs/vHzCh5nkOGNH4NEKYAzMJq8rQ8B+A7fvO2G7EYzhgc7JTh5EjzF8kO+K41bXrOinN8KQB++mGmm7fJ7326AismEhOP09ZzxHcAvtYhx8Epxg1RAN6m2DTOX3LKFRIil4THvyjUz2NZrKBT0rjNStzmwaYOGdI6iYcoAN9NfQUlMByzJXucKDxtNnAi+S8YRzrnPyHnectga3zXqhOA1mMl7PgvS/ay7m0GlvgjlqPgiw4Zjos0d3c8OUsubvjbjQlRANLuDtOyNL4P5yk5zukpThOahtmTobWI6qwd+JLfpUmg5lUAisrimDtrYjuOPJwEq5gjzQY5yud1jPtOjnOWhfcEYHzK8SvO8aUApGd9LFY+j3epikUd5LkTrMmYNO9c4tn+u7O1Q5b7U4wbogB8MtMVpKNe+GHP9nhOc3l2yGlqqFznGPesjLJ78ZjitksxrlcBmJBN/Gxk2SVMwkKSNgFuzUGWdbEwlsNzGAtMU/YwOKf5ysR7DXOiSiGy8DjmF/Mp8gnn2hRzhNsrh7FqeBwOb8My/sXmMUefccRzOJ5MvLC7Zox39BlHQrIXJ57Kf78KHHMQvg+qpxJiHnifo1hcEXHsRPI4JnwE+AyWGSttHugai2OhUpeSPZvgewFztjteBWBGVClEHtyD7Sx3w5xlszAMuBqLdMkjRv3jjj735DCPhxmY2aQZQ4lno78D28EVze1YorUkslYI9FT+m42low1hfZKzBc7EUiUXwRuOPqMizv/XiGMnkqedcBXzHBoAABA1SURBVCJWIngr4K6MY30BO1UI9SztjvcEoIjjyth4k55MiyqFyJMbsIJCO5CtVHU/rBrYVWSPyfcU/bov4xxeqpgTXhKxnCKL+kD1ZAFWlCeJrGWZtyO5tstVWChdCJ5n6AH85emzUuYz9BowNdLYLmJkrqqFJO2C5R3eKOU4W2Kevrvh3813x6PZQZuEXyTgfUBfiyqFiMHt2KK5L1bQZGzKcT6LHTcegBXvCmVpfDn2xxCvKNhgwk/sViA/m3h3/hVhTC+XYY7TzVgDW3vTKo8xjv/BZ5qYg69GQlq6F9na0NE/1iaxLCWyMPoBe2IpTNM6M91CumxMKzrHn5TqylqLX+G71m1Sjl9xji8nwLgMwEKjvAVN6rXfpZz7oxnmLLPtHnidXifAtKmG86JeEZme7YyUYy9BcvK3tEqVxwGw1dpDKa7T4wR4dopxcyV2TvEq8BfM7nM0/l15dz4NnJTi96ZjGdeSGEV4BatWY01nv6ejSiFiUzv+/QjwbWyRDuVALEImlJEpfqcViOHkW8V3dBwTT+a4A0jnBLkHyebXNLt/aM/naFCkcct+hgpnBBabGxrzPA+fA1JPPDGsVXx2qVbmdZKvMYsDYMUxfhWdABTNavjCwnq2WYT/rT6fYp5WaKHJZDwnALMCx4zBMMw0miTr5inGTgpHfR9YJqXcLzlkbrX2TIrr9JwAfCPFuLlSdFWx17Ddxy5YJSQvHZjGGarNeu10HjtQq7ISvuPI3lD2WCzKy1go7oGYR7aXIVgJ6RDa9ZQsRhjgzAhjhvIOvsyeodEAy5Oc//5qwtbv7vSGqKu8CHWgzJ2yyorejO26Qxxp1ifcnuctCLJt4LitxBbOfmmqdYn24ArgE8DzAb+zLWG7Qy3cXYQoWzEZ7+izL2Hr/H4kR4ukPf4HPUfdKf05KrOu+AtY0pOQ4hWhvgBeBWB7WqPGehq8WaqKCs8S5fAYpgSEHFcmeZKL+lTLFqCTO7Aj9WasgoVme0ny/n+G4nI9iMiU/dGbiWU/82YO2wxzgPLyd3zZ75Ylna2sFdje2S9NWlTRXryGhc16nQN3xZ8ox5tXQxTHQnw5AbxmgDVIXgdrEUdp8Thmi4IoWwEAS05zVED/HQL6zgLudPaNXXkqBhsAazv6PYYve5hof57DX4q3P/4TJO/CPRSzu7dK+61T7nZlPMkf5L3x5Xw5kOY+E3PJfj89z9H/UP5z0731WufmVlAAAK7H/6FOclDpyXXOfvvTfnUBvErLtVGlEK3GpfjjtL3vkzdkqTdk1mwnJpFs3huBLwdI0vH/NVjEURY8z1GsRFKiB62iAABc6Oy3buC41+NLKzkcOCxw7DJZHH+982tiCiJajoX4S+F63ydvylIt3sUz3tEnyQywCck73Utc0jTH8xzpGSqIVlIAbsP3oR4ROO4rWNSBhxPIni+9KA7Hdy8eI3tRGdF+3OLs532fpAC0LleR7FG+FzCwyc+Tdv/Pk0/hGikALUQrKQAzSPZoBbMxhsYkX+TsNxo4MnDsMhgEHO/smyVkR7Qvk/A57nkVgFfxJcBJW6tApOddknMCDKexuWcAyScEvyaf6IfnHH3WJl36dxFIKykA4E8u0UyTrccELH+6hx8RfspQNMcDqzv6zaK4utqitajie5+879JC4AlHv3aNpml3xjv6NPrIb0fzgmLzgN+ECtSAxxx9huIrGiQy0moKgLf8b2gqzgWYZ6mH4cA5geMXyRj8+RAuIFsKYNHeeN6nkHfJk7irQrzc6aIxE4HJCX12p34inqTj/xvIr5S4N/nbZ3KaTzSh1RQAj+3nXdKVM70UeNbZ93OkK5gSm4HA7/Fl05oNnBlXHNHCLI7li08ipCDJREefoYRH6ojsLCQ5RG8pYKce/7YEViq6GXmaEV/Gl7FyrxznFA1oJQVgRewBTcJjQ6rHfOA7Af1/TroCRDE5G79MZ5M9ZEe0L578EBBWDvuv+Bx1W1F57gtcRrKdvqcZYHdgySb9p+B3KPVym6PP5lgJahGRVlIA9nT2y1LS9o/Arc6+g4EbaR1b1EnAMc6+U4DTI8oiWh/v+xRSJOp14AFHv52BjwWMK/LhBeDuhD47saiJJmmnfSk+pS+E65390pSBF4F8n/DY+hjci680Y9bdxUisCpO3FOS/KV8JOJGw8pV75Dx/xTlvr82YFcCZ+Bw0Y9KBKcoxnpWjnePeTpxKfLHxlAP2mhLL4DCS5a/Z1zswE1CjfvOBVSPI2IFFlSTJuRD4ZIT5i8BTDni/0qTrxpWYXf3LlHcicCi+RWUhMCqH+Y5yzldrM/Dn3M+TgVjyjRBZL40gR8U5txQAs5O/QXJa1ZicgO/v9QE+s1t3hmP+JZ7xvSdWeRIaIdSTdlcAhmLreTP5z+3su2VCP+9OPQ0/SZi71p7B7xyeF/3Ing+mrRSAmkAPYw9FkayHLZieh+HOHOcd75yz1uYBP6C4REHjsBK+ITI+hdV6z5uKc34pAKYAdH9eNyp4/i2A9/D9va5MOcdZzvHnYM9OURwE/DKHMdpZAQAL2Wsm/4ud/U5N6Bdafj2ElbE8FZ7n6DqKywuwEnATsFbGcdpSAai1uzBbUewTgS2AN+vMX8QNG4zZM0M+sFXgEWDrHOXoyTJYyOLcQLneIp4pp+KUQQrAogpAFTu1moA9M7FPBHbEwvq8z0za5zhk8X4X2DblPF5Wx9JdZ1FqavQGBWBrkq9hFeAvTX7+Cr4CQlk43yFnrf2R7Kc7zeiPnQzXNqN9WgGotSnAaYSV4PWwAhajPq/J3D3bw+S/gK6MacOhSkAVSy+8A/kpSWtgjnszU8jyAfCpnOSoR8UphxSADysAPT8cJ2MZJ/NkJBYCtqDJ3D3bhIxznhIw11zgOPLfUCyHvTPdTRJSAGydfJ7m17AjFlHV6OenFSDncphjqfc5eghbJ/NmF+z70n2uPqEAJGl4I7EX/RQsXOh64A7saDo0xGwJ7FRhb6xmeYhdZz7wNeym5clUrErWRMIdtz7T2aYAf8Ccnu7Djl89DAI2BbbCHLHShhzOwUJ7krx/i+Ac/LXo8+KbmKNmO7AW8MPO9iSWYGUi9j6FxOODxfjvgr1POxNWyXI2dt+y8BPgAHwOsosBP8Xya3wbe1eyvMsbYM7Ah1C8fbgdqGIhgac26bMZllSsHgux1L+xeQP4Fiarh02xKpdnYWHOb2aYeyj2PH6J4s10LUM/TGNOygNdjxcwT+MXsAX4Lezj14HZoYdiGt6a2CIxhvR2nJOIG9Y2GluIR2YcZx52ovAMdk/ewT6IA7EFehns1GFMZ8t6pDULC/fKo0hHMyrk63+RJ+sSFsoWm4mEH61XMQW79j5NxRxPZ2GK4pDOtgKmRKyLOcOm3VEfQT7OouthZrTQj/AT2LozAVvQkxJ7LYN9sLbBNg/N6g38AVNM0nIQyemzn8OfZ6EsRmGnAI2ekTew9bket2AnBEVxOf7KpjXeA/6EmTHuxq6nGQOw9+YTmMK8Pc1ryqxN+pwzYO9x0knf/lghp9LIYuOpfcRi82vgx5HneBHzR7gGW2jSshj24BSxOLwA7IMq/fUG+mEf9qzHjh5OJ79IkSeBL2Af3RBlZBxdJyHvYcrPFExhfg9TjIdiDlmjMHu1CGMypow28r9o9PGH4guIfRH7OIfsxJfAToAO6fz/L2HXPB1TnqtYhMuS2DM0mvAicn2CZj4AZbdLKLYq1GDMllr2dSe1a4GlI92DelQiXENerdWqz02k/HvSqMU6RTuSMP+DmE0+AF18nvD7N41ySqIvjxUKKvv5qbU+4QPQSpkAuzMPcxqqLSxF8QH20hyGvzJhkUzDFqg9UJEf4ed94HAsoVQMLsHMCnMjjS/S8SfCfXLGY+tv0byOHcs/WMLcfZrzKF/b6t4eBTaMesU+VsRCT8q+H1XsJT4DX3GXGFQS5CuztdoJwNWUf0+6t7spzl69Beb7Uta13kP2UNjedAIAZkL13r+FmM9WmQwiPPlZnm0W5iCb9eS5LU4AwOyPB2OOOWUuVJOxnXeRR/4eNscSQ5RxT6ZhdtJm9roiqFDus9GstZoC0IFl1ZxEufflKcxHpOhshEsDF1GsSeA5bA3L41p7mwKwFf77GNuZOIRdSB+inabNwxSP1XKSv20UgO5shaWJnEIxN30BFhK0D+XYnULYDNOmQ+oIpGkzsV3k7rTOPalQ3IsY2lpNAajRHyuLezG+vOd5LWLXYYtn2ea9DTDnwFiKwEIsJHl/8k1Y09sUgH40j/fv3rJET8RgCeBYzMEv1jszHXMyzzs3R1soAM005rFYIYYtsbKMYwmLNW7EVOB+LNTkOuwP0E4sjtngd8I+jFlDB2u8hHlU30vr2VLXA75XthANaIc8AP2xe7gV9k6tjyVNyiOz2UtY/ombsOqVrea7Mgr7sOyHKQVZdulvY2vHBGzteDmrcHXYEvh6Qp9XsQ9Tu3AIFj7ZjPnY+jMnvjjBDMTCEvfHlNssptCFWPTKndgzdBfJYahpOA8YkdDnbOx5Lo2Ql3EApiWNw5SB0VhhkOHYsd/wzn7zMZv1u9gR9utYPOoz2LHklDwEbyFGAxtjGarWwBSC4Zgta0kswZDXrHE6KoHZV+jA7K2192l1Fn2XaovcXCxxzzt0vU/PYbvQJzGFul0YjsVhb4i9N6OxUK2l6HpHZne21+laO57FTJTPYDsn0XcZgCnTW2C+LaOxMNHF6aqDsgA7SZ2JvTOvYs/Q05iP2cxiRRZ9mUMwrdN7JHVKOWIKIYQQIm9OJMwudXw5YgohhBAib35GmBIQO/uhEEIIIQqgH8l1unu2Cyjfm1sIIYQQGVmM8JwC12DOhEIIIYRoY4ZgoX4hSsCTtH71MSGEEEIkMBRL0RqiBLyD1a4uOrObEEIIIXJkKOkqx00ENilcWiGEEELkxhAsI1WaFJY3A7tiCYdC6IfMCUII0efRcXL5LIGlpNwu5e+/A9wK/AP4J5YW9x2sqtUgLMvaKsAYLHvWtsAbWG0DIYQQQpTIQOAy8itwkdQeKuayhBBCCOHhWIopoyoFQAghhGgx9gHeQwqAEEII0efYBKteJQVACCGE6GMMBc4njklACoAQQgjR4mwMXE9YSWEpAEIIIUQvYRzwW/LxD5ACIIQQQrQZQ4B9gSuB6YR//KeiUsNCCNHnUSKg9mcVYAPgI8DSwDBMSZgDzMCSAr0NvIIVFZpSjphCCCGEEEIIIYQQQgghhBBCCCGEEEIIIYQQQgghhBBCCCGEEEIIIYQQQgghhBBCCCGEEEIIIYQQQgghhBBCCCGEEEIIIYQQQgghhBBCCCGEEEIIIYQQQgghhBBCCCGEEEIIIYQQQgghhBBCCCGEEEIIIYQQQgghhBBCCCGEEEIIIYQQQgghhBBCCCGEEEIIIYQQQgghhBBCCCGEEEIIIYQQQgghhBBCCCGEEEIIIYQQQgghhBBCCCGEEEIIIYQQQgghhBBCCCGEEEIIIYQQQgghhBBCCCGEEEIIIYQQQgghhBBCCCGEEEL0dv4f9GpnDA46lnwAAAAASUVORK5CYII=;" vertex="1" parent="1">
          <mxGeometry x="240" y="60" width="60" height="60" as="geometry" />
        </mxCell>
        <mxCell id="hwFNifnMXfar1LAswDKv-72" value="" style="shape=image;aspect=fixed;image=data:image/png,iVBORw0KGgoAAAANSUhEUgAAARQAAADeCAYAAAD8dP8fAAAAAXNSR0IArs4c6QAAAARnQU1BAACxjwv8YQUAAAAJcEhZcwAADsMAAA7DAcdvqGQAANsrSURBVHhe7P0H3CVZdd4Lr5PzOW8OndP05AjDwDAkESWRhBgkQBa2JaNgyQq2bPmzfefO9b22r23JxrJl4ys5f8gaySiNAYEQjBIIaRQQMzCpp6fT228+OYfv+a861d1w9fOHZqB7Gmq9XV3nVNi1q06tZz9r7bXXtkgiiSSSSCKJJJJIIokkkkgiieSL5NO/9V9v+Gf3fe/S9Ks98MC9iYc+/O9Wp18j+TqV+HQdSSQu//pf31v8Lz9z30333feK5HSTy/ve94P7/u8f+6ul6Veb9BN7rViYfjN7xzt+YbRV6+57//vfn/qJn7hvbro5kq8ziU3XkUTi8sEP/v3rj++/4xsn/WG31Wv//ocf+p9/ZnbD8O5b518/GI9a585tnW7WW90j11w7m07GC42d5lMnnnpycuuLXnjLuSe+8Een2/nONftn7q7uVB+v72wNepmFxv3339+fFh/J17hEgBLJBZlMLPaBD9w3v6e4b6bTbadjo/Gx4XB4IpMv7J2dW3xFbzDcmq3M3TGYTDa2d7b+MBnP3lLb3Tm9sLwcXzt3bm1udqZ4+syZz486zcfyS0u3ZpLZuacfPfWJH7n//tqv/n/fPz8c9idve88Pbk8vF8nXoCSm60gisaNHv6NQSB77gdEo862J+GQ3lkqdmJ+fK2Sy+Ts63cFKq9VaHo9jCxZLyNaJH6/V64fb3e5tjUbrnng8fjCRSt0zMzOXSecrxWQyfkcimVzJ51Nr3/VXvr2UL+aTuXz6pdftz619/Hf+rDu9ZCRfYxIxlK9juffeexN33z23v98fbK+uzo6TybliZrL0fal49s2Z1PDUZNT9g0QqM7a4JZqNVqZQLt/baQ9quWJhJZvJDR9//LGTvW735kwhl8mns6N4KrlWyOernW73w7Ozs29PJCzVbvZ+cn5+Nj7odFK7repDn/rNT577J//2A1VdfgIjigVv4MT/j+SqlwhQvk7lfe97Q2Z+/u53pqz0+gMHD87GrPf42sbGE42d+D3d9uB1hw8uFTqd+lY+V5odTsanz509n1paXpnfre7mB8NRYjQaWbfbtVqtZpW5WduzvGLdQX/SrNX6pXLpVLfXW6iUyqPYJNZMJVOtdCb54X6v8/mTTz36O9lCofTXfugfPvwrv/CTN1bPb5x/zw/+k8gM+hqRCFC+joSu3a2t4Xy5fOS6Qm711lbDXtupj1ZSudRyt7u7JJqwu2f5WL7fm+TbzZ1kKhWPyYSxdrdj4/HYctm8nTu/ZsPh0BYXl21tbc3EVgxwSaVS1mzWbXZ23lqtxmhlYdG2Njf7lcpMZjS27XQidXJmtrTSbtZ/t91p/OxOfef06r65pe3a2p9893f/s8a0ipFc5RIByteJ/Oqvvjc/TJZXB+3iK62becegm7zl7Lmt9Gx5ptzuNpNDa9rszLzl8os26I5sPBxYPp+1ZDJpg8HAcrmcWTxhJ06ccPAYTWICkKaXje2Szees02npuILlcxkrZDPW63StUpkVwHQsEQsiFCYTmUyF3MczmXghnpycSKXSH+zHRk+dPNk590M/9EM9PyiSq1Yip+zXiXzLt7wxlk+v7O83Eu+qVQevqu92Zo8cPlwYDPrxmZmimEXFYCNrZzZsMk44C6nX6wKJrgAkbWvr6+7wABziApalxUVrtdvOTgCcmUrFavWGA1ChkLdysWztVlP7xs5u4rGEzm3r8ySbTqWPj0bjg8lE4rpGuzNfyhasVIqlX/eGV9dvu+1g/JWvfOPkoYceGk+rHslVJBGgfI0LAWrf9V1vz83P77+x3029tFXvvjFu8f2z5WI8HhvZ/FzF6jJVdnZ37dSps1YuLVun3beW2MeutgEoAgEdN2/ZTNa6nY6t7lm1Xq9nQwEJxxVLJQcNAQRmjvX6XTtz6rQ9feIpW13eY6Ui8XAx29S+jMoolUrx3Z3dhIAq2+0OkolkspZKpE/XWu1ze5f2HBPJmaysHOk+/PDDEahcZRKZPF+Dct99b8y/8GWvf/1onBjl0/lss964afPs7r5itnJ3Ppu7ZuP8enzQ61ixWPTjd3Z27OjxawQqDUsnS3b69DltHVkyFXfGATPpd3u2tLJs25tbMm8ytrWlc44eddDp9ntexkBsZdjv26LYCyYTAFIplVVW3BKJlC0vL3tZKytL9swzz4jpmC0uLw4TSfvNZDL1x61m49Tc4txyPBm33qj36XqneuaJR+ufv//++4de0Uie9xIxlK8xeeCB+4p79153pJBbeXe/k3jbqB/7jrnKwqs313duk1ovbW1uxRLxlBQ+Zm0xkV5vZLMzC9YWE8nn8jJT2nbu3GkBxLbYStES8Zg9+cTjltQaM6jdbNhoPJBJU7JetyvWkrZcLusdv/hUFsRkdA2V27WZcsXBJZVKwkoEIDEBillfoJMQm2mqrG6nG69UZg4Ohv2VfL5wXcwmRycW2zOJpwu5bC5XmbfOLz7wkY3p7UXyPJcIUL7G5J3vfHtJ6nuw25lcO+wPX9Sstxf73UGqVW/F967sEWB0LTZJ2O52XWZKzPbvPyQAOW+5TM4Wl5bsvMAkmU7Y4vysACZr8VhcJlBT4FB2MGm3WlYU8PQ6bYFGx/q9vs3MzFp1tyqQGuF1tXQqbTOVspV1DiDEem5u1rrdjuXzOVtf37BCAb9JWXUYWb1Wjzdbrbn+oL86OzMzX63W1pLp7NF0Opvsd7ujlZXx5z/zmSdVeCTPd4kGB34NCYFiw+Fyo9XqJDNxu/b8uVN7Wo168vxZunrHdub0hrWafdvYqFu9KWBJZOzk02ek3EXvxTlz6qTAIG6pxNgy6ZT7QE48+YQtLS6YyrGBWMdQ5g1rAKW6uyOTpmjtes2yyYQ+F+zAvj2WzaY9PmVra8ueOfW0TKkt+/wXHrFqTWbRsGfpdFL16QtoioFDd2YGthNLJ1OJ82tr2fFkfOfmxtbN/f5osZSdLd1zzzft4d6mtxnJ81gihvI1Ivfdd1986/xb7hn3ezfFx/HvHww735DLZVK5dF5mRd+y6YIAJy6GIUCQErNsb2+KJeSk2AWBw7bYCI7TdTd1dre2rVlvuhYn1OwMBn19nth4NFR5bTGTrl137fX6PrLNjU3bXN/0Hp+d7R07cuSIPfnUU3b+/HnLCFxgIdls1lZWVtzsabVbVhKYjEcTBxNMKBgLplG/34vlcvlUoVRMxIVt4/74DzOJVPwDP7985qGHHo58Kc9ziQDla0AEJsnrjmSOjsb9N3da/W+MjSevSCTHxV63Z5vnd8Q2SloKYidt93Ps3bds3X7DDhxctoWFoj114nFLimHUqjUxkZYU3axRq1ulUtL+eTdt9u3bawWxmHmZLrMzFVuYn7NZfa6UKrayumL7D+y3gsyZ2CTmPUYdgc5oPBa4HPaI2kIh58CCbwXgqVarYiopEynxADkWACUu0MLJ22g3YgKfWZlcNwrEblmeq5S/5R0vzsViS888+uijk/seuDf9yQceHd9///QhRPK8kIhGXuVCt/C1x97y+smo/Zbqbv0birnZw8lkOtbtt2O7u1WZKCkxj4zl84F5kUzGrdGsClx2bTLq2UgmSCYpxY6npegTq+TLtrS0YCIJ7kDF/xEXVaB3ptpoCATS7mDNqTz2tVt97/0JupfHtrW5Y6fOnrGhWEe1uuvOV7ElPxamw34AZm5uwRqtpoBpyY/JixWtr6/b7Oys7ei8SdJsLDtnz9LqZCJWVK2vf255dXZ3ZqHwn3bb9bXuZDL76KcbP3///fdHXcvPI4kA5SqX//P/88OrN99y7V9++sSJV8Tiidfkc6VEOptTK9+xhthGQYq/u1vzCFbBgrONRr0qAJmYDQeWFUMo5bUvNrFkLG6rS8t28OB+SyUmFte+fD5vKtc6w6HWSUumszZWOfFE0iaxhMAm7V3L+uLMo9cbuH8EX0urXXNHbTJ1sYeIYLlWqyVw07H9gZ07vy5A2mP9wVh1DiyabDFv2/Ud23tgn/tmYmI2sdh4mEmltucWF05OkolHq82dP3v0s7/9b+6//xeiXCvPI4lMnqtY3v/+96Zuvfaut9Vr9ffGLPmS2cqCYCJu586es05bjEEtPAqN76Pdali/17b9q6u2u71pg3bbZitlW11csiWZLkelvLfedJ3t37Oi42XzjHvOKJJiJyrFWUpS7CSZylgildLVE5ZI8j0thiFTBTqja3MckbXxKbspiXl49KzMpTmZShxX3d5hvI9KiHtQXC5bkMl0wMr6XClXrCMGk8qlras6YorRJX38mmvi9Xork8tUYr3ucL1ULLwsVbI//eVf/K0z/jAieV5IBChXqTzwwAOJ4iB7Xbvf/z8z6ewtauDjQ7XkMAqkWWsKHPZZWgqplt3mKhWbiDXkM1L+ycgO7d9nRw8ftCMCkoW5GcsXspbSsfg5BoOegEiWhMABM2g4noidpC0mAJnwyoippFNZy2TzWnICEIFMIgAXvmdzeUtlA+CJCWwYAxRIzNI6Ll9gvE/eZufmrSIQwXdDTEttd8cGMp0Am57Ab2V5yXLpnBaxpAn8Kp7o9DuTWm2nl86mjieSk40H/vtHf2taeCTPA4kA5SoUenT2zqde3Gw2/q/V1T0vV4seL1dmpNgpmTlN76GJj8c2lJISMzLQGvPmwN5lOyYQ2SdFPbB31UrEmcRJdzKxkfZjinS7bR/sB3AkEym4iUBG7ESggcnDdphJCiBJZywtEyihfexPZTIOMlmBWraQF+6k/XOlMudg0+sOZNoMZU4lVUbKHbo4cnO5jI0GfQ+eg00xtuiOF9xuGdWv0+zpXnS8QGl7U8xq0MsK/Fbb3WY2n8vWXvnK/Q8++ODDg+mjieQKSwQoV5mImaT3L6Zfrlb7HyRTqVdK4RPbO8GYG5yuO9tV63c6VpCiZ6W48zNlG3Za+p60gwKRvFgI/pOx2AqmzXjYt36/axMxE2JP0jALAUmK82WKJACMpAAjk3WGkkhmLZ3JiXmkBBg6Vktcn5MCCAAmruN1AR0rEBCIcCzgobp61zGjjvGzZGA4Oh7oKgqcEjKRCrrGoNtyxzE+oFPPnLa105sCEx0nK2xrk4DZkVVmi/FWq2m5Qq6i+jzzqlfdPHrb227s/eqv/nHkT7nCEgHKVSbf8S2vfq34/z/IZvOvSiSTiVOnTtvc3Jx3B8NMtrc2LStFrkn5Smr5i1r2LC/aNUcOCGDi1m5UxRDMg9MSsYkYSkwKq0VK7+wCAEhjuhQEBgUHCZyyExaxFcwXnLFJB4rAf4LDBJMnhm8Fn0csZrhXJwKPkdhOvz8QAxEzEdjk8wWxkoKYz8QBBQcucS0MLMxlibAt+WjlaqOmYpPWagys0+pYVaAp1LNcPmnDyVCMahxLJbOlySR1UzqenU9lZ7/wwQ/+5lbwlCK5UhIBylUkP//zP59LWP+7E7HkN4/Gk0y93rCclJIRviOxE0b/NhsNK+WzVkzHLRUb2sJcRYCyYONB17rthmWgAuOBZQU0A6JepejpdM5K5RmZHnm9EQk3bVKpIP8JqQrGAobBWDih7YANvpVsQexlCiBjFTnRNrp/8c0CFnExFFlK2i3zSKYQ3c7D/tAdxUkBET6anOqpw204EtgI5QiSy2rbJEYJMatWGwI7na/jl2WmdXstMaikbVe3bWZ2QdfLxIa92HyvO947W6y03/gt93zugx/8eJSv9gqKfvJIrgb5xC/9x5lEb+tdw8HwO0bjUakh4HAmUqtJaWM2UCs/6HYsTffKsGdzlZxdf/yw7V9dtGZ927qtXculYlLavjtpB+2OgxFxHzhyiVrtDWRXxDBPcu6I7Q0FUhNtErOJ49zNZa1QKsrUKPg2uoEmYjkDAtZ0zc6wa32Bw0CANdIfzt2eTBd38upVi2cEQGI3HQFfSuCVFlOJpTJWmV+wEvWAnRSLukbFM7/t27vXQ/uPHjkkk66lc8diYrCZjDuFxyOB1CAe29qo7c2kyn8pN8m/fDKZgFGRXCGJHv5VIPhNkoOd7xL+/0C/179eTCA2khnB4J3azrZYSc1NigbgIkA5enC/XXdsr43Voo+1HcDBYZvSPpgCjAPmAMOIi53E3azBAYs5AcOIOVDAOjgu6RGtgR8llcu5aQQ4jMRaAJO+gAhHroMOPpe02Ml47EFwGbELd/IKqyY4int9MSOZWwKs8WhgcZ2/s0W4f8F2dzedNXHeSGwGX8uffPZzYiIpWzu/LvNpZB18P6mkGMqcbckM2rN6UOdv2cry/CiTnjxkVv2pZC772UPNudMv/J7viZy1l1kik+d5LrS4n3/447dk0sUfHw76N4zHkxRxHAx02Vo/72ASw2SQkbA0N2PHjhy21aUZmwza+nHpUcEU0Q8NQEwIKo0JJJKyZuhpYcm5j8RMZoiAJi5g8e9qahICiISUN+amDIxEG7UGIIYCBzElmTBYQDFfcLCOx0Oxhr7HoTDuZyTQ0KUFaLqWyhkLFAb9vswg2Ap1inlCJmylrkCS/dRPxXvMysqeJctkktaQebe1tWmz8/OqmkwusSqZfVYqli2XFShKhv3+oUQy/upULHFXIz2pvu2dd534hV94SFAWyeWSCFCe5/Liaw/fmM7k3zCcDN8uxSl0PY3i2Fq1qjOPhBQwLV1fFJjsW160ci5tat5lHfTECtRAS+lHw6EHuEl7vfuWrGn0zNBrAzPByTqZ4GyFsAIaMcvKvMHESWfoyQEMkgKBaSAbQCNAA0BgHWMBFWAF5lAEYJJ0ICNknyoE5s9YlIbv7BvInBoJcGKAke6DskS8dG8BOPU6wWDEZFLgJYBaEJAAZHRTk0qSmBvGBc3Pz1lHpl6n3dYxszGBU6HZau+PxdLXppLlp6+/6c4TDz30kCAtkssh+nkjeb7Kr/7q+/PxZvK7B6PR35Y5sWdrayuGCSO1s7PPnLSFmYqV81kHkblySa3D2Lqtpo/PkVHkxxGligkRBJ8lHEhkmwgo8t5zI1SRUoud6PNEn/FxgAjF2VIQnKZzMG1wyKYFMDhUR3prYCwxgUo8KUDS8WgsCo/vhHUmmRFwyUzS9TGLCLUHCMNl0CUNArEnAhgARKCQUh26vbbFhmPrd8jbMrBaddPaHjGbtUazIxYjMNWx8VTcs/F3ZBaZwJD0DLChSjnrPUeFYnmYLxQ/ns+l/u5r3vKePxGQRaByGUQ/ZyTPV8n007cnM5lvEVNYTaVSMeJM2p2mNao1S6cSNui0rJTP2J6lBZMGWmNrw8bdpklbxVDU5ouUjAZS3t7Q+loGfQLYUHwxBCl4v6/tMj9gD/gyUjJBUnFC18Y27PRsqHMmQ7EEQRPjfFij7GNtj490HCqqAicqg7iWiZhEWiZMQaCTEYgR3cq1KYfxOPhw6HzmnKxMnnhC19F5pELotQUSun5WgJdOiT25adSzgsyZlcUlmXVmxUzOKjJ10sK8dmNL7Khj+WzSzq2dFlvpia0sepBdJlewmfJsUszo5el8/nv/1b/6wVLwRCP5aktk8jxP5df/x39Z6vYG7z5z7tw7qtVqimRFtOApMYaUmnUiYfeuLNrSLP6SjvVbDQeV2HhoCe1Db+NquRMxMQh97Umpe1L8oYAAs0JlS9mDvCgkofYTxCxQZEyTjtjDCGerPrsZwm4pdVfMgqxtTJGBLwRnMN3VzjgoS6bVeDCxrgBpRPi+Ls6gQUwimAuUODb15xAdO5Y5pv9UF1jVxPptAYyAEtYyFtARcIf5M8ZbLLCiezkjEFFNVNDInj55SvUY28LcstUaDbGmifcIwVYGo2EylUyn+5PBh37lVz6xw3ON5KsrkcnzPBPC6u88vnx7pz/6se5g9IbRcFRuNpsxunfbdBWrZd/d3LC0lO+6Y4ctTZqAzXOWT8QtLWXqNerggtUbvWm0a05mSdp6AgbyjNAjMxb/d98IJlAq6WYJC99ZMIF647gsCfwtGcuqxSejG34UuoUpA2ZDeH1RplZW++g9wrRBkYVZbppU5uY89WM6k/TtnDtSHYYcIzABjHzwobYzhgeG0m0IHPtkhut4SD6pFWA4NmFYQUtldC1fUv0mDas2G/bYE2fs7Lmqzczs9QROiYwYmRhaUaYgKRF6g1FzEO/+6Lve9SP/z/QRR/JVlIihPM/kx977bTOjyehvzi6sfHMqnZtvNdsxFBAwIbcrpoW0zQ7sXRFLgRm0LygnJkJXit5WK59I58QyRmq1m7Zbb1q92ZS51AtiS2AFsYQF3R8TWnIxlp6P8u2pDJhMtz/ycnB2EpDmLESsxZkJY4MEGnT/dhpta9SqnnAa56kwQSCR9N4ik8lDtvxWkzFCXdVRQKJrj8Q8WMNIYFyYWyIkblaBhgxoTMuu6YppUGZKwFaXmSfMVLky2yY9n0yM+JnhMCYwmReICDB1D/HYWICn/cW891AlE+l03Ma1F73kut/+6Ec/1fZbjuSrJhFDeZ7JL/zMP789nc7/53imfAOBHXQLp6QkW+tnbNRpe+Da8aOHPPK110bhAjODgX04LwELRgjHZaY0agIRbYN10GMD28CxyhrHKNvi2odJIqPEnbekH8AsKpfmPYis0+m4w5M4lnwuyD3rTlcpcw/FFXtJZ8UYpMwz83N+Pj1BhcqiEZpfq+3a1u62zJSUlUoF3aEYxLDrZSwtzHmuWrqHMefoFaLXCH/LoN8WENXdFxQXQOGLoWzMpWa7IfZRsCEmVCJnOwLMVrtvDdV3aXVFzKVmmXLBTbDGVs2OHjjQrpRy/2Pj/Jmf7pe6j7z1rX8nmvr0qyQRQ3keiZQstvbE5948mcS/tT+J5z2cXcpGKH2rtiOlM1uarXgKgiGOTLGTnlhHq90VA2lZrdW1llhJuzcQ2xBTEdNgrhxMHCGHx5HE6cpVueVK2dMIkMs1VyxZuVyxkpZcnt6drLWbHT8PZS8WC27usC4WijY3P+/dxg4yedIVZF3R8YcQh6ILCJ4I30/L5IJJ5CynNSwEnwjdxgAh/hUYCA7ZvphRo173wDe6jemtgpnR4g3FqrjXCU4clUymfWdZYkD5bMFNLmJeGmJJa2fPiZXVrYpPSSJDToCcTDW269f2Ov0bytmZfW9+6z1nHvjgb0Q+la+CRIDyPBHA5CP/7V8eFxn4W53u4IZdmRJra2etur0t0GhaV+YOcSZz5aJYA623TCCtofk4ShsyaeoybxoCFnwNOFUJ/lpcWrYFnVcplz3+BPbA+BzG8OBrofsXk4L8JExrUSpWBBwl27NvnxW0npmdkWLLJBGgVGsM2GNcz8hBybt/BQzEkHiCaSm+d1GnBUidvpsc7qvRGjazU90RaNQ8fgQm0pDiDzG1Wm0pfUJmneotloGZNBoLDGXaAUIe3YtZpOfEIEIAKavrUIb3BBXyPhUqCa/Pnj5lW9sbAkN6v+NWEUDu6hkOB6Ok7ungaDJ4QXvQP/3aN9z+hQcf/N1oLuWvsESA8jyR2/fnS8lM7gd3tne+pVZvZZI+EndgBZkTk1HfClKgvStLUj58KW2TnSIzpymToi5FrfqYHlIqMuoX5lAUA2HMDWHzQ4FHS6ZLt0fcRteYTjQAA4LDSF/Qt9GQHh4YDKZHylM95sVIAI75RQbiJZ3VdAQARMgSzarD3e9CMupSpeSKjzkFs5K9Y0mxEiZRx9whaI0FpgIAkIayLfAb6dqwEtBtqPq3BYpk2GfAYKfb8l4mRkNPZNZRT8L1IVwcgynHfTgySsrFvMBI96fjMI9W9qwGrEm7yaeyyzMaDNP90WA+W0yPDr507pFPf/RRUZ1IvlISAcrzRO5942vuENP4WxZL7MeH0UdhpDj1nW0pScsn3ioVclJCmQJiBfge2jIVmCKDqFN8EqQaIHl0Rkpcrsx65Gu71XETAGeriIQUcBKwExkT9NZ417HHoxC5inNUJpEAJSOlxwuKWUTv0PLyihhLwfbu3W/zCwu6VkomUtmjaAGwmZkKHlMHoIGUvzA348yEKNqBABGWg/3Cd5QeUyhLDxLjiKiLTLRUXMeLomUyKXfIjiaYNUTjsuj86XootuPh+/RM4cdV2QTGEchXVn0xf7j382truv+uvpuRZzcthgYAZnOZvaPx8PrZZO5c9o69jz/60KOBfzqS5ywRoDwP5Kd//PtmDx479l3tTu+N+kkSrtzjoeWkqOvnz1lZAEFOExInMSdxU6wEswFhMF5Bpg3JkMLkSDAGHKG04rTO0mNXTFIHuFL69yCp9EgKznaYAKYMrwTh8G2ZGzAUjmUEMMeXZVag8Jg1FX1mobsZNsCAwAtdzwKKWJKRRDobspKSiZLhnLLMqbzMLjEgnUM+FEGQPie814dMbgPdO2A6juEkZrxP3P0rHAcAwVa4L5y4BMQNVW96igj043JFPSvAhehdTDicyEWtmWq1p7ovr6z4OKR0MlnJZJOx65dmnvzFX/wtJnOO5CsgEaBcYXnfD/5gZs91e98iVvCDiVRqoVZruunALH74TuakhIc8C71ZtbrjFJ64jVyW9I0M5mMczkQgIm3SeYTIs4ZpMBcOTlQSF4XjalBkFDXD+dqGiYOCe94TAEcHEVofT8dtRMSslHBXJhUO1r6YUXCuAEPnwTroOsa/wXkADSZIStcjbB+/Cike87oWyaZTaRaZP6oD9cKZSlkl3ePszIwDFyBGvVL4YnRN72bGASvBWQvQCgNlHhHhO3B/Co5rYBLWEtM9cO2O2Bv1HglwdmsNvelJMapZ29zadJYWl32XSaeWs+lk4uce+I0P+wUiec4SAcoVlvv+7l97WW80+gfb1ca18WQ6vrVTtXgybvv27LFmddcOHzpgs+WSO2eHUl4iUl2x8A24/0DKJCViAB45TfBvoFiVspiAlFgKI+XN63vJ8rmsrjgREAzU2gefYRUkVsJMQsExawqlgi2vrlhZSp5K0pOT93PTKZIyBVkWYQmdVtP9GpRBuDzA1KzXXdHx/6D8sBAGMTIQEHMH84jBhRxDDxJ1xD/jvh7dQ0mmU1r1AGAwn4a6zzDgLohlUZliO6ReAEjYHgAL95r2Xq1SoeTXwFnd0jnkv9134JDtVGv25JNP2cEDB2RK7lpe9K5UzMZe98pr/+cvPfjppt9YJM9JnA1HcmXkgfvuTS/e+Ip3VZudn2r3JsVtJuYa002ct36ThEgJ27e6x1nA9uaGaP/Ix9P4OJ5e300WwIQgteFw5GziAlOYDL2b12NP9B3FI6cr8xj3YTkCIvKikaiI2BRnNlO2Q0RrTnUg9wgtPKYNoffkgRVKBM5RgRm9MZgUxLrAlhgBTM5YHLExARnpHzMkUtJnoYdnbsPZDABwPkFwbnZpkaEVsBE+660kCA7AIrUBiaO8G1mf485QgtHT1DUukOLeArYG+xIbYjS1rtVUPU+d37CdRsfmVvaJDRXtsS884T1eNuzY8tKMnlPjkcGk8cPf/l3/5DemP0skz0HoiYvkCkm3fPRAfxJ/UyKZLUi93BlKNyuKQmtMRjbvDWk3PbqU3h2UhiC2sNXmO9AA6SdKNC0TIJOKe3LqmVJe64qvYTmLTB1aLvj8OIvzM7a8uGDlSl7XI6xt5CbS7GzFmMTcfSNSeJgRyZxgBmtnTjuQpcVamvWgt4nYkZpMC9b9Xsd7YUbDvrWqYiqE0wtkAI5eq+MJoIi0zXjXdRxy5T4cwAYAioulYG71AAsBI/twGHvv0TSbPtNy4Ez2pE9Tnw37ASKAKmBHYk16vnkdM1cqeeRttyk2JWAiZy1JsBcWltxZOxom5vqtyWbwi0TyXCUyea6QfOBf/t3lI9dc+/e3d+tva/UG6c2NHSn3jJ09d17K27dZmSmLRJ6iYMRtiDV4MJk7Lgld79sE34KUzsFE/+MfwV+SFwugRyg3NUUY8AcgeBcq50jIKYufBcUMnLkBONH7gomEj4XPKZRZAEAelhNPPWXbW1u2fn5NCjwMnMSqS1vsQZRDZVC/4JXC/KButFjUD2cu5gs9MJhDtGU4fz3GRN/II8t2Yk/wybgJp+/cM34SzCM9BF1HiwCX67t7WZthZeBSMMhRLzVgpT/MLUyjerNhuzJxiNkh3ob60HWOmdTptuL1zu6DH/6NPzjhJ0fynCQClCsgP/N///U9x6675UfOnFv/y+NJovi5Rz5vW7u7bo4wChdlLDC8H7XQ950d/Cc9V9i6Wnm2pQCDKWD4CFwBDcwkp/MYQNibhtyj6GQ0I48s3at5XQPA8C5nMQq6ZPFhoNU+ehi/jARQG3TV2oudnBUzIegMhyc+HLZRFseP+ayTUXh8Gq7sAq+06kYUL3lN8OuQaBrTi+PwlfDdg+N0LwSoUU8AhyX4PnQwInYFAIB1BM5ZoIKYFWLSiFEhkZPAUM/DzT+O0JpPDIwkKRSbCXTD74O/iHKYv4heo2PHjqQqlZmjb33L3Sevv+meZ6JkTM9NIkC5AvLGN7x6Vcz8Pd3e8KYnn3pGzCAh82PJqgKV1eVlmTpJn3MYBaUlJiKWlh9AQVlzuaz/cCiSZ22TsqDsOGs5xxVRigbYYJa4L0XKXGvUpFlqnWW2xKRhHmmq8ugR6bWZpwc9Hnu3dFog44MOBRqYKg5gKp84ELqYARR6Wvpq9UmSxDWpK6H0sBAAiP3UtycQ4jr4TQAT4mi4ZxQb/xCpCyjPUyXAvlRGQcpOQu0xJozMPUYr6wrOsMjfgtkFfgE3pCyAoQG0sBtPjaDnEcMZrGvCxpgW1ecukglFXA2+H8zLM2fPxZKp1OqwN9pz7HBldOfdx575yEc+E0XQPkuJAOUKyDe94mXLhfLsX15b21gh5gTaf+rUKVtcmJPipzxpEiHpxFzs7lSDVlsK0mo01BKrACkJCoixAJgAEig0/hOmE+U84jMYsLexseGKS5cwU2x4rpN2V6bLtlWrNR+z05Hyb2/v+HQczWrgG1lfO+cBaETZlsVqOG/dzbHAzMIBQhxItxn4cwAn/BgM7KMuEwEWQWtEqLKPPLVu3uA81jHUAUcsoACQUC7rpDbkYRViKF6W7w9ABBOPFAfiNX6Pnr+W3iQHI/EkXQfBdANQ6H4G3Oh+Zt/GxroPUQDMavWmzczNC1gYsBhLqIzD/V7/UDIWf/iXH4zmS362EgHKFZC7br55IZ5MvUs2/SK9LbVa1btJYQPjIZGdDO0P/AD0oNDyAwoouAOKFDrNOBmBT0amBQmXWNP7g3nA+fhGUC+iaImSpReIMPuaA0ZH4NJy5y6KCKthMq16rSEg07kCJcogj0k4doYk0UwOBuARpEb9cLYCPgwMhJk4oEiRYSB1rqPj2+GIZQFGW+tavS5gbHp5gKIq5pn5dYMW17ncAWkM2q26gFKAEhcYaT0ckDKB/CkBI3MWonuDwQBYwaLrUy8BigMYD1v/0YXcFstrkhhK94dfhak6PFpYjIwxS61OJz7sD+dik1jzln2F33no4cehRJH8BSUClCsgr/mGl9wcS2Tes7O7W9gQK5ibnbPZyoyHm2OqFAsFV5Au4eT63p2mKcgQyq51ELbOVJ5p942gPHTvkl+1JqDYEvNY3xH7mCpPRyaHcENamDBdU4pIFzOmiBRegNDSOTh+AQh8FzAZXdYH7QFyu9u7Ao6W7V3dKx2H4bStXCo7E6AHCicFDk8cqXQpM4shTowEOVdc8ZkSoyeTbsd2tTBTYHV7y3Z2tGxt+jACfCuAEXlf6CLHwdzvB7leYCJJAQOACegQOZvF5NE1YD2sccjCQrTbgcSdxeSKEegwoRivOukUmnqmPKN2t2/bek6VmXk7v37ej5c5lJypVK5d2Hug9+a3v/ZPf+mXPhaByl9QIkC5AnLrjccr2WLxLb1Bf85zjciWD8Pn69W6g0gSB2sxK6UWi1DLPFErTk5Wok7zGdn/Ug4G9NGmt7sD26m3bbvRti2SKXWG1hknPZVBTaZFVwDSbPesISBQI+7BX5gdQW+K2I8UlvV4TEqBkUCNqFO6igPnK6BFT0+z1fRgMcyvmhgGCpzOBAFpMQEHoOCggk9EzAsnKAyJda/b0meBzpDBiC1dh4GAVTETwugn1iN5lMwa5l0mW39dIAN40nVN3ehCd2YmoKMbmBSYYa+V+1F0PdAE1hGmmMRMwjTK5ZlSNSs2IlNLz2RLYBsTIGWyOU/9sGfPqq2dW3NzMZfLZndqG6srq+X6B37+1/9k+pNF8mVKBChXQN74Ta99i5rLd7S7ndTW5pYURoqiFz6c6oIWljD1fr/jcRu0niQaKuSy3ktBK4yjsyWAaHZ6tikF2djZtR2ZFw21vF0BDa1wVUpPnpS2mEhPoAMz6ElJiRXpqlx8ICgrzlwWd2rqO+YLPowgriMIcadHB5bBOBkYDyOd6eKlxwfHKoyHYDrm1QGoMHGG+Dg4n9kDdQ+M0SEjPyAAI4L1hF3FTI2BaQRjqlarDlKMnuY6mEe71V0pfMrriIlIDw0MySNvE8EgRMw6yuZcPUhnWTGxJBY9bx84mS+W9VnlYBrJTKSnDCft/OysO3FljsVy+cxSp1/f/OVf++1f8x8ski9bIkC5AvLt73zbezc2Nu8Sw4gN+zgxyS0y8t4UhvczgI7WuKfWUw2xDTp975Fg/EtcygGQnFtfF2WvOmCQW7WpY8kbC2CguPhJUE4ASfaQmznEroBG+CG8y1fgocs4QGnTBQm7X1F20j8yejj0xeBEDswDel5wpMJuYDqBMuNcxcSB6Xivjc4jJWNwjsAFwNJ+H3U8IEpWa51LekpSI7QEiA2BS1WMS0ih7wPbFljS9cy1mQyMDG5eQ5l63lsEW1EZgI1Ikt+Lz0qo8zkWkxDGRMBcvdWxNT27fKliSyurMs9azghhYczxs6l9AplYv9PffPCjv/uB++/3RxHJlykRoFx+ib3yZS9+b7Vau3Zra1sg0rA2vgoUttPywDV8JdB+GEsMQBFIEP5OC11vNETZt8jrIRBpu6MTZWz1xCAEJDWBC/lXvUsW0+OCovcC5iGFBkWkYoH/wfkQIBL0kAAmmBn0poRog38ChyeKS7k+QG+qwHh+ibLlO0CGrwf/j5/nYBMADPvJceL+G31mMKMzHn3vCDRQ7Hqz42kca82mA+TJM+dUj7iDDPd7fmPTQ/cBUZyqSfK2MAOAjsG0obeJagOcBM2R8InxTSlPLEWeFgAGZzXDAHK2s1u102fOBsfrb2PjvANLPpezUr7U+fRv3fTzv/bRT3f8wUTyZUkEKJdZ7r333sTBg6vvrtcb15w5fcZNF5yjKEToq5idKVtjl3mKGRyH8o1sZmZWCjiwje0tq9fqauFFz6WQZGYjATUKiWMUcwSlBojIP4uT16fGUDkABE5NAMY/S4kSMgto0XURZxferSsFoz5ABf4IUAMGAJtwgABYdA3q5b0rF/YDgipbAEOKymDmQoGJm0E6Rsf7mCNdh/FE3A+JsJswEphWve5mWrXe8lQD+Dfw/bCtWK7IFKr7NgCBawO0mIvUFNOFni5d1AEMU8hTM+CN1jMg8XYDZ7AAfF3PsK3nJhvHI4IZbEgZwiXvvarKvMpli616Y+ODH/nEw1GqyL+ARIBymeWHf+A99+xWGz90+vTZ4omnTziNR5Gh6kTIogwEq/XFOghMw4dB6kbSAJAz1dMmSonofkWhUCRXebX4PuJWx5ZLJcslEx5+X1RrSyQtXb85upm1pFQ+OAGYeGyIruGBZ5gJqge+idgEZyf+HEYwB8zEQQHWAYhM2QuCvwXzB6cuPhS6eTkPQAK4WGAl7pwV6AF8pELAd0HuWwdCLQAM+zGxYF5Mho55B9NYO7fujIy6AKhM4o7PhZ4wzlHFVO+Y3yfRtQArU6wCJiCFHo+2p8RSkmI8Pcvkin59JiOjFygAIZlYjaYdOXIUgKmeOXf25x761J9u+U1G8mVJBCiXWcozpcFcZfadOzu78+vrm94FC1VH0Rm0h9+BfLGeTEjbMTXm5ubch7G9u+0vPkACiyAOhaRFpFQkP4onjCbhEuN5nO3EPdgN4KCHSPrigWPEcdCjQVesUMBNIQCBl8GTFekAwCU0W4LAMZiItNJxJAg4g8V4ETATHefmFKCjBXADUPgMm4DR4GSlB4j6wxj4TPg/phLxMMF18CkBCF1PmwADgnF1p8cw2yE9S0H2/SD2hGfCPdDtDBiTuY5BhATzAVxc11NXqvpJmToJ7e8Nxs6SyqUZ29jcMHq1NjbXPf/szs6OnmlBwNP85Cd/94+e0I1E8mVKBCiXWf7sz77QeulL7/wrm5s7q7SwZHBHacgjQstKyDuKQuYxzA2YxNLSgtUbNdvaWPcymJ8HZgLToAs5J/DJibaXmZBLLCcrsGBhaD9mhk8hig1EMw2DEKj4sH8Bgo/B0X7WKCPMAmCgYXdlFZB4AJlMLG0iQNYV28fgADg6xp2sYimXCgDDdl/EfmAo7stxf0xgpqg2Oi4wm8JxQITzwTLwjQASwWBDtiW9LDdlVF5LZh7MBBAJmBb+EXLapt2MwTlNYB31J/UjkbOYhzAUFW4727XAV9Noex4YRkvT8wQrhKElMunJ3OLC7/zaXS//k/uj8T1ftkSAcvkl9tK77/wbG+tbi4TFAygoBUojfRYwiGnksmIQYglSfnK1djotDwLzUPNB15UuLxDJCDQAoCxmjGg98w3jRyhNzRyf60bKgYPVI1713fVWJgXAgQKRmoBIW5QYIAnAY+jpE2AM+CBo6Zlk3RmTCvCuYVWZ/X6MACGAh2AbDMRNOSmzO2BZCwycWQkkPMWjtgFuDmgwHZVB+oWM6pL2+iTFuhj4mBR7S/pgQ0xCgAcAIpoXRjZTLuvKTA4WJGnK5wteH2J79Kj1fIdWlZkIa2kyIHIwsnyprDqMrSOWRCwPJtfqnhXdH0GEbcsVC7bbbDcmsfjPvvx//0dP+Y1F8mVJBCiXWd7+9rfjynjv2rm1RULhPYUAyk6PhRCFrGeVUtHZilRXZ0zEXmpqQavBCFuBCi0yTATTICk9Tgk0MkkxEzdzglB8nIve0qps4jRYtEnKiJqJ+UzNFVgBIBKAR2ByDDB3JEEvEM1/0D3LtKVsAwsCEGFtNsDxKuAZAjQCK2YnxEDCKUrCbUAEMAnBx/28+g8GxPGYTIAq9fJ6q2KMw+G5pGS2ERGMb4jeF0CEIEBGULsjW0DBUADVRNcYBvelczOpjHWHgT+G5FEZMbmmALQrgInpOdVaHZlC3OtI10i5U5uE3Jg/+/YfYKKwsyfOn37fH33ms1W/0Ui+LIHFRnIZ5cYbbxy0W60GCoayo/QILzVC6DqmhI+gFdx3u22ffa/XaUtpdY725QANQETnpwENGIQUiviSlJSJcpNSsiR+GIBHZTOvDl2nuULR8uWKR4omCBTTOTg93cEpwMKvECo/7MIjaqXo1En/BECCMYBGIIPTk74irj6aMCCRbG9SbHKf6HOPkb305Ag4O2IsXUwfzB6AJfw8xDcSlAIzIWUloFjOZ32QZKWQ9yTdfA8WACUrEAkYE0K8CaH0BPAx7eqWzBkSbjPTYaFQcgYCS4GN1LX/ySdO2NMnTvo9b29vB/Mzq1x8NkTUNvTMB6Ox8H2S8wtE8mVLBCiXWe6///5Rt9tfD6cDBUC8a1hKFo8FGeSHI0AlGElMDwzD9/GXhIPyWMZSEs+GJuVG0105oR/eQhNWXrSUlmSmIEDJ2SiRtqF+7p4O6UMu4mrVkxm11mSol3kgcBAGCCDESegNQcWhNCoP/wOzCLKN1p/J14NFSg1rwS8h9ONcfC2sKUtK6fcHwKDM1JG4ExbmBILdEHgGmBIrks3mLeMsJG9FAUGxCCAUrCgzpqDthN/DSvD5YLYBoJiBnU5PoNsQ+JkvdKPT1Uw9yIfCdfoCNk8kJXpIcB3PjW5oBkt+/tHHvBepRVSy6oXjt97aLR06cmgh+NUi+XIlApTLL5PxcNDAqYpTESWj9Q+ZCUmI6BrFrmAf2zELyP+R0eJmil56WES4uMMT8JFST8RExiq70RXrYDBvXOBAUJeWkYCCvpz+SAoPgGiJJTKWzBYsIZOAzK4jgUhMiksAGcMBUjqP7lZpIN06AhBtJ3GRlBNnJzMRwoI8GhXGIkBxtqJbGAhV3DzSdwcZtmkHzIV9gFgyLVYgJpGiDumc6pK3dL4ovNM1tI/Uj+SlDXPj8gzooQLeYDZEAtd2q57hvk0XsgCYHp3tnaovMCV8IgAf46Z4ns7g9Iz27Nvr2wnUx0H72BNP2czcrH6Hke3fv1e2EA87kr+IRIByBaTZam2R4BnACP0cMBSf4nNqsngPCmaB2Amfg8RJ+oNFCHBwQmJ+cA6ThgMEI/2aPSkDIfj52Tkp0owzlEk84+ykO45bR0rVkZL19R1gYTsgxEIZ9NU4SxEDYaQyMwgGppHMCwEArAQgyYo5ZKX4LCg9QINZpcpfMONgAXwOv4OTLLx2cUArJUAScABmCbGomL4DKrG0WJXWLGynbF+mZQMnnohb7CQ0z/SQbHenZusMSdjdsY2tbZk3db8u2fqZQB4AJ36n0WCoQsv3M6czDugnn3zSzp4952WUyzOwwd2S2TNeQCRftkSAcgVkNBx8QUowwHRBAIhQ6QKQkWJKUBQcmHSdsvZYEJp56Q/EH1YiaiAQiHmcRr3dsYZaYCa6WN/ctfPbNduo1my31Radl7kxEJDoJEye7kCtOz0cvogN6VVAoSdiNH2Vj98EM8aZh0wLBzjVE9epUMUyUnbPaC+2gr8G04L4Dvw0ABD3gykDs3D/kMAl6C0iOpXUjHkHDMwunehml4NISuAkgEnlCr7wGeBJsB+AozdHC74WnhjOXHqlABtiegALfCObm5u2Xd11M4bnyIJJSZBgqVSxHbGXja1Nz+yf1jUYK9UQS2kIaM6fP2/nnj6bWFxcjTjKX1CiXp4rIC+686aVdrP3pt5gmKVbk8hXcpyQNInu4pmSWmUovUwdxBMP0drTa6IWGRzxVllgEpcSwxzaRJ2K0aDMuVLZVvcetPLcvFVm5y1flEkhZcXh2mx2vEcDP8lQ5RGLhimAuUIiIhIUUR8AIYmfBBNKTGgEenEMTETXAADwq2C5CJPc7CLGhIhd6if4k5IHPTU60Xt+OCap8zJ5gYnKwTEMOOnC+owTWSaWgAZgyohZkb+EOvi8PfhuBGwMR6AXS8jqvUfDUc+7erkqgEVeXvwugAtd4gAFAF1rAqq6d4Hu7MKSm3unzpxx02tt7ZyeSTN4proX2tl9+1fX9Uw+8OCDH9tlSyRfnkQM5QrI/kOH65NkokNujvEER2POBqIFRL/G430pZlfqEZdSSfGkzCxMX8Hk4mQzSwh0YAVBePq27aglxi8Ba8CxiWOxQcxFb+BjX+qNljVlYo3UQqfzJSvMLtk4ISBKFkwqZ+2hzKGBCXAEJnHVR8yD7QPZULEEMwymgQd9h92IG6leE5ksQwHCSOyhhYNVzGao/SgvIIBjtaC6kCKgh6NTSywpEycrE0zljVUXWBGKPY4x7iahY8SgeCYjbdPS702s3QpC8kn2RFrM2XLBDuxftZWFWVtZmfNeIhgKrAWzBmZ29sy6dVtd63W0T0yM1xwzxpmf6nx2fUPMiqxtJZluOQc7WBQjkrticphBwtT1HWhMJH8hiQDlCkizWovX6k0xeFhJ1lkB3bDudFSLyosNQ8DMCOk6nxFYBQq6K2rfkO3fk/0CULgvQkoBSwCc6MHY3N5y6g+1X1s/79/xHXRxTLoZIRNHyk2w+wAWojrgkKWHCH9KtljS8V217DILsvg7GKk78UF2Q60xb2AXOF0ZO4NJRF3xazDWht4mkSYHM8AojvNWCg2Q9HUsphrXCRiK2JmYCd3aOWb+U/3mFpZtRgyLLl1MqnqD0cHP2NbWhi0szltRwFcqkhPW3B/CdXmWAFBfCEldmmIm1ItnQqRsMP6naydPPWMnTj5tjz32mHeX79bJUhe3paUl27tnP4BWzWQW2154JF+2RCbPFZBrDh6I79Sar47Fkvuctg97su/H3ntRUAuekmJXpERSNykGqQ2CaFqiS6H1NLqJtBQ8V7CMlC8tJgAobKpBPXn6nJ05c87+7JFH7ZHPfc4ef+wL9uSTj9tTTz5l50Xt61KcWq1mG2qlCV9nHIysCTEbgESLAIWxMtls0qr1XcsXyCSXETAIhAQoJHY+du21dvz666xcKTvQ+VgbmRjSXI+JSaYETM5MZGJ1ug6CWfeJ5N3sItVCTIAju0dYkgp8IyqbGBD3Z+h6KQFYTKZNeabowxBG44HAZcYz+D/99NMyU9YEpkzhgU9K/EnsA3OLqTsIn8cqwkQiw39lZkasSkxKYLIr4CH51EB1Pbu2rnrl7ZzKwnHr3fF6xplMdpxIxH73uhtu/JVf+IVfCJA8ki9LIkC5AvK2d7yrtrl16trRaHg3yZhjMdIuEpVKisecFXAc5vWCi8r3ep0grcCYXiC92zAXMZJssWzpXEnmSNY6aok3dwUmp07bqdNnvLuUsHqiaZkjeX5hzlvvRrPumdrIjgaYMAHWzs6mbYu5tFoN1WzsAFKplGQqNaVYmAETV3C6V/ft32cvfcUrbHnPqh0+dtSO33CD7d23z/0Z9K4MBH50y3Z1bbqdSQBNeLtHy6ocgtvwu+TFfAg4I/COyGB8JUTijgUCzBOECZIQKDEgEnA7dOSgXXvtNTZTqQhQhaYqg1kC1smPQm+RzicWhTB+8skQ8ZtM04Wt6+t+ZxfmBYQLQSIqsROc1yf0rGYWFjy3CqylkC94pGy5VNTzmu9m0tlf/eEf/dHfCn6xSL5ciQDlCgiTSR07Xlns9ptvFUOIwUzoDEUZSgKKmUrR8ingRS2/zIu+2AGtsKwGKVhRzIRYjbK1+kNb29y2U2fO25lza7a5teOsAKbx4he+QOdPRPmlRFqIZYFRLEiJSNa0srxqKysrtrqy7MvSyqLNzBAximmTFAC1xQA6Pok6rOCWW2+xO1/0Ik9sNLewKFMp7qYDZgpAUyoWdY1BMHparIOua7KrwQQSsJ4czCMX9CIJaDC76gK23VrdAXBrZ0f137bz5zfs7LmzbsLgGwEMDxw84CwDkwSzjjB6RhETgLa1vStwbHkQHN3UuwJWerhJHcn8RYVy2Srzc25KnTh50kYy7TDlGq2uM7vjYltPPvW0lUolByKmMjly5ODJ5X17fvIjH/loNJ3GX1AiQLlCsu9IYlCt1d4hKClKywQYI8tJUUp68ctMI5qite4H+UCkPPSUEJGaIuZDpgFjUc6cW7enT54SdT/vpgwpCJgLp1jI2kRUHzNqfm5WIDLvrGNGSjk3MyvTYdadpozMjavcYOTwSMo29PE1ZmJGAhNSUS4tLthdL77Lrj1+rUfOZhh8J8UlPgWFZHwPvUKAzv4DB7xX59SZ097j5HMUYzAIfOiFYdwMCY7OnDljZ8+v+5xBawIQ1qQMAERq9ZqbZKdOn7TNzXUPjX/sC1+wP/6jP3ZmBSAmdc09e/Z5AJsPQtQ1YGQAgvtQ+mJnApP+SADX7QlM8rZfoLSt8vHnEEUbxNkQrawnK6DyqUp1z4cO7J8UC5nH5hZy//lDH/pEjd8qki9fIkC5QnL9N600dk9uvsTGievU3MusmQgMpKRqgYu5tBWyRHb23ImK34TJqjB1cMiSKvHEM6cEKOfUwte8e7YogJiFgcxWfHAhE6OT1NqH/2MmoNICApyqmFD0mnjCaTEgMq0l6TkSK0ozspeRysm4Hb/mmL38Za+UEi+KjfTdVIknM9aTWUI0K1QAswXQQClxnjLZ+tzikp0WaGBuYDIx0A/FJwZlfn7RTabl5RVnSIsCrNmZijtXfS5lsTXuJy+TD8BjLuXq9o6zoWdkphCAtrNb0/mrYkoLKj/m2fgx6TzmZDy0nJ5FQyYc5hBzC5UFoCUtp8+edT8TLG7/oaO2U63a7Ny8AIgoZVIjJG1hrjIuljKfOnbNvl/54Ac/Gjll/4ISAcoVkid+f2f8H/9Tab8a029IxLJxModlUzmPt5gpF60oQBkMuu4boNVNpbLGyFkGt21IwXaZ9U8KxPiexfl5W5gBTGYcUEoyWzKJmCe8Jq0kCo2yoPlEixKiTv4PklDjuyFBU7lSEJDp+gIWMOiQzJgX3HG7LQkAPPRfyhlPJr1lT3kwW86GMYEg3cCqH+Nj+roZ/BAlARvjb3Z2mZ1wV9cHHAee6rEh5WduINIVTPTnE5TJRCvmClYQI6rIdClrUTV8fuaOO45HMv06un/ibJKefOmxJ57QPWH+kOtkrG1B2D2xOW2BMCyG0BkSa+PMXVxedmZy5tx5qzWaegYDB2Py+na6La03Vc+x6p5vzy8V/3Or3Pz9hx58OBh2HcmXLVG38RUSkQXLZxdbmXRhRLAXUZweMas/xtDQlUoIPF2zmDqusCiWlIZo2bzAYnl+1lZk88+WcjY/U7C5Ss5mCimb03eAJi5QmagUJsZi6glyqtSk5A19ZrQy5k1JrXmlVPDMbsIWZydHDhy0e178Epsvz/nk6AwBwDQC9AiCI5qXLtmcwKSnNSH/SdUnnklZh9QHurmj1xy1OwRIs1JmEkWRjqEyU/IBfczhQ1Y6DCGm8ugLDMh5QpIo6oDJtn91xQ7t3eNrRlfXd6t29vQZW5eJxLWz2az9wcN/aCdOPWPJXMYSnIsTGWes2JXH4akegE5crCeIM5mOldL5OHWJqt0VuD0hcArqSG9X8rFxqvfB+9/776Pk1M9CIoZy5SR28OjyC/pte22n1UsFeVFE9aUoC3NlfTY3R2h16b0IwvHpxSAgq2gzlRk3EwCEnNiMA8JkYDEpNN3MdJeSvKnZqouN1KzV6hhZ5+lKRbnoMVmWuQGLKRSkZDIZ6Co+sHfV7n7xXWI8s5ZPC8zoWZLAnhjDw0BBolpLMzOBk1X7YBqYVZ7XRN8TUs68lBuAwAfCbIEcgn8Fk479OG+DSeCDsUue60UHAZTkpJ3ovomKxa+ULxCwl3XLrYp/RaZPXfc0I2ZGbxDO3HDyMrqGiZYFBN0fJLCb03Fz8wtuIm4JmIiOJXMbjIt7qjdreiZmx6452JSp9V+K6cmvf+abnvziFHSRfFkSMZQrJyIao7XJZNwtl8vODAa01FkwfmJSKTclCHhzJRao0LITnl8iLmNAd7JofrfppkFXLX5bStYU+yAZU7dNJvy6gIRpRnteIjEmlVLZ5mfnPKdI4CvR5cQ4FmYqNpZS33TdcY9GjWnbhPOkmNJAX0+0llVgSQLv8IQCEqoX6SYzAgaieIVmnlqB+sxXivbKe14is6lijOkl8TUZ2WAjq8tLApOYJ49qqr5MR8qsgkIlY+IwwCcjlkaWOTLPUe/9+8RY6Aafm3UH7iOPPOLOXLq1MaUwiYqlkrXFenxskcoIzCLC7wndF3ipvrCU2dlZe8ELXiCMZqAlvp05AYydKZbTH/mpn/oI6BbJs5CIoVxBedWrr8+cP199fSqeWsLUgVksL8/bjMwXN1ZkXqC0nm9VTAGqDkuBsRDvARugRWA/OWM965nW+i+I7ZAyoVAoEI5KemKYeZAE2PhU0jAGLVkBS0zs5uYbr7fjxw4JEDo26fsgH79uXAASZrnHH0KZmGIoKDEomC4J7R912w5Co2HXilJoel1IhHTw4EEHtY31dZ8ypIhzV3XM4osRSyD2hMA1ZhIkaTX+Gp+gTNcLx+jwPGBpCQES6R+JPSF2xiN/BSA+A6GuR+oH9xvpucGYiHMhqhbn60615g5d/FLZXIniPVJW6CggykyWl+c+e/uLbvuvH/3Qp4JhypH8hSUClCso3/+9b9jZ2m4mtzZrb0gn0t4jU6lkZI4UvCcGZeatByjIDeu5VVFm2IAUG2AghypgQTdwTswFwGBhkB2jeukpIXcJrbQvUlZ3xOp4lHq2UhKbaNpsqWCv/YZXujOXl2LQhv2IBXX7qgvjabrefT0RyBFwBoNg8F1PSj2QUo9URq9Rs4lARSfouKHVxDxGYjUM1jt0+Ih97pFHHUxaKhtlBhjSMqt8RLI+A0AktHb/jLbRc0T+WrrDWXDjcu/0BsFcKmJ2YcJqIl5x0JK9nngesvzD6FLplMydWZtbmFMZwRStTN3RaAvgtrZkJg31rOK2sjwzWlqe/e+753c/+vDDj0fO2GcpEaBcQXnwwYfHd7/8WLKx2/+ratRdERaXKj5/TpDEGUautRbpkWcsI4cqx8EUQmVk8URHarVpkYlS9ZHBUnpGBsNG8EH4gD0AKEem/Kz7MoZiDIsySV56110Cl7xH5JIJzvPY7tSsLhMKMGFwIn4J8scyZxBBZThTu82WDTtN68vE6umckdZDsQzMD6b4YNCiB71JmQ8eOuQ5R7gvTBM3xfSZehI2D1BQR7qA6dUBwIIu84Bl4VMBXHWKm34A4vz8vECK8kfGyGJyz+KPyfEcxH6yuYzYyYwt6DhyzRBMx0yF3vOkkjq9tq4xsKWlmX6lkv2pf//+D/9Z8OtE8mwkApQrLCsH4i8adlPv6Ldjlklm7cDeFSlQws0AGErATmT3S5lgBXxOCiTyhaK3yIx/IXrU85ZgBEnJpC1+TEpKCNjAWHBswhTo/SF7vDTQW/mx2MerXvlyXXePQENAIIbRFuuoMj+NFnpj6LZlXmJ6d8ZiHHQP41Tl+D7sRAo8wvSo7Wqt7fqeoMdHIESIvfes6F5I78jQgEaj6QpNxCtjfKi2sx99wAxyp6rADj8SU2HgByJiGGYE4AUAy73ykQGJ5OfFGSSReTZTqnjULqyH+56dm/VIWOJPNja2jZkJ6f7e2t7xXqZiKa9nONpdXZr5ic985snNoKBIno3oJ4nkSspr3rT0zupa+gOpwZyVMgW75uiSWEjMW2wYAYPt6AmhNZZWut+CFhtnLd3KE7woUi4CvIh2RQAKfBu00BxLzw7HoHw4XodEl4oB4Dh9xT0vsaMH90n5YgKIlisiCYY2NrY85oXu4mIuCGtnvE1GAOBJlMR4MKnwrSRTqh/+C5XNlB5xLbG8GNHMjI/eJWwebw/soN5o28/+h/9k7S5h9YtGJjhywnBftUbV6lWiWGWuxAUvuibmD9ntqBefYS8Am2pzoWuYbnXAEucsviWf71jPLZtLisHM2v4De21hcdl26g37k0ceszO6t3Su7GkMiMnpD1qTW28//sB//a8fe6fKgwBF8iwlYihXWI7ckJ/ptyZ/1fpxW56bt/m5vLYSso4zkgXPQdBtDBNh7ZODw1YEKgSt4ZTFx4JfBR8LC3PzsCY6FTDBWUm0KnMpj8UwEmImd9xwnS2V89atbju76DXrtn7utK2vnbdaU2ylz9QUUmIpM2qm2gRmj5gJDthht2Wyb2TyiNU06mI2TWuLobSJvtVx9Z0dywkcSlnVfdy3XDFrSRylqtIzTz3l5g6SzxdtVqBDb9ZcZU6A13fwhIngXMVXRDc5AX6YNJ6mQc+F3jFMJGYDwKGdpQeskBfTw4waWz6XsmMHD/ggSWJQAJ2RAOzpZ05717cnhFI9BYLtfDb3vne886/8SVCjSJ6tRIByheXOFx+e9JqT9ySHmRzdwTm1qu7HEHCgwvxBMBha7yxBC3rok6BPt8NIyLaGXwEzCMUKe2Xo+ej3R9YVKJAqgXl3kjgrBQ5JXafXrFl1a0PmzZbPm4yDE1OlP4j5WBmcpDhPwyxpbt6MulJEUhYIQARCbTEdoleDeYb77v/Y2dy2GBG2qn9X5W6vr1lje9OdvEUpdi6bt8cee1wMSiCTIkQ+a3tWV+3I4aN2/fXX6RpMtaqzdZMwE1gJDCtfKjrrwnfikb56BrCQikya0agnU3EokElbsZiz40cOy5TbqxpMnK2RsrLe7tp6dcca9CLB5EQFi/nCZ6695rp/9ruf+aOod+c5SgQoV1juvvOeQq89+q5Rd1TyILWclAunKkAiJPHUjzASAQh+A2ciLFKQgO5rm1hKUgCEj4XvmCkom5sIYiXdQdeD3JgelAhZguAqtNYCBdIjMEFWW8yl3m5ZCwYiW4Ls9IyfcV+JgChQShy9qhqAxzVUHvtgPgzCa7Za7h9p1BpmffGq3sCauwCWwKpWt+r2rjVkRhFxWyrP2Gc/+4gAKwA9QJReqkK5ZHMLs7bvwD5bWl6yUqXijmYAk0F+ewUQy8vLtrK0aDfdeL1MxKNGLpeR7jGTSVipmHffyfLSgh0+dMAKYjewMp8CVWypJrNrhzq2Oh4kx5w8xVLxwVi286tR785zF+F7JFdKHnjg3sTHPzR449nTG/+jU2skDsvWz+XoqUgFvgCAxBf9UKIlfA7m+qXLFRYS+Bk8YAtTSGscmR7dqha9L4X3CcrpdhVhIXUkvR9ZkY0huVEaNcvoHILc2jJhmAzL56wRXCD0Bnlkq8ojeK0kk4Xk0DiLYUr05BCK3xUToTeHfCdsi8lUy6cKPpeOyJIDI47msWrHOKDy7IJly3P22ImTdmptw5NE5SslB5lVsZSF5QWfgpX7gfEAWqRc4F5hJ8SsMAVrU/XH5VEq5Dwn7DNPP+1BffRozc3N+JCCQY+cMj2v40RAvSH29Nips7rulp1eW8ekGqnYN//GJ37/Q37TkTwniRjKFZB777038ZZX33D9mRPJf1Dd7n7foDteiA17tmfvqpsqHtCmFpuYC9gHbMD/pDz0+uBbcMNHx9IiuMNWSsu5zPs70rmUQe8MLEKleavNlJ4MxgsBigF1zDNMVrVnzq7Zo0+csCdObdkz57bs7NktgQSRuwTF5bweBIox4TmxIfhVYD0dsRwYRk/XZGIvssmJnFhby06nbbVOy+q6ToMuZh3X1fnbYjC7YgmMXibQjPy4dPsSoEbsSzAQkCRLyWCbwLUsk4aoVhjWjFgFTuR0moA8Yld6xmyDC/Mz2kdQ4NjKYmBEHvdVFs8ItkUsfTydtfMyx2qNRjBIMR4bpLOxv/fkk2cjc+crIBGgXAF51Y3l70nEkv+53ei9KpvKzxNaPh51bUYtKnhBy8y0nExq5WaMA8dEP5ZARfvxJcBQOI7FTR/94Xh1XwOtMQ5Hfdfhbia5s1bsAvOJ8gCjvlpussCTT3VLSt4Uy4gJdAqVsg0nPSlykG+ElI50PcM0nBVpDUj5hF667lh17BE0prI2tqt2dmvb/vALT9rnn16zE6fP27n181ZvNTwtJFn6mZIU8AlnJsTswOyinm2ZJEwdSuJtRgzjfM6LQa2sLHuwmiruDA7GQ8g880H7JO8y3XDOApgwE5/0Xc+CsU84rrmXsdZ5MZ3HxYzOnT9vNZlflXJ5UizP/cSjjz7R5LeJ5LlJBCiXWf7Gd920bJ3Rf984t7mcmMjcIMITxcBUEVqEOUGY+ByFQYdwNKJIGCLeqyk2wDHsA2jEabSJBdNmEoAJoCLll867UgJA7odx6AkiSIUMDigbTMnZ6dkgpmOyzOSXt3379uu8pJsyPq0GbAlnr+pAPIdPnaHC+1qYpXBrt2ln1jft3OaurQugxrqPdDlnmWLKu3dJbIRJpLs0ZhokhQDpGAjCC+bxoWbcWsCy+PPctxvnjRSNBPXhFwIEG9Wqs49OSxigbQ6+mIJ6TkT1uvNZgAmT4p7dn6RnQT1IEPXZzz2iMrt2/bXX2yzjqOL2iw//6RfO6vKRPEeJAOUyy6tfNveeM0/tftv5MxsyQbJ68WlFifUIQuHTZBpTawqFDxQsmG4UJwjfw5kDHSzCRd8dSPSZcHVvkWWOgD2gTshkfNE1GM7vTEa7q82mrW/tyCzBzzCxtmyWtkyMVrPtkaTAj5sdvSC61AFFIDOOJQwPZncwsZ1Gy9a2qrbT6pjsF8vPzNnM8opVtM4LoEgAnSf5Npnw9coxrSqpIWfnFhykYCf0TjEtCA5YGBdAyDw+mDgpgSHBa4wDogdLt+cMS+jBQcIRHM4ykbQNXAFsdeNuNgEu+GAwq3p6jjCkRx79vO6vY3fdeafdePza2Gyl1DiUyD/0mSefDAJ5InnWEgHKZZabrpl9W22tf091uxXQ8ZiURr8CY2yCpEA4PM17YtxfIWXDCQqrCPwr2iYm4t3CUm9hiAOMDnFFRAndX6DzPHu8FBR2whrAQcl0lvcA4TvpSsmY2oJ0jpk8cwznA8aghVB+EAQm0Vd5bZVLF/RAwNOXidPqDWUutWxLpkOzR14UKXs676kBJjpm0OlbT4rb3q37YENGKg91Dr4d6nPd9ddbWoo+Ub2J7GVaVT5zD86m9FxIaUnsiTb7xGdEthKnAqYwKnkgZoXfZaC6EaHrAAOw6vlxr/6AVBaDo4c8JIHa1uaWO2sXKrO2fvpMLD6ZLI7yk0//1h98Lsoh+xwlApTLKPc+cG+i9puPv6d2vn3LaBDz/LGphABELz9jdPCXkKNDjb/Hi+Co9MUZiRgKCiEFARhClsImenbQG4K9iLBlOyHshN1j7vCdBWE/PTmkSyQAjTl3SBjNtKSYNu7bkG0QzrFMPAxBdoTeAyjVmhjN5ranUtzc2bXtatNjO5gbiGlDSRFJt0laYEmYPr0x+YzMKH2nhyorBsY4nutuvM5uvvUWu/b662zv3j0+JWitVv/i2BMxC3poMHk81qUVhPW76aNtTN0Ba2EqEHKfOMgCWjJ9Bjwv3QPAhWEIO2GaUcw8wu8nfbExMauHP/X7Krs5e+cLbs/9j4/99gf9IUXyrCUClMso98zmcqNO6jvGndjxUWfk0Z8kkoYGFMUOSPxMKDpmSV+KgpPRGQnKQssLE5kCDOaLg4qUBfOA/2AePmkYipvPufM0dNYy0pZ9IwFGU0BCD0dN5g6xIwSlMbMfXb5CJwFczFkBZgijfnPT8TUM9quQ5FpLiv15mTECCyblImgsmy16vIgu4XPq0PUN2/F5elQXBu8VikUrzZTsBS+6w267/RaVoXvWHzP7ed1UJ+6VW+KOWAMY/a4ATYBAigMy2nfbgEx7ysYGsn70jHRdzD8SLWG7kOIgpevDWIbaTspMcuLVBVzr59bt7MlTtnFuzcb9fmxlcSH/l97x6p/74Ec/FeWRfQ4SAcpllBe8YI+lR8VvaW7Xrp8MJh4r4UFpAoBiaUaAktaLH5gwA1F7TBt3UkohABL8HiHbwIwBKMhAH/gctEhpCV+HmWA3EbaPIxIwgZVgN2CyENBVb9aDll8L5VI+3dNplYtjeLZS8Qm2yDNL6HsmnfJ1gWjePH4RupNL7txlYCJMhjE0wAAAOI7rRhjjo/sDMFjTX818gals0l780rssX8y5CUOELf6eHOODEhmrCuwAJu4hMH18pmd/FoAUjtl+bzDtZia1wrRHSswF8IBRMeWIDzDUvcF2qCOTjPX0gKs7NTvx+Anb3thyMyyXESuMj9IHDh34uV/82KeiwYHPQSJAuYzy8MNr4xffdvCOxsb2PYNuy+ZmydSWEc3PW6lcgRpYGzrvLS6JiqQgU0Ch5Q3NFtgJdhEtOuN9YB5Mfh6kNFCrTFwHCujKJRNALT6Rr84AWh3b3g2yyGM6wADoUib1JImlZ0tlLSVnJjNazzH1hpgJwwLysBIBCE5VHKzkWmHkMmH0pVLByM1CcqNYUuCW1IUFKPhyuoOOA6esIqvMle2mW26wlT0MGiSMPuGmTV/sYSSwk+HkbKbVafqMgz4YEFamGxEe6q4CxuUBe9oHwJD2sdMGUADcAEh4Ut6NruvDVugjIydvR+bZtky1rfVN62OqCYiAwfJCeZQqJD/465965Bl9jeRZSgQol1lecOP+vaN2563N+q6bEGSNz+WKvu5LgfAlMLEXXcWBAzboeEDxARTMIVrswJ2i/wATupBRcikzvSbeiwM7AVQEJPTK+HieXt9NCsLfARQSR8MKyDIPI1mYnfXM+XPlsq0uL9rK4rzt0Xphbta7V0nKVMD8kXnDYL5SSWaQTBWy7jN/z2y5aDkxl1QmITOqif3hypoHeLQkZN6tLM+Lqd1q+VzaypWigFOgqYUEU6Sv3N3Y8ZsNo3YJ0gMcQBORCWdTOIkdTLVgpjE3McFv3DPA4T1eghE9Gh/nRM8XX+g6JrlSvdaQydRzhpJlkOCkrzonh3sPLP+nj3zq86e5XCTPTiJAucxy86HZ0rA9/Kvt1raUsWT5QtkBxQQIXQFJbyxA0ULe1vFASiOFQgAUF5ppFm3B1IGVMKLYfRUyVwAa6D/KSMuOSdNq4SMJwvAJGkPt6FFi3AtZz0iAVMZHooVwecLsabknIwGblFfa62H/sBFMHo7P57LB2BuBTEXAUNY6L1ZTVpnMCbQyP2ezAp+FQslmBEA5nT+jY44c2GfXHDkkgElarbrt8SQwnrFAzyN7tWaK0d1WQ88BR6uYjYNCAKKwLSby4h4ADgBHuBIsAgyYWIf9dCVrP9HGPB8+09tD93e1WpPJNLQtAQqBcaSVTGST3Ztf+IJ/+csf/4Pt4EFH8mwkApTLLC+88eA4OYn/aKMmhkKrX6h4jpGxyD5MYjAZqGEfyFpISqGlNmp1HTgEIG76wEokvsKMkKJNSGMgZcGPgqIwf28wcE+fZeJA8+k3pefI84TIbFmUws/5BFtiRwKQtMwUIlHjqgkmCGyCHCTkeHUfRTdwgJLoqNdqBb0uTX1uM3dOy3a3t6xe3ZVikw5AZpBMucXZebvjltvtBbfeZscPH7KjApLFuRljAnh6a/AdYXZRT9IQxASOOF5hamfX1hwc3BE9NfdY3PTRH7El+IjwD4EVY+qrz/TmdKmrGAuxK0ITPT/GOOlxySxsk/pRgAVDIeP/1taGxVJmxcXi+rHrl/7JL33ss4TXRPIsJQKUyywvfPlKJzlI/fXqZjVHHhBmvyMUfRLLSRlGPiCwJ1ZBTlYclQkpBFGkmA8I5g5MhDB21tD/XF6ApJacOYNbXSZFb1u92bXdWtNa9Zb3dDBCmVwhBYFJJS8zR+wiBgORYqZTMd+vi0gBhT1ScjLE0RVLuD1mFsrrgXFSaPaL8jgtGHXFhnpdZzIwIneWyqwgGxsKTFb6HSkt4fJLC/PuqyEXLd3JnjgJH5DKBUwSMoMGYgxCGjt9dj3w/ejZcF3q52OR0knvLnbfkoCG54EfhWOBGu/JUX3pCYKxdAXSKdVlPNL96Fo4k8+cPuOMC9Nyc3fD8nM5y5fSf/S/v/+3fsYfciTPWiJAuczy8MNrkztuXL23vt3ck01lbX5hNuiNmIihSBlN9rzefgELP03gM4GheBeq1igXSgQzIfDMe3XUuvfwDbTaUqSONcUY3LcgcwKlY+oKklEzoyCRpvHJyLqtujMg118tdLsSKIZpRE7WXrvjjATHJ3lkaf2DZNH6LiWl2xbGgy8DU8UdoFpUSQcI5lqGfXBMR4xmc33Nzp49bQOBZblYcocuqQ5gF4VSyUdE040Ny6JLmliRugCRiF9Pm6Dn4V3P6Yz7b0jkhD8F1kI3MV4TSNsQJqY1IOwMRvtzhYKDERG3DCQ8feq09uuzztutVcVeBjazVPqVP35899f5jSJ59hIByhWQV7zwyI2jzuQu8oLMLZSlhHrxndYTS9HXyy6VkKaR5tFZg5RMiOLrsBsV3wnKyA7iTnC0NgQoTbGTWqMmk4TJtaQopbzlc/TY5PVd5pOWvswYL07nj8Rq6IbtidnQBdtuqAwpOvlRCHKTFvs1oC7STdVTCgtZ0naYABOit3V+e+oYxdSgZyaVFgPoyjRqNcS4Wt5FjUm0vbUpsNjwkc4kSSKnLAF1MAyf/1j3J1QRSckKNGRiqeymyiBWhhy5TEVK0B4mnXd5a424OaRqgmmU5/EosJbJ0Jj0naRLuRxjhia2tb5hrYZYVLpomxu7AuTcaP+R5X/3e3969rNeWCTPWiJAuQJyz4sOHigkKm8cdCexcqkc9F5I+eNxWnwABc3AZ8LR/p9jCgJVl1YJWFJBi6yTCTFneghiLlyppcDJxMQW5yq2Z3nJigVRfil5q14Pkj1LcTFRUEKib4c4MGEf2s40pfX6rsyvrkyprJtJJHbCt8LLQqhJAsCLyRwSvZlozcJ3lNe7uscCmFbNGQ91wQ+DqQTT4JqYKHWB1tb2tpsuzOzHvMcb6+fdxNne1vX7Yzu/vikg6blpBDOZYwJ4sQ2C4wBTUk4CXsTfBICM0UPwHuYXiazxdScEQLCThMfVcB/r6+valxObU9k6P5aONfKF5Ps/8+j5qMv4OUoEKFdAXvmSI4cy45m3DjrxZDG3qC1qzUcNKSatO0oRZLAP1AMwwey52NvhDEXshdaablICvBoCFI7DpzIe9qxSZL7jshXEAAhWw3FKnlfMHLqXewALoe1iCszapyIFPEwClrRKpWDHrzlkN9943I4d2meVQsbSdMMKeCZ9TJ2elFQKWs5ZZYb4E7X8JjATiHSbNRv22pZWOYHrB6bAaF9iSZiEMOj2xdGLabYutsJwg1y+6NOWbsnUwWw7c27DTp4668BAoB7mDoMmG009J/0Rvs9xdIXzLOjFgT1xHD0/XNvTH0B4BDSJGPlmCwKwkT3z9Ek9I6bgWBS76lgml9hYPbz6Xx76g6fW/AeK5FlLBChXQF70gv2r1su9ySbZQrk0i/Vg/WHNW/jhCJMmq6MCShL6TkL/iY/30eItcJrMsLGg90UKytE4JVWQzVcq+nGDjPKYAfRqoEweZi8AgvnQG4IDmNkGDx3abzfccI0tLs7Z4tKsHTxywK45fo3t37/Pp/4kyK1cLFhltmwrq0t26PgxO3TssB08esiWVpY8uxv+Ho5ZWV3WcTNiXSMpfUt1HTr40UNDrwxBeJhpqo4zLOq8tbXj/qCsyjl3fsu2a033yRQ9h2xGZQjQVD4gwbgn5uLBbOrqXACDcUweEatj6BWK4RzSPQa9RBPLpXO2vLzqvpizp895r5L2WmmmaLlSemscm/zc7/zx0+s880ievUSAcgXklmsP5BKDzBuz6exiOqPW1Ric15oaFUzxmZLJAy6IxgMsQpxgulEcnmr5aX4lHmfS7gY+i1QQucrYHECnlC8LONiP+cFAQK3bZEITwMQmbhoBZJXZku07sGp33nmbXX/DUSm+FFNs48C119ns0oqVShX3c2TSeTiKkS0+PzdnK4cPWXF+zqfKyApsktmMg8HyyoodueaYHT56xLIytVBrfB9QoK5Mqq4Ajm7ujq9j1hmMrIrPRvWji7vV7HjCplgqG0zGrrrWazXb9S7pIA8MAFoQcJFtDsDyIQbOhIYCEt2UzpnILBtjijnHS1guU7SlxT0Cvaxtbm7pnJEVZ7K2Z/+ibdY31lb3H/jAr//Wn0UxKM9RIkC5AnL3K2+gu/X16WTqyGRCZCytOK1rSgpEzlT8ASBK4BdAUIuApQQxJ3G11CgWI3Q5ZJbcIzJZOgINupObjY5HhDKPL+YQzADzaHXvqtjIIdvZ2bbKXMn27FmxheU527dv1WbmKzJF1OIn4za//5CPHpaGOnOIyWSoN9sCgKElZTosrO6xEayD+ogxxBMCDX3OZPM+D08yn/Z0BDCKxaVl23PgkHdvMy/PuhSaujDSWTej+zVrdXvOuvpauv2Rx41UGw3b3dlxVgXNSmdSVq7MCNxSqlPcgZQMbzATBEAJxwwlGJAIECezeoyByVjIl2T2xe38+Q2BXdJuufU61b8j4Jz941E6/t8+/PHPdrygSJ61RIByBeQbv/HJ7ua5yp1SjBeNxw0b9NvecjbbYhq5tIfP03VLhwcOWuGICAv+ARSEPCUkHAqcqnTnZsQOMA3wiTDEn1yv9PYQZcq4lWq9qha+qhIm9uKXvMSOX3fcTaRGu2HXXXut7d2/xyfkSklhM7mMpaT4ublFAYUYAroqhSR+Y7det88/+aTNr65YZXHBErmsjaiTGAig5ikYxKAAFR9tLPBheoy5xSUfTVyuzFq93rLN7Z0g8Ez8hbwqZIDr4VAWQJCTFmDp6Ds37rEnmYxAYeRTivJ9QDIlPRcAFXMqXLg/B2DVCUctFIwhCdSd8UozlTk7f3bbe5Ouu+GI3XDTESvP5SaZQv6X3/UDP/0rwa8TyXORCFCugDz0kE3uuGNhJZPKviUZG3vMyWBE6DzjSoai8XWZLUITKUfIUJCQobjpA8pIABTiK0g3gEJ5lKu+M1Bv3/59duDgAQHGXpuTeULvyKoYCVnh02rlAZCV1VVnDvSexJ0hkeRJZpVMHCYgV4XckduVaYUDFSVnxr+UysBkkf4b6SYBMXqJpMKWE9CQOwUHMmVSTjKZsWq17gC3KnbDfTx98hkHNnLTMsAPQKnVxaoENqRfGI+DoDZiZ3AkM/CQ8UfcOwADQwFYMXcQtgdd6mJVAhHvWtd+jivkM3bNsWN27bFbBJ6Lds/L77S9B5at3du1nd3tj33gVz/zkBcSyXOSCFCukNx603yzXet9/2Q4lsqkrVltSwlS+kUmlkwnPFI2AJSp+aPW3IPa9MnNH75LgXDaAj6wAwcc7WPEcb6ID0IglZaC57O2IEBhRDA9LlvbG9aQ4mIK0YVMusfRSIyiB2dI23giBqRypJqehIgh/lxnKNCYm5vzlAWYHeQhoTu6LdOkWa3Z7uamjVUeAEfYvI8dkilDDwvmCPP14ERdECBRzp997hFXfsAJs4ZrYgZhJs3NzoCW3kPFxO7FQvHCvTPgD4csZYZMLQRenNT4oJjKLBFPe9zNxAa2sjRjd975Qrvn7pfLBFsUY8qKtW3omr3J2tqZjzzw4T/5XS8gkuckEaBcIXnR3Qe7zd3Ot2Xj2fmZwoyJseMmsKEYinDhi7KzIZ6iQIBycUyPb/bPtMowDqYi5RiUXY2+zsGlO/HYEDo9+D4YSGF1AQYmkt9kIgbC0P9ed2i723UBTds2t3albPhfutbvjBx8trerasmrVizOSJFHdvrMOZkvdU/pCHshAVJ1t6YKMXdORkq76j6LwwcO27Fjx21e5s4c/g+xMB+fpPo//dRTVMp9RjiM0wIWYk0OHz7s3c4M3Mums2ImCR+USLwMwj16FPD0IQTPY/qsAFmelTF/kI4VGsqw0vlpO378mMpfsOrOtu6pamfPPWPz86VJq7v7y//1l//gD72wSJ6TRIByheS9732TtXfaLyqlizdn4lmLj8gLohZXWkC8CEpPEBaAwBKyEa30vzRFuhM6bmEoKbXqAAo9PPgXMGc8ZYD2TQQijL4lKC2tfTPFgo/DQbmZ54d0jQWSSKeyDgLpjMwfmSi1RlfmV992awSn6VoJwCBl27t16/cn3mty9Mh1dvDAUbv2+E12ww232rGbb7c9R68RYM3qOgItunyl/PWtHYurruRVWVmYtzjoqWt7ciltW1pZtf3799vM7KyAJU0mejEd5jLOeCwJgImZg6HHfRPu71OC8DAdTAQefNfBmFPkVSE1QiJOgJuYjp7H8Wuu8eC/6u6WPfrI52zt3GmZP5XJ8lLmg//qv3wymtf4KyARoFwh+c7vPBI7f6pzTy6Rf/GkZzaQucHAurg0KSazB2+oK8sFufjNW2IxAY+30Hc3hTAd0kkHB8LzGZwH+yBwjTUMJS+ljGEiaBnKHMGkgAlhQtAzRJa0JGaCvuOMBa9KxbKuQY8KG3SKFBkTZml+wQ7uPeiTm5MoethllPTEmqRXfOYZq21sWmN715458ZQ989QJ21o/b9XNDdve2JAZE7f5mRlblulRzOetWK6I0SxYLieg09XweRDaR/Il2BYRtn7fAkGuAfD64ED+9Czc7OFMQFeAgk8KBjQZ68HGBiojqWut2G233uYTqGdkUq6dWbO1s6dtebHcXFpMvu8n/9NDUR6Ur4B88TsbyeWU2I//wEv/frY7+3+kBlnrtsZWre9aP9kRzAcmgdTC6XtI5wPnowDH2Utg+iSl3IHJk/ZgLbLEAzNDMR6OG/RUnpCBdANZUhTAYPSrcw7ne2ImsZF4inEyaWcmKZkZZGRjRkCmtQCoEEAH24wkSzdff4OH5TMOiPlz+sOex5uQr7bWqNu5M2fdf8H4HUY0F8SWmPJUBo7PTZwWG1rdv5euIat3+j430BMnT9p5mVtARaddd/bkSaNUVxJDeRY71YmBhPhPqD+DAQNAwXciKiOWFsP3onuHnXSZ/TCXs5tuus2+4ZX3CGh1fqdjo17czp0+aXv35D5l80+99rbX/7eW32Qkz0kihnIF5d3vvnu2cb71jbFhPEtiIQK1+taRTghIRAi8xZ0utM5Eml5oA/QZhRKyAC18dRMhJVAg5YGnLJByOe3X+eQtwYdCzpMwZwk9IASKJVO6hlr+hJhRTPukvzLBtE+XGva7zhYGPembzKZSNmMH9q5qnbX6zq6dfeak7Yh5bJw/b+vnz9qpk6dsd3vbOo2mzz087jPxVs8TKTFV6L7VFXcQl2dK1ul17dzGuq2trwuICKPXsQJNph1lnh2fFB6wFKi0mvWLvTrORyQ8F33kORAZ6wF/eh44T+hxYp7oAaaezj9+9JhMtDndy1AgV1Ndt+zIsYPDcbL5L29740/9tpcXyXOWCFCuoNx19/y4utX45mF3vCjNk8IEuTxICYAy4TeRukhhxDmkaESEBhoklRI4iLx4xCcRpBxJAx2cMzbyygYyklIx8JDPJKsmT63MFpiKtsmqcKdnNiPFVZlJkIwBiiqXMUExEj4Nu5ZUnVLaXyROBaDRvoFa/6GO7bZbYhA1a9brYiN4l7XomjFdK5OKiwWs2E03Xm/7Duy1hMyNRqdpT595xtZ3t+1xmUONdtMmqgxZ9NcFMNcev0bmWToAP9WVDG19AFcgQV5YnwVQAMha/wtYxLR0LJnXeDY8P/Epn0wMgEll4rZ/37KVVfeEGE1f5lmzNbDifOHMpz//0fc9+PGno/l4vkISAcoVlE984pmdl9wx1+l1Onc3WrUCqR/HQgloPs5DxAf2hg3ydOFrwFYCEb8QQDDkH6csyBHEYwQHC3x8IfAryPHKAmug12SCb0RKiZngTk8tjAxmvmCOT+jiMJyJjgVASEWA+fTMyRO2uSlmIRbC6GGu485hKTWzHmYEUMvLiz5GaGlpTkretzPnztgTTz4hEHnSNnd3vNeIaUMK5bKuFffxP4Tvy8jzNJKYNXQnd8SuWloIhkN8AKCuF0jwHNwMBE+4VwEKXccAbm/Us7n5ii0vLNjG2prP5J5KZKwnAE+Wx5/61FO/829+7/e2g4Ijec4SAcoVlte/5fovDNtbX1irbU5ShUxlOByU+72+dEE/zQSoCGAkps8hhAAmMJOLyqQfkjOknIy8RSbSLsbsoGiwGsACZcP34pDjmwNfDWv6rAOnZ8CEPDkRvU5iGjhwGelLVy0LyY18ki2ZLESr+ppUkc4kyIsSZLln8CEjiE+fOWVPP/O0rUmhawIjnwNI1yFClijbbEEmjhgHeU4IsPOUkzKBSM8I6OA/CfLIAiLBc/D5np2hBPcIjvKkkAmTqI7FkBjPo2/4driXtdMbAlCCAJMWz/Yn67Wn/8PfvO+Tvzk9LZKvgIS/QSTPA/m+77t5trXW/vnUMP/aSUdKInDA9HE/iis+NF+K7oqF4gAM2qclkwimt8ikss5OcLIy3iclkCHilClNPccqzkyZDTAJlJL5gDk/LUDCqRmOZuYzV3E/zVR85K5wjG0OPJd8D+sRCuxiJKW+0APjyh33LGl9gQeZ+RkkyCyDy6t7bH5hyRKpjPf0ML/PxuZ5B6Pqbj0AmAE5YjF3YjLbyBkDLAZC2cH1dQ3VCWDUB4/pYSjDwvKCLEoBXqNl6UHGKjPp4exe+/Di/uI7v/PHPhY5Y7+CEjGU55H84R9udG+6sbjebYzfJtVOx52hBBLwiqBFDlvlScxVfrpXR2pbEJqPuUPbrH1SLCQoJ/iOD8VNA9Bgut9LBxi09rIBDS+bawXb+MzUHp7akfMBI5kfJFryZEuCDBy++Fe4Psfj6yG6ZiAQGeCXEXBNcBZznWQSEmazc/Myj1Z0ts7RJQGL7Z0tD5xrkgxb7IdrBuVpdUGCa8RhYnzSNVQpr3tG4Mr+wbg1Wd5TPHXq7OdEdM7389nE51P5zvsPHk//4/f8nd/ZopRIvnLyRT9PJFdefuIn3p577NNP/ovWZvuvpZxfBMyB2I8QRFyZ1SrDVkJ2wP5ULC2WkvHBhXFm7YNxTJmHmwTgiRRz3CNmBJMhSIrNPu+iVlnEsMBQGAKAeK/KFHRgPrFxkBHN84noeEwV1myDleBPoTcGAAjqIcVW/YYqjpHEgxHAghNVEChgwRxZWlqxSqUSXEtvJCYOXdGNRsN9J2znGlwfn4szLq9TwK68LJ4N3E3b8TthppVnMtaf7Jy459U3vmz01K7PCPg9//5hkCmSr5JEDOV5Jh/96KPDt33zbY2Nsxtvjk1ieaPVRcKmGRDxlloLDIPWWaAAl/EM8tM2gv0uvg5afhb2onDeKyIkIajNUzy6QuoQ/vMDA6AAJPCTDPrYNipdyusAISUntwqLz3SourB4T5Qukp72MvV1HHlnYSiYK5g43icVD1gK2dro1qUL2bO5dXtWb9Ss02l7Vnod7vWc6B6DBE1MDzLweyAHr9+P6qpb0G3iE5oCLAOQBE2Z9M4/v34p+Yn3/ORnBw8+vBYgYyRfNYkA5Xko3/vDt5/5wh8987LYJH4cBQcTAJEAVBxOXGmdqWgLSicV8v04b2nl2Yewz49B0Vj7N4T9AARgQvAcUES5AWiwLREmc/LrAkJBMBwgQcTsUJ+BMnw1SXpVkjAiBjgCbphDKlcLqRnBI5iJTwaf8oSSlpRZQq0oF+cviax3tjaNmQDb3WA+oJAhkTaSawMWyHiM2cV32E6wDWF/LE63+MhyudbH3/z65R99648/FvXiXCbBdI7keSbveMcvjPYdXv4/LG0nR3ExhFHPs7ERjcpkYDAST5gkhULI/cEnzCHAxJVKi7tvpYwXjkOhp0oZLjrZ9xGyHiORkhacpdJIBwP8HFkSQ5fLPiFZPCnmof0cQ/Y4mAbMCIAAXtxHojUYNBCoePeu6of5k0wDNsHxJF/iXObMgXEEvUWksTT/jJAmEtjz6Tn0CUZCjAvuYrrWh2JHHr3LsboXsG/g/hsdl+z24pnGv/umH3oyKDSSyyIRoDxP5YWvP/JwsZL+t/HkqJ/MxK3da/t2cpmQNwQRB3AAcdCQSoeAwYIih2DCmu/0sDD/b6DkySmIoPxTgNBnQvFZEnGysJEcOq2ySYYNeBBVmxOwlIJ90/3GMQKKi+ukMxJgwMFF2yYAFFAgMKEOyVTG6wF4kLKAFJAwFMwjwAEQod7hPbB8qdAbBDvBh0KPEscCMLFkbNIfd3/jTd/0yt+ZHhrJZZIIUJ6nAks5dPiaf9vo1f4olhw5O5Hm+GTq/rNBASShsqGAdNA6U7mwXYAjrWYdKiQmhh8HEKHslEXT7gsgIzCRsuvDhe8sslN88RkLGfeTZuxP8J3BhPrP1/5Zx5PtzQQ4k0Ra1xHTcCAJnLzDQZD/FWbSl6nj2wA8rX1isaHuRZ8dFFVDllACriLWMhmqfGYLGPq5jDtyEBJL6w1725XZyr99/Xd/dNdPiuSySQQoz2P5O//sVxsHj+79581eozVRw4/TkqAwuoVdyWSukC+VJfwp3YxBtC80ay4sMBCBEpnMhuNAUUUkCANzlcW/4aaJAANGwXEpAUMqm7e0TJNkJqttmESYQgGTwYQBjNgmY8zXABU5Zic6FjDhWu6UFRJ4aJ3qAsCxpj6YRHzHbGLBHJJF90Xs5NLFt/s965kIgNiGONvSWkd98lXv+M6PcRnfEcllkwhQnuey/6Y9H8kXsj+LrsWSCWO6CvwoMA+pkCtlKCgn/pSprgXKJ50KFu2b+j086XQIBKzxe/i5eh0ACylmMk33M2kUA8YCoKQFLIxEvshaAvOGcoPyZXrAilSvruhIb8jMgoCJ9qlSACFdv5gl+EBYqD9dzd0ePUWAQWAWOXj46xkslO3LdB8SgpEDEvesdTKdqi2tLv30O95xf+SIvQISAcrzXH7sxz7Wuv1Ft/3DwbD3SDwZ94nVUUp8migWSurs4xJgCRXOAQUz4JLFt2vx/CeYLioLtjFGMVUG68CfEjhnASdXbm13hjN1rrJ4nAkRr9rOPkp31iPtBhxGMKhYAFwAWFhHL0/LUGYPC58Bh4v7oRaAR3AfX3p/vLbOUrROej25VmDyqaCHD1xzwyPTAyO5zBIBylUgf+v+B7fmluf+9nA42IHiwxgwDWAFAUvB5AiAgqAvlNRlahKNxBLoFQJPWAKFDY4PW3iUnh4a76XRVwcPgQXrkAEAGMF2wAhACRd8LcGxJK7meHwsOF6DHCuwmcBPAzAAHqVi3u/AY0r03XuAdB7dw4BDCCahhKByAVx0rIPKFJxCQBqOh2cXLFGfnhbJZZYIUK4Sue3mG37XEv1fKs1kJu1OqC8XW3VXd5yYUjKPLEXhtCtUuJChBN+D7uRLFdIXXgcHp4SDRlKgkEnnfE13cWBiBAmdyNDvLGdqwgA+rtRTACJYDRON8Bjq6KCh70yJQU/V6uqqDwT0GJvp9TF9how3krjjeAp84T2yDpYgmxv34eAjEKT7OZ3JTHrjfuuQHZoiaiSXW/RzR3I1yIceerT/Iz/ymk+deOzED8jQSY2FFnEpN/lI6DJNS8GkajYeEC0KKOCLgIWgcNJxBtCpHG9BYuI2npBICqudRKBSlvfaSPHJM6KD9C8AGAS/C+NjCPHXSTZiAh2AQMyHpNXOLGTnoPukkuRqpEcgAz4Lk7ET6p/LZux1r32NdTsdj46lfhzP6GnmFRLUOethTh9VyqsBUDo6ekQsa4AE4BlbKp1xp2/Me57i48WV0q9///s+8HGvdCSXXfz9iuTqkO/6oV/cHIybZ8l9EpdiBw5KNC4uYAlMGpskrS8Tp9VhuL+AQYAwlAnUI+/JlLU4ExAg4IdBABMfUChxp6q203VLHlm6dUlqhGnCd8oKzCeYEKbUxeA5lmA7sDASI+H1Yl/wGXZC3Mmf/umf+nid8Phw/E8mn/P7YZrU4DpBBWFboUkTnuPlgi2qN2YV696gP2m1G5Ez9gpKBChXmZQq809ncnlRfCb2ggmkpWQpAUBMCqj1OCXFivncwe1e39pSVB9LI4DoAxLTNQP12D7UZ4/5mC4TmRx04MJ8SBPAtBt9z3PS9xgYolkdkKTwgADleBc0QCImwWfAC8AgRqQnQCLPLCOHAZMiSa/Fdrp90hsw5ofeo5xna2u1u9bpMmPi1JTzEcssf57E3dxyM0yfARoBXKzdboep6iK5AhIBytUm8eR6LJH23g1nFTg7E0kps5iIlHAkM4WxNihrrdmxRrMlJZdy6rguk6cLZIYjfBNBT4mDjAAAcAAkEBQ1UNAg6IwFYOn1Og4mAAzHAhgwGALSYAs4ZDGXABb8J5zH8XQPZwt5S+eyli8WPZ4mdPpiGuG0nZtf8CA5HM7MHMg5HvWqMmP4fAhkk+A/oX4Ifhwc09Qdx7Nnq4v7DOmRXCGJAOUqk9EoeQ6W4T0ybMCr6fR/6Ms4ObBxQkABU+iT9Z3PAE3CBtJ6mEuz27edat12dmu2vVvVsqvvVdut1ZxJkDbA0xwIUFh7OkiYixb8Is5ePHkS4e6ExWHi0MMTLP5ZwIJjlpiSWr0pYGu7+ZWS2dNqd2xre0fAMrYdXevs+oadOHnKGQoxLATvBbdGSfhlQmesFoEGfh7ABAEU2c4ac6mYr0Tv9BWU6OFfZTKJJ/qFQkmfcKxiFcBGAjPF/3BWJkmv2A8Yg35igsba3aH7WXqDiSs3YBTEicAUiCvJXGAElE0aR2ciAg/YgfeowFjIe0sulbG2AyawB8wdBxsYi0whARBAsrNT9fKYCfDAgQM+vcaZs2fdDCKeBvBgtsCFpUW//uzcgvtPYDWwG8pFsGpYgrrpGQisYClD9+ngxGUaVvcVjQvFQs0PiuSKSAQoV5nQS9JuNy0Zj3lGeXpORn0STg8EFgKBYUfsRYaEzAnpmvsqmq2u2EfTdsQU6vgpBmNrCWBa3Z51xFbI7QoYwBhIBB2M/O3YQOWOASaVPRIzYfEpMbQE4IK5E/hZOKfTafkAv3ChlwifyKOf/4I9/sST1hQz4ZprYiR79u63RkvXECisra3brhgTaQ3wyeC8xTeS8p6oAEjCJRQGOobmGOL7yQo1iQe2USRXRCJAucqkPxi0szkm5zJL44eAm5AvltYa8wZnp5TSu1PFSNoCEJS43mrathgDvT9Erba1ral9ruRa891BodfX8cFE5L44cFAm3wETsRa6dzGFABp9hsl0e20/jzwmLF2VQ0JqAINemk5/YFs7u3rjYnbDTTfZCebzqe7a4aNHnJW0Wi03t8IUBtlM4EMBWGAk4YIAHvhNKBczZ6D7Zxfz92h7lJHtCkrg3YrkqpE7b1m6dTKYfFNc7INOENpl6P6Y8TIT4jmSNh7Gpfw4VYNIVCbQ6knBXR1lJ2FKDGEj2qaT3dchdRW4tPw4HSDmE0z4RTa3sdjAQEqPD4V4Enp/yN9KIiTAAEcsE3WRSKnZImUjCZXGKq8t4CNOZCRg69mho0cd6B574glr63iy529ubjpQkE2fScnKpaKuG7ecAAWXLUjhaSlVb0CDlJMAHUCDMzgeSweBdwCPYG52Mf9rn3741B/7w4rkskvEUK4yGYsS+Lg+aZdU3ZL6PykgSbCMRfoFLEIVgQpBZXGf1xfTBL9EOJePdxmLyWDiwEiqYge1hswVtfQ4fLtDJtcaymwRixGjgTWg9HQWeaoAKT4mDeYGvpqGgAhw2Nnd9R4emEld5Q1GYg+6RipTsKXVPQ4ejz3xuDMMygMEKGd3Z8fn3uky54/qglnFTIYhI2Ht13dfTeBboU7M3+zAIhOOtcqNFTL5op8UyRWRCFCuMpE6NVEq0hwm43SVMnEVWd6DWQDpNWXBHct3JiZPYRrFaL8Z1YvfpKu9UlC1+qQVaGtbQ+DR6g19qWN+yBRqSMnbAhQcqF2xEw920yKMEFAMHWBkcfhnESL3xRAjg5O31myBa3Z27bxH4G5ubbvTtVgo+9QY9CTBNHDqUr+Zcskq5aLlsxmbKZXFhnQRCgBUABNdwJcRX/GtTLuUtQAw3p0toKszJWAkV0wiQLnKpFCa7ag1HvnoX2IytMaXwnzmLJnkRN/HPjF6TMwkKVApFwtWzGe9dYcR0Lo3Wx1fWmIoBKIBLG4GSclJPVCXiYLjticF1m4xlpE1uzJxxF7osqZbGjNnt9awnWrTdusNk+1hM7OLdujIcZlSSbGUjmWyRS15Zzuf+xyDgGO2uLhoS0tL7n/ZEdC0m3W9iGOffjSjeo9hUwKJcKHeITNBABEYCX4XEI2xQfT6yFwaZ9IpVSSSKyWRD+Uqkxffde2xQXt4b2w0JvzMw1DUbmuPlhjxKGIoYi4yAIIWnCAzmAScBQXVd/pFOIMWHRCBZeBvgb0wfzCMA/rhMxQSW4JZof1kRRsTdq/SOjKJCPEniRKBdg5MOo34FsynWq1lxXLFHauPPfmETK+sdx/36BESEO3sbFujXhfY5W1udkZVZyjAwDKy5+jJ4jN19z9nJWr7SBqluvhk8OmEm1eJeFrXT6jeTOPaH+YL8Y/8/h+fiXwoV0giQLnK5Ibj+49KwwQok1QcBRNToOXGqSpcgABM/xv7oDy6bocCDvYmM0HaRiwJ1oDIENNF3wEbuowZ6AeQME8yfpQgmZPMJR0DoPR6A/e79PC1CHyaYjLNrkyNVleXSllfBzK1KBntYRElgcpAx80vztux48esJbC5447bZOYkbMiUpWJYGdEo5k9Oa60aa3tPJhooGIBa4EvBRyLTDfNN55CMOp3J6K4Y1RyME0qmJqND1+z50G/+9mMRoFwhiQDlKpM7bz9yJBVLvV02RyYAlJhNRjIYoBn0ixCO75Ys5hBnBOyEXK+YBbTm+s+7WumdcUctTEbbUwIBJt5iTcAbbMV7cQQoBJDRE0O3M13MgEtMJg6RuDhzARPiWwAaIl2vv+4Gq8kMIqR+MBx4mWtrZ62pbcSrNBp19+kUMlnL6pppgUSS2QcpV7cCeAAkPk0G9WM0tBavK7cqNpYSQE7GYircoTaORt1+pZj8wG995uTngzuP5HJL5EO5yqRQnpPextS0BzEadBm7aSMw4TPdqCkpd5quIDEQzKKCTIhiTuwEkJGS5mUulHJZq8jcKObzzhaYtwfBV0E8iSeVVqm4d/Gr1PGXNNpWFRNp0DPUbE99LR2ZOI3AudtuOwi0Wg17+OGHbXtryz7/6OecfTAeZ65csoP791hd5s6g07ZcSixGdaJ3h54j4mmG0y7h4NUMXs/AZ6I1ppwAhmswD9CwC7sa6X4JxY9ZrpCZNDudyCl7BSUClKtMBpP0MJ7IDGmxvadGag92pFNBCy+I0VFSsIkYByaCFD0hkGDkSymVtHxiYunJwEqZmFUySStnZC5IURNjsQiVl9UxpUJOLT8BpzKlxBzwyOB3GcBaVH5vHPdla7fmLIfQ92637cre77ZsPOhafDL0XqiewKXbqNpIoHHNwQM21PeYzBVd3pIys2IyuZgOFZAQ/smkkSmmsrVL2+gYx13LZ2rAnEQwL5iZGMskmKx1Mu7rRObjEevSMZFcOYkA5SoTMQifFNBZiRbMGlrvRJLh/Pqulpr4E5yhTDPqcxfjvNQizLGc9hXTKctKMdMyG7KphM2IqcwUCzI94m56sMQEOj4wj9B+gc2lPS0s4bgfN0t0jIq1jC6QUxmAUk7mCOu9y0sevt/vNO2xRz5n7UbNsjo4JhAI5lcWM6KM6f2Fr6RDo8pPxgIm5mwMhqLDWZJTs00UxZIpAInI2QFDJLNeQCRXRCJAucpk3O/HSFaUEFD4ROhSONaBWcC2AGBc+QQMAeCgkMF20gLgwAzTA+QFLuV8zkoOKPhP6IKmpyXlS1YsJiMTKaPjczovn836wneOw5xJqmA+cz5LTmVmEij+0PK5jAAkAJh6bdeGfSJxA/MKhzKDG+MCOwcKABIA9PsK7ocFkwz/j4OKtgcnC0hUro/70bl0S4/HsUQum68EB0RyJSQClKtMGMMzonckaMNd8TwvioTJ02U4OGPAuYmQx5X0kAS4YRI54EgZU9oOUyCGhe0pgU9OhQMegEoRv4sAhaUgUClkk1bMpayUT/s6O2UjbGfJC0H4DkDldLyKEyMKYkpy2bTXoSjgwmdC/bz+AoggrD5YAEbAKfgegEsIIgCkr7X4eQIYeoU8xYIYUzGX13WysUajkfIbj+SKSAQoV5kkrZ8qiDoACu6QDWDFW2lXOAFKXKaMrB1nJw4igIpac4+adUWnnJFYBIBCVy3m0FiAIoCg1ffvMomkuIACXbkcw5IADFikxBntz4upFGAlMBSVRUAdCwwlL+AhapdrDTods+FgymbITQuYqI4hG1HNA8CYaFsAGvonwYMC2wkWAIhzdJizrBBk0qrDZDgZp2Lppp8QyRWRCFCuMslnM5lOs5YlND0AkbB3B3+JlAzGIeDIiimgcLTkrrhaMB1gCvg6mK0YtsNnBwExE5hFBtBB6R1siLwlElfnijEkBTr0FGGiJAAtLRwL2wGYWPM9A7hkxGL0nRgTmFNG18WxCquARQGIgAgSggIgEYjKVn3ZFjCwYAlBBrCkLFI4UM9UgiTYI+u0O7HZmZnIh3IFJQKUq0xuufZoLJtJu9mAM9NjUWi9pwoXOGW1TM0b1Jc1gIApE+wLgCVkKyg+zCSn8zFl3HzRkpepcmHRNQu5jK9xtgIUlJcAGLToo7OhYOwQ1wAuAraEs7dQyPlARRyoAAZMxBeBg68xafzzFDw4RtsAEGcz0yUAFX3WPYSOYrZnUzKrEqn47mY1Ghx4BSUClKtMiGAlwhTHJj0sLKFILwUwfA/MBIK/fCUFRQEBFnfgan9OgIKfI0b3rm+XAtswMH0EJjAY4YK3/pgogR9mutaSwzGr7yi8O1X1wZ3EWjsowGJUMMCQZsQzCZq8l2jojlS/uJaQeRBSH4IFCwIDC8v8Yqcs3VyBWUc0MLErxLEkhZbNdqfgJ0dyRSQClKtMarvb4gfxFEACNCABqOh72MLrO+BCt7GzCP3KHtGhjW76TNlKACSABn4NmScwFyltSlQBnwT+DhgIjAOTBfZBwBy9KwhXZwl9IM4gtObaKDzMA2zAxAEd0lkmWFclARIYzHQhyJdjWMbT8zymRmu/T8qbCj1DBKwAYuE0HdQvJqYWnyQS6WRm8d5779VFIrkSEgHKVSaba+vpjDQTx2UAJIzjkTLq84WFgX1EhknCFt+Bxlv3AATY7wAjEICJ4I8IF757d7CAA4YCOwAkwvJxBfui7WH3MwvffYGZ6M3ya19ixoRCGeE5l557aT3HQ5lLukZS2/0YCpyei3B8EAk8ZTiUz2iAWHzfSroRsZQrJBGgXGWyvdMo9TsD/91oyR1QwjXKRmwHX6dOWxTOu2MBjhAIUELtI8oU5uH+FpXoDEQLgIJZ4zEl2Yyv0+JFKDXMhn1hVzNOUfenTMvwcmAxXFOfUfYALFB8QIjvgFzwPdwfLpwT+k5YfFIz+IYzkAAc/VjtI3k2+0L/Cm6l2Dhx3f7VyqLOiOQKiH6WSK4mkQ4dSIgC0CK7qSCFQvFQQkDFR+RKy2jVvdW+RPgebkMxQ3YQtvAXFFsMg4AzwuJNS7ieiNWQAhL2AOh4lzQgoCUwT4iBCYCOMi6UxzHTa4WLH6cFFgIYeFSvFhgRa/wzAB7H0KMFWFJHBxTqx71wvr6zz8GTe58k9xXLczN+k5FcdokA5SqTTnv0MrqJGVUMNngPyXRBpL5iByhtWopMjBcKB4gAGpwzVcZLlkCmvgtRBHpxgh4hKbqDRuBz8SA4HU5wGn4XUg8ALHzHCesUQQvgAjCE4OCKPv2LqS4sF7ZwvhYm6WKhTI99EQvSaQHrklBPwIOyQ4c0VfdBjYCfyhTQUmJxOBh8o/ZrbySXWyJAuYrkvW98QX5hYfWFva4USNqEykxiYg1xLVJqdCgEj0tTJF4EjUDC7yhl6GsJBaXFL0LkaSGX9ohZRiv7kkl7JGwGwJHywyBQfhy6Hv+i7wBOyDicTQAmAIGYiIfcAwZiHJhFnI9pxJhjlqTqzuLYyLESN8+0wIL8ni/UOWAslwIOQJqIJePtWuu9v/1r/+rlEahcfsE6jeQqkLe/7sXHup3J38slsy/H60pWtsmYkfqE2AdKOhoKVkZSQBiMGAPmj7faUlypnBQR0AkAhFHEgJAOcooAJJFkic+AgQrnjCkg6BgpLiYP13ITRgBC+Z4UCTNG2wAO/CxE5lIGSg4gIJgk9AZ5eSj/FCC8h4hqsHCgruNr3wiUBPXzrQ4eLHpxASktAEpC14vrPjmGxFG6SLlcLr5m3Dm385ZXHXnyv/3Sp6KUBpdJIkB5nssbxUruuvm6Nz386T/4F9cdvvab02qCpT8SIICh+oGiB4AyDXaT7o0YdOfKHfSghC17CCjeXYvyotCumCptSHk4VoEBgQnny/TADNFXL5v0izho4Q3QW+Ji0mItAAR1Abw4BrUHLC6AxhQAPHR+Wh/Eu4FZ+//Bmn0AhE4WAwMIA7BzH42+u19G5SAcm04F02gwfUdKpt4kNopl0qnK7bff/MqF5X0L97zk8B/8/C//TsdPiOSrKuHvGMnzSO699xXFTj92V6c9fEN7e+fberXq0l233paeyWViBLURJBZouFgEAIGiCQxIUYAJgXKRnR5kQfn4jiISWAZosLA9TEdwEWwABEBIi/CBqNZ0MuPH0mvEeUzcxXkACsInhMxvzL9DZjfP5ubMaHqMviMOLjqea4V1urAOcMXrwBIjGG66LRTfzrEJGItawykwUX6ukNe1R5bN5y0hELzljpvs1ttvsVwxPyrmc7//2Uf+5H1rG2c+9e3f/9NnVMaXlBzJV0oihvI8kze88eV37lb7/6hZn/w9Ycc3jHvDymyhkNyzMB9jTI0JTMI8IhCHQEkDtkDsSAKQ0WfyrNLKhwobCgoYrsPlUuF4unUDlcWICPwUbPFF5hRsZCyA8VInsQvTgjL5l0e8sn9a7KXle1209vJCIJmuMYVYe111fXxA+nLhvAsiLPDjdY3wXP8uJka5mGKVUsFuveVmW15cpJ7x4WC0b+/KgW+69pqbX7z2+B9UZ/b/4uMPPeQ3GMlXWCJAeX5I7K1v/YYX7dm39x9tru/+025ncvtgMM5hyqQEEIf377FSLmWx0UBkpC8lwSWAsgMqUiYploMLyqsFtoBSc0y4YNIwAyALnwPT5+L+cHEdltK6GcU5Ag4UlcF3mFGYVYS5B5fiWpAXyg6OowBAJUwu7dskQAl1DeVSMGBhP8JnytB/uvMAPIJtlB3s59xLTR7fxnEcoO979qzYvn0rzt4YtBifyHAajdOdVutgPpt/x+3H3n7b3bccjd16/dLwZa97x85DDz0UVDKS5ywRoFxhee9735vat2/+TWvruz/V69hrOq1RKpXMMquEZGwJsZFjB/dZSmbNeNCTwmBkBGCATuEYhcGjkN4ly2ko4iUKd+mCuIJesv5SAUgYI6OipbiBDybwkWifEOSCmaQFY8YTXbPWdTFT2K/CL1wzUHhYRwAiSMg6LtTF/w+E0igyKHUq0wM4niU0d5Cw3HB97OgRO7B/r8BvaHFVCD9SKZenorFOsxXLZbLXHTtyzZtvvfnWV5cTnVu+8ZW3Vvddu7r5qU8/OrrfS4zk2cqf/0ZF8tUX6dkb3/T62zudzt8ajZLftrW5K5KRsUw675OGx1NjgcTA0uO+3X3bLVaIDyw+6Fhs3BNwMOMeygSwBEpEA+4qKoXHeRm/pKkIFS8UjmemPQTlDxckAAGZMzqf47wrWAoJwDgICEE4tt8b2MBNnQBYEAcULdqsY5N+3AVA0bmhwiMhIIS+k1DYz4yETrmm38NzKC/8zpQgQZ0v+mMokzFIL33xXbZnecGyJHZKpixJKgeZf4mp8zaRSslMU91kHvXFuNa3t1g/cer0mZ8rzZY/PHf97MMvfOH3RD1Dz0IihnIF5Nu//U3LxZ8ofl+vM/6nvZ7dPRrFEv3exFrNrpQkUDyppXQFR+vEZgo5K2Uz5iOCMXeksZ4FQHrmpguLvqB2MSmif3JFvchKwnWofOH3UEJFZeE8TJnA5Akct4gDAH8qw5mJtjMBmDtduS7nBrbXtKzgWuE1w88oPot/p7ZaI+FxbPP9l5x3qXAcJh3AiVAv+qU4qlwq2b69Kx43Q9Adz6ZULLlTeTDoCyCD3CnZNGks0wJos4W5eZsMh/PlQvGeRz77udd+/g8fe/EP/uV3nfmWF9yz8QsPPRRcJJIvSyJAuYxy7733FvftW33dxsbuf0gm89/R7Q7nxqO4TPy4gwk9JOl0xjqddhBeLrUlc1ps1LeFmZIDCmYPM9EEEaOACZofwIkrHz+pFDlQtgA0QqaAXAosLHwPF84PPyfVivvYm6lSQxu02dkIJdCjApCMdB0Hv+n1ARTK5TvX900ONvo6/U6/N8qODygAHw7XWqf5+J5gJ5WlVP/o//N9Wr6bfXynMgJYnLGcu7S4YMuL82IkMctlUjZgRkHqOhxYPpfzZSSg7nf7VpypeIpKEkDNVMo2NzsXX5ybmznxxJM3njl58t2lhdKxb33D3Y3Xv/09px988MEAVSP5X0oEKJdB7r33NZXFxaVXnT595l/EYunvHw5iR3rdofSJVjZm3W5PygmdD7pYaZ0HI/wlY2covU7TVhfm1bpKsQQuBI+5y1L7naFIHEwAErRS5zCojvJcyS+R4DiZDPhIpvtCBoIAJnx3Z6wr7RSQRFnoNg66jmXuDJhRkGMAhODarNHvQILrfClwXWAn06MQtiPh8chFR+/Fe/DrCDQ4380yfReO+DonICZad8/qihjHjI4xT+hEbt1CoeBgw4RlsJRUImWlSsma1bplxGRIj9nr9BzomAf6lhtvsqMHjya3NjZu/Y2P/+brkv3d27//e9/zzA23H68/9NAfRKbQ/0K++G2L5Csqr33tawvx1OCVtd3mD3Xao5dnM4VMKpkTgATJhkIlQ3GYwJwFxST0nZbfu4n7bUsPe3b90f12ZM+ijTo1sRa1yFqGanU511vseEplATMyKVBmYzBf6Gu5qJThNQEUhO2UQX1CwBjqvAAILp6nQ/yYQMkp4+I+xI0h6gH7ADCkvBfPnSq/toeAEV43LC/chvCd7cHxQT3xebCfxa8zPT8r0PAy9bzy+ZzdcsstYholy+VTHnDHIEOeKWVls3lP7hRjPmadn8nknIlxvcHUdPO66DlmkhmZczH77T/4Q3vwYx+37Nx8+5qbb/qNRL7w67Vu5+M/8iP/2+NU1SsXyQW5+EZE8hWTN7z7DeXdJ9e/MR5P/WA8nrl+OJjMSvdjqVRWFoFaQyYlH3T95UWHME9o9Xv9jn6QwAlK208SoRR0ftyzPXMlO7pv1UpZnSCQScX18nvoPYoWmjkUNmUeE+3DHJkqK8J2vrOgYKHwHWUKF7qWmYg8BJTgvODcEAQI4w/FFXzaG8RnnKqXAgrnsT3cH9YhBBOWLxXqEZwTJLH3OmhhG4tv0/35MfrKlvnZit14441WLhctnQ8ieIOscpyTcKBmUjLq4Y5mPqcCwBKeXGBfw77MRS2lYsXWqw1bb7Ttw5/8XTuzXbVhMt07dsN1ZzO53CO9Qfu/68yP9fvp7fvvv/8izfs6lsjk+QrKfffdFxe9flFtrfkPB8PEj8s8PzIaxXPxWCYWj2fptdRLG0SU9onlwCMIdY+jVJgQ+D20je2Mx3G+gTLqPBVGAmlsfY51IEHpp6YGf1JhNwm0SdvoXg4V9aJys+LzpX6NcAkV25UXQEBNVWfv8p0uF0rUh6CcAChSUkwPiKN8jtIteN0oRRtD3wcL5wEmF+sUrBHAyI/X4sFu2qYV//tn9gVLwLLwobCbxFBLCwu2MD8vIIkbeXfZHtZvwhfK1nFeT/fTUGIA6jiAMaMwifrdjg07Xdva3PL5mxOpnLUHE/vCE89Yuz1Knju7PdvuDK/NZMvfqhLvGY1alXe/+3VPPPjgQ20V+HUtEaB8BQQg2bNnz7Ennzzxt/u9yT8eT5J3xSyZpksVxiCmIgWVDT+cmhYEqAkU/EXW+TEBSNBiXzQpUAQXveREwPbFXqTyNlMuG9nlOV+6IQGUAKKp4rJwPrsklMW2cB0uKNml35Ev/Y7wOQQChDpcCjyhwrLmO/t8v4Doi8qZ7g8lBJQL5U7L5Ka4j0sjZ/2s6bnh9VB+uoQx8sIUlqvLiw64noRbgHKpf8mfjT57N7iYS1BaANYAjMfZMGob9iWmMhGL7PrE8APrq5jBOGn9oa6TK9vmdsNq9bZVq03b3t7e/9RTT79ifWPrm2677dj45puPrl933e2tRx99dHpDX18SAcpzlLe+9dXzJ0+e+M5arfVT7dbwTb3epCTgiPX7QZwG7Tz+kCHmhNa03iRqDpyKMBG9d+gUOjhVRswLNyHEUgZ6uUNF5EVnegxm48NBG3TecjxMRT+mgwTl8F1KpL2steGCQl26ZvHBel+yhPtY0IovUnwUDvtAO/x4KfKF+mkf10LwW3BOeB5XpTwqGIKmg8X03AsyBRRnYQ4IwbVjAgLWxJlks1kbieFhwlBD6kFmORyylVLZMp4PN7hPgCnIy0IZqq/Ag+M97+4UTFgH4j+CrhMwHh+gCEPJ5WycyNpOs2WpTEGgUrRGq20tAU6n29dvNEqOxrGVVrv7zRvb26+axEflG6478uTjjz/dmhb8dSMRoDwLecV9r0jee8+bD89VSu/c3Kr928Eg/u1iyit6tWNJ2fy8+I1205XGlUHva9Ai62QpyZDBfQKSoAUFcjgGxdMBpGAToPARBRjjJ9BnxtDQ9UkR2QwjfoMBfCSRRqlQQpTDT9S1XIG07UsVNvweMgK+U8egnhc/X1D4S/YhAeCxbwoYDmIAQLg9uCZpEy5lLuHit3jJsWGZF0TbdIY26nn59+D8AFtiDig4VocCFNiJri6AMJutlGxladEK+Zz2T4FG58Ji3HcyBSTKpuv7AnhOvztQcs1pvdzEE5ikBCbJbMEnit+utWygK6YzeUul89bGia7v/YFMpf7QKrPzsUQ8t6qPr6jWuu88fv21h268+fqdu775rupnP/XZr4veoQhQ/oLy+je96sbWF7o//PgjJ+/rdGPvskl2JR5PpxrNjvdw9AUWnZ7AxGNGxUikFbyc0hApjl5a/TEmBmUIYkUCEIjFGAwXgInrlwMOk1kFvRCc72XIXCIuPytAAUySSRQQJZBySWlCUPFWWBcPl0uV9tLtf95yKaCETCVcUL7guABQ9OnCPldabfdrqxrup9E6XPx7eB/86XmEoMqiIvxxcMyFMrkf/aM+AGsmnRUbEWMgFaWeY1pgQUTs3j2rU/+JGIWK8fy3MBP9Jj4TIWXCOrQPdKKOupBf08c3sXANv7Y5oyzNzFksJTaYL9gTJ56xscCpJeaZFKC0BCbVWl2ASv6VwMGbyZUsp6XbGSYWF1Yr8Vjqrq3tnbfU16vHrr3+8NkTTz6zxuW/liUClP//EvuWd79s9bY7X/CKfKn8vw17yX86HqZfaeP0cjZTTAzVOvX7Iw/nzshuh30Q1o7S0WNAbwgvMjrDCxsq6gXFmuq5MxTARBhDty3jc0ZSGhSIlx3/C7lHxmIpg0FP28k2jzNUSqxy6FUh9iSJErrWTBVY5Qaj9VUHgVjAhOjBgVlc3B7UIzAx/JNACwnAI1gQlFxf9G96EQn7YCMhI3FAok6XnIeEn3kG4Tr8zD4/j0O0DXbBd7K6wYI8NWQq6ROGlUsFG+PU1nNh8rFyMW8H9u212Zly8EILMNJSdEAF5+1ozDAD4nt0DeJzABZdB/BzHqQqUA0dfqGOuVze+jLtEtminTm/aee2GrZd78r0ScvcwdTpCUfSHoQ4EsjTu7QqUKtUZlRO0pqNrupaiu1dWS2IJd066PffdcONh2+88eZDjePHVjcfe+x0MPbha0wiQPlfyHf8ze8oLM0tfV91a/APtrfaPxobpe+YjJMZBoH01FIN6QnRy07WeQLTAt2IOwMZD4jeTOql1X4dx86w1XV6rWP0+rpCBcobKGAwuIXWUixGn91U8j8dMUIBAyjC4ZtVS53JZN3RG9dxZKPPJHTOkHgWAQaKg5KqLPiS9vi54kiBqQImoFmqP9vZrxO9B4TNzqi85Q7q58A4rQtY5GYDiq9z6MECPP1WdYSXxXGUN138XnXbHEeRlBQ4a4OFLSpNZcqskFIGvUQUSBIlssKZ7V1ZEaDkrNOsCzDGVpKJc2DfqkfHMgWqO7YHQw9eoyYgdELPJJ7keeqicdbcn66kY7RHxwFYek7aDUg5e9GVxxMBQ29sJ8/t2PqOGGi6zOgqlUGMS1rHCvDFEIsCuaNHDlmpWLCUzC1MLALtimI2LJlUTpdMZnqd8S3NRuet43Hsuptuu6b62OdPnNSFvqYkApQvkZ/4iR/JffO7vunWRCL/vetP1X62We9+q03Sh2OTVHI0RMtQUN7xQFlRFFckvYgOCHpFhwITBxG9lJdKqFQsHBoqWrgECst5ssnRPL3hrnTaIjXza3rvh1pt7P24qIhPdi5riVDzlAAoKU2nLP2nBcUIrhdABnLx+kigyEFdAxNE3/QfqhxKeJ++qA78wXDYfmHf9PuF41Qs6y+VADyCZE/TDcF6Kl6mtrmZontBOWFijntS4Gwm6Wv2VUpFD7UnMpapPswD/vRMmFdZQEu3ciKpe9FbHgNUVCZ/XNN73gBnficHNyBQz5RnozoA2PFUzraqbTu3WbdGX79rLC0TKOuTlVEW9RoP+rZvz7LNz89atpCxdqslwCsL4FZsRmwFxpLLZd0kwr+mO8wkEukbJ5PEO29/wfU333LH8XPXHb/13NdKr9D/+xf/OpUPve99mT888fnX/9GpJ75to9Z4aWyU2y/rQu83gWIJ6/eCKFJ/9VAqvVBIqBz03ATRpxMPXCPkO5RAgS+ew3feYlf06cI+lInPlMW18MEQmAGY4Hyk+YekM19wfNxT65yypUrelmeyNpOXOcDE5wkcsnrRXUm0phTVJbimitAOvofXk3ZIgVQHXYd5blhzXRQzPMfXDpB85v5Vj7CuweZghLDEO4C0ndbb7xc2oGOpC+L7tPRxME+fRyAXwUgl+4vJvD/02OBH4b5hWovzc97LhfkzUy5KkeedIXhZMhHJ9g97CH436qmCABVuVf8RKBcE4ZERTucQCIiNqGcKcxMuCzTS1p9kbBwv2CMnztozGzXrWs4Giawl0kXPSNfrMJBzZJ1G3Q4c2GcZgUan37PNrR1bXF6xXEbH9wLTF9M1DFysNapusmKGdbo1VWpwSpf/j/nZ1M/+g7/1k6f9UVzFcukv+nUnxI8sZOzYbG7+FY89ceK7/+TRz7+oo3errR+fFzIACt5TxoCgALz0QepEXpTQz4CCSKUcUHivLwWUUIFcUfztDrcFSh4uiCuFhO/etazyUfDwR3JrSBocm6h+saHYydiBZHW2KFDJWTmbsrzMnjTNOcfxMot1UF8krDODEPns10PZtQ6uiYkTAF0YhRruC+fGCcGUxY+fAgpJr9kPoDiAqf7uU1Er7s9FgMJ2gNLrQx0lYfnacKFcgIApO1Buzg1mM5xISdNiJPPOTIg7KRRzNiM2wNzJfh6god+H61IfgAI/SujfCZbgWK7nvT3aBtb5fesB8xONY1nrjfN2vta1x545Zzst3U+2IqApytpNW0/vwkC/MSBUyeetXC77/Wxubptg1Obm5lTXrA1H/aD86QRlMKUu74aAq9tt6ztOdbPBsKttw1qxmP2p3/ytTzywUD74yNUaeRs0G19nMpk8kDh27M0rlfnZHyiWlv+3x0+uvefpU5sHW72J1ZtjtUJ567Q77gvhZQgEQAjGjbDZHajeGge/O++ovzwSBxz/FIi/TFpCheGzzgx2TiV4yQPx/SpXOuSHuYLrp8JXAxNgs/RGAlgQ06KWWYqSyzDQTbRcdfMeDViGqjf2ADuVoDdaW7UNsKE+tPyqk3br/+Bv+jnozeEagQQZ3ACU6Xd9CAAlAMRwHfSW4PTlWUmBtbgfSeeEgOWAExQTsATqqc+YGlwUB2wmq/vgWWnRk3Zn89zsjM2VS1Yp5q0oRpDXMR6hC+AAHoCQNHQSF7gzxicVtxTdxtomM0NP0O82eICqKz8kIKRaeIwQDlt+w8E4YVutsZ04tWkNvRMTxvWYzk9ndGQApDwanPB7lpe9np02jtquTJxZf+4+q6GeA0GIHAv/Ce8HRzth/flcQZ9zlssWLJstZkXaXnLTjbe+5vrrj+556atf/PTtN//P2tWWqvLrClAe/f2Pzb/nPd/50t/53drfbHeHP5XPV978hcefWV07v50cjOO2Ua1ZLJkVLa3rh9fD0QsemDHQ1kBhABjWDiwEX7FXWhgCBS8brTAvrB/v+4N9ofA9cHZePAbhXC9b10MxOY5rI4xjcRCg2UbvqKAWlJP8HrzEWb2cJJXmSg4o+gCjQFl4LTmf8rhGUHYg4edgzTGql/6CXqLpcdy6n8f+QLz+07V2BBslnEMaBu45vO/wuPDa+IBcuCd9D49FoePkw9U2d57qDRVOCDwytnd5yeYqFSlgygr5rPd00W3sXec6iPM9S7+ARJjg52O6eda54Kk42KoSOgcQ0++kzTAG2ohkKqOfN2H1ztieOd+0c5st7+WJqYHpDvTbCJxUqqCBhxGMYi5pgb1ub+/oOgQdFpwVdtsNHYqjXGXquyd04v7VIrj/CaYr5sujy2QKKjFuxWIlMRrGFrrdwcv2rex5W6H02uzL7rn5qQ9/+CEVdnXIxbfga1Tuvffe9Jtf/6rDiVTqjYlk9m2xRPpYrzdaohu20x1ap9O3U6fP2slT5+zJkyedARBMlsQHoFeHFxylBCRgCTgJEcDEgUMSpAoIWklAoauWSh/8BUJ40dkffuczXY0cG35nn5sCEne8stb/tOUcRy8KAAItp73TlXxvfNi3pEygSiZle+ZmbWW24qZPIT1xJy2X6Pe7ereDlAWIMyhdMxQ+B13IAag5sE1bVIS6+TbqL3bja9WRdbjw3FymIJQSIwj3IReYjOrDmvFMft9+bS1TQIDZgJmJGL0t0xkLtZ4rFu2m645bOZ9zgAEQ/DgASADiAXgCEc+lK1Dpy9ygzLSRaEmgExNj0RPlXO41kYpZf9gT8Ogp6l7Gum4mU7Zmt29Pn6vame2x1bs6QwAxEftr9fU8yPgmxtHpdX12xZmZsmV0Hr93lVQImZylBKSA2qDXtnQmYTkBDsARmpm8SzhnifYFkDZ3ti2Xy3moAaPHMZ/Gk77q1lVZk24sNnh4Mun85P79Kx+96aZXNf1hPo/la5ah/OH735+69WWvesWrX/OaH6u2+/+qMrf0plSmsF+vUqHT7lkulbfadtVGg5GdPSs7uVpVeyWFZuo7vfUpvaABfQ80BTDhhXdlAFz0YgaAAL2nZWUBfAJgCLqGLwIGckFZdcx0U6BM0y/Bdn3XH2NLvPtSyhQoo87nOD9U/2k7PSF8VkOok3lhmfw8oxeRlIdBq68S/WUeUQDKNC2Pxc+eXj/oYboIHhzH53BbKJhLQT1V2FQuBZMAFLRvesqX3l/QI6ZnBhDouKDbWMfo3OBYna/D6QLHVPFYGx1bygexJjAVd0qrfMw9fE3uK0nTDS5g0LmqoQ8JgJmoNN0nZQYgjQPau+P1W/d1/kjnjGALsazARQpe69oTT29YZ5y1ZGHWeiOxC10rprrQk8U1mmKwszMzAoS8+5ZIRwGY+P3oOlmZY/1eR5+5XlzPn/coAD/2u0NY70ir1bJSeUYMpy92IiDR+9ZstiyfLzrjkqmqdm1yIJFIfWut3rz2da97+VoqVTj7fO4R+poCFL2wsZe8ZN/cO7/121+/3kr+w/n5PT/U6I9ePhRx7elNE2u1YX/iuS5GvYGN9CJsrJ+3s+fOWrW+q/2BJx72QPdh6D9xhRKwsIYe86JcBAvpkV4aFJJt0F9nAOF5fgzfgjXHBi9WsD/8/kXHcjm/ppapomlPAApqXX3WPwBEW11N2CYsHNDKyXTDl5DLiUlRfZWti5gnF3IGJCCSog2lTK7MHMOia/AdPw1/Olz/cx3dq182qBcKwXGI10vK4b6S6ZryWRJiBBw7hS3/7Pu4H67r/Evb9JnzUFbKcCes6o/JoytTLV17YkcPHbL5WeZAB4y0TTuSxKbgkFUZY8qEgWkJrkleGcb0MDCTmxHbxJ8R129E8KFYXbZU8kC1YTxr8dyswKRvJ07vWLOftIGYzdBUHudTti7KuCrOLYotLS4uWq/Xt1a96eyCe6DuIXDhdMd3RQhBSu8bGxkyQLwSINnv9/Q97WOSAMXRALYLM5x4eQj+J86XuS0Slrp+YW7xDTdcd2zmpluOnp6bW609H4HlawZQ7rvvx/ZsrJ26t1Eb/rN2Z/QjuVT5xkQyV+qNJrGekD8pKprJii7rRSMl4FAvw5qYyfrGhu3s7rjfhBaPHx6fhPRKb8XFVprPARUIXuZQ+BgCCtsvMBDt87W2sQStV/CZRXu/aD+fL16Ll4mXOFBcJCiRV44/zgvKJwSdutGboXbZ743uy1wu7Q7KZJq0CYyW1Xlag4MASxjSzg3TXnuBQaWDcjl4Kl4/rVGVsL7cjyrpiuQAwTEU4YDBMdpPmZeI3+P0c3Ax7uvi9rBs9hBfA0PJ8rvJnDsCoMzNOFtxs0Y/kLMQmaBx/CgCjwTdxcR66No5MRoGMXIbKHJCrA0n+xDk5RyUOymzTEx1lMjbxk7fHjuxZuvbXUvmBFzpvDthYScAOXXE6Yo/pCKzBPBoN5pWrVXFRsj2dsmYIZ6txAP4dL43IHpG7MescZ+KfqcAQLhv3Qv3pdP4nblWu9URS8t68GIW9hNLxgaDSTmTzr/8wIFjb73zhbfHb7/jxjMf+chv1PxizxP54l/8KpNTv/d7uT86/dThRr31rels4d5Of3A4m84Vs9mC9TtqIXR7Hbr49BIRJ0B8xkT0n77NUX9gn/2TP7Vz59dsRy/FlmzZ8KVGIT1p0Z8j7PcXgTdl+p2XAQVl21CtGAuae5HFBIoSfkYZacE4LvwOq+F4vrMOpgO9KJgoOPsIeOMzs/pxHKH4aZ2fUeuu5swmatHSiZFMupEd2rds+1b3eItP3AT76X6l9yFDa6075jv3w8vMtTHVqJd3V+s7C+Lr6T0jIQhMUckFQPlS8eNYVB7r8Jm4aTItjzXl8xxRTMA5ozqnU+SFTfsI61fe81KZGUW/38m4P31WOo/nrnPxbfBZd+LlkdaRsTzBsw7u0RUbnwnXxMEqsO0Mkh5Wf+pswzarPbGSrLCkLPAQS1B5nupA5eOHoizYCf4PhNkJms22l8soZ0AmvD9YhjNV7kNAh88HYAuy8vFMeLb6LQSEPnxCrJHvnM4x6akPijLw0WEGwZy7Mo9KpQJdzd1CMfvk1vbav9ncfPpD3/PeHz/tP+gVlj/nFXj+ix50/Hc++ZGXnzl59tt3tptvXl7dt6KWKtaRGVOWTdpqdpwW96Y/KsFOwUvRl2mgl00/8M7Ojn3u0UdsQwwFW7ZWq7kiSV/dbOEF5aW/VPjBQwlfHF4yXqjQB0EZrpC6Li8EC9cOFyRYB4rL5y8FFM7BMevn+hmS6Xaf7nMSnMd1ASaPKlV1JmIrcdVfDbr1uzUrFjI2W6l4z8ic6H1ByhnTMXoXBTJ6mXmhMQXitPZiObpmEFQ3vTddHWAFbPzbVBGCugfHIGyiPmwJ7k1r1TUU7gtA8fV0exi3Ekr4HNzs0WeC2kjvSF5YUjt+4+tfbQU1CgSEMdEZ944fxEP+ub4Ul/MBFAQfS76Q9eNQUO4rRf5Ytfr05IiuWrM9sjObDXvq1IZt7vYtLWaSyAhM1NjAHXgPcJxybrPZ9CC62dlZf3eob2DeBu8TcSfcH9v8Wegz9Unj89Ga34k1Y70AHo9V0v17nXQ+n9mP4JOJy9ymDOrPewIYcVxH5wFoNCi12rZuIz4slbOPZvL20zKfHnjZy96464VcIbnwvj7f5ROf+ESyWz2/TxDx6mZ98K50InPbcBibEbWW7mc9Jyhdc4xt4Z0ajAATBpujKEHLwQ8z0AtAS//UM8/YmXNnbXNj2xpqaQZdtU56kfp9ArL0suvJjGXihAqCXPwctBwXlQClCwCA7Q4OgIq+h0oTHhsKykl9wu2cw7F8D86bftexfg1MCAl15wXvqaWK68V0hdclOM4BRS8iqQ2kDrLLBazaUxb9J36DnpJyPms5tbo26llC1wBBvUdFLSgBZJh1PCt6JoLwd3wU1ENPkgvhV9Ix7A9FNQ0+TEEVAXsv3kvATFj7Pm3nd2Gtb9N1sD2814yeKY5ZWvbKTMne8IbXyoyhC1YMReruYIoJSn0EJu4wpZzpmkfNM0W89027ALxEPOPpCLqDuD1+4qydWtu2WnssEFFd1fAkZerAbJNS3qFYib83Yqxcb2GBuX7y3vh0ZDIjHEuqybyzFj0XXZN70Gm+RvmDew8aDKJkEc+Vo+fBfoAiPN4BhC5qlcP7kdfvxZolR4/T9BkBXJmsTCzeVSMnS6eTTI2fSGXj/1c2lf3kS1/6+g2/0GWW570PRQ89/qZXvuTa82tn/8aZtY37UsnSX4vHMofHw0RuMtErH0tZWy0uLws/TFc//kCKNVBL5t2veodHPSmugMSdYvoRt6u7buY0xEwazZY1G039IGqV9CMOZNvS7UdkQviihxIoxxcrxqUL23lp/AXiDZkeE67DBYHRcHy47dIykf/XdfTHiwSj0Ba/hrMifeU4XkTsdLLF61bd9p/E9cIlidicWKPW8OH26D69E8SJeM+UU22VIwWkfJ5XUD4r4Cj4Hsh0LbQN6x2yOG36YgmqfuF+ED77PWjxXixfCDoLP08X7cdXQlAa3yuVkh09esxSGZkxmCBu3rBov1hXxnOW5D2tAL6yhH7nuMwZgAaHKv6SVKFoSY8RSVurM7bPP3HGTp4RmDRlnibzOjatXxwTR9cQa2CqDXqO+u2OM4rV5WWvF88RMwj2S90AMpysDBEgyI4fJIwxwk/C7xSaS8E2Gi2d641B8DxoFNgHSAd+l4mVBP7tdtuPD84FHPVO6HEGjlp9F5j2xGZgi+PRJDUeJZb73fFbhqPRHd/y9m/cWV7af+ozn/lMgKqXSZ6XgDK57774t/+9v7f61je/+Rs+9du/92/ObzX/biyee02hML9qE14yUD/ubAKbOGAUoow+qlTKJdt7rIfNX0o/FmFNOAkTekH7elHqraa1BELbuzveBdjvdX0hAIwWwEOwXRGmWnGJ8GNfug5fCuQCmGgfZ7OPxb9fchxC8Rx76THIhbJ0P6EqouRhIqVA4S+2Ztw3Gx0YtH3sGq4jURA9Ayg5raiu7iBHTxD03c0bWlMdHnSx6hiV6cephKA62knd+K51AGVBrahf0J09ZSDhWrunVVR5F8/nrPAZUG9GA7Pme7idNb4jFJfRxg4qWubFDPYf2O9pHWFlVBpHLGChQvQOyJTT54l+a8bpwFLUvgtUdDzHqVyVLJCI28ZO006d2bEnT66LlcBcZAKpUQKkMjnASWVJK1BsnKg4hUvlIICt0+pYvd7Qcxtrn8wcAVRKdXLRNfToONG/sp8yYFgoPzMd+nxDqjvPw+Nt8Hv5E9U949NRGTQIQYRzAEqAk/tYVCdSh6YFjrCWnsx7hEGOOkR1KWtN3E5BP2fuSCKWfcu11xy74bWv/4b1VCpDj1BAjb7K8rwClPe/972p73nPu1/6zJ6V791u9n+0PYj/UDpTuKZQKOcFIHH9jnrYBBLJPHEKmPM3lX58EjbTqnhQmn4o0H4gZgKo0MKQ4avV7YjNdHxgWl1Kdeb0GWvK3OEHJ38o6I8tTvcgrc2lSoDw+VLhe7ggwQsQAIpHen7J8aHSsJ9dfx6ghOcErx3r6eKVQ2lVF63pzcBMoZXixXUwo1zuV0ogzVJZARugKI6hyxKq3O60bbcu2o7jERNBzydB1yYvp0oY6cUMhh3ovClTChf9p3/ahmOb+lOuvge15mnrfpyuUF+tvN78oz7of9C97E7n6b1fuGetUSYAJSOt9ihYKdPi0qKt7l0Vw2BwnuoopUxhSmgNq4B1AqRB6+4lCShga/oE0ApwOv2JnVnbsRMnz9uZ87sqtyzQFXubyBzWMwRQmFJjJDOKdwuFpSewKCCB0XVaXU+6xChm3o+0rp+VYvPEYRLtTtN/AwAQJuy9X6oD7xHlYZ7xnoXPkbpyv/iWANYs52gNqwbI6L2jd4ugOQcVMSfO12l+Hd5pBjrCgjgeUErqPntd/Doy1j33VPbGUnHmTS964Ytufe3rXidSFzshYKF/+qsmwS95BeVvfsdrC+nJ0sEXveIVr8uWyu/uj+y6/niSz+dK8Z6oHT8GLyrvJT8ELS7CCx28iMEL74KtP305w8hEzCDWfT1oHeldps12y37/4YfdS49DFicb3nr/YVBA/fhuLum8sLzwRQivRWODsN+pr9b80NQ3BIovPScsL9gXmFThfs5hHYIO33l7wu3B5SiXa6k8b421ljKE5/s5U+Flc5rs+/Dn0BWu83VKXK238w0BK70hS3OzwaC7YkkKIWYAQxt1fFIxHzXMy+/XVt25BkxO5dLaSv39maE8zhB0DNt5JtSXq/laikMry0uPAzisK7eAcB73jqKQVCmrHxyncVbKfOTaa+z2O++wRF73pHOdjegafi3VzMtA03h+YiGqnY30A8XV6uuXtO2dup0+c942tuvWVjvd1SvV0zqbL+lBJdXQ9KxQKuo83re+O0xTAtew5waWgaMU4MgLUDwOSNfg3eL+GOjH/fCd43k23D9gELy/qp72c38cw9pNFonfr94736Z7BpDYRj04l+OCdZBDN5WdBtBNuQDAhXBM+Ox9pkQBUkENLj4bHT/JpFP9XDH920+dePJfn/jTEw/d/777q37iV1imanH55d//7R/ct7x66N3zew68oGuJm1PF0rHzu9UkL2W+WHAAoGs3/EEQfhRXLl5svT/BCxWsw4UfgIXP/AD6jbxVRsH4kbd3d90Ze+7cmk9lgS9lfV30t0N3XsxbIX5QXuawzFBciabiyql9/LgsiLcgqiML+zj+0nP8RZiWGdjEgXBMeG+hXBzdG+z7Urm0LCQ89kIZ4ZpX37djzumr6o0QEAwwJPRVpEymYdznAyaN4uJsxZKTnmXFwum+hVMzFH+sl9zP4fyp4iC81FB4TAt982shAAfPnAWlD59VUHc/xM2wsN7hPlmsVpgqWaFStmPXX2u33nm7JbIyI6TcDvowSf1+NDCCMQdC2Cu0hBY9LnNkc7tq59e3bWNr17a3G9bq6WZjKkMmzkTHZvMF68lsThPZKnDFtOh0Os58ZyszXifAhXcQvwdr7hvJ5qcpEyThb474u+P3Nx2uoTXl8G74vdFoaRvXQdjGOf6M9DlcOI77C6/NZ45LZYLrUq/wOM6lfCScZ8j1Y1p/9vMeFIt5gXqsmk4lPzkcdv/HJ3/vt//7/fff/xVlLNOf9fLIvffem3jZ/tlrXv7y1/+V/jjxlxrd4XJP/Loj/a+olWz1ez40HGSnt4KXE+HBhT8Ki7+AU4bCPh5Y+GDDHyDc5t2s2pZOB5nNzpw7Z6fPntHnsTvW1rc27cyZM/rBgnIZXs4LdaFF1oKw71KhR4VrhC8YZV8KCl7HS84Jy7pY5kVFQsLPYRm8EOG2S5dQuG/kYnmBhMeFLxgsJjhP5fplgxffu151EUwP/Cko4pQnWy6TtBWSFmmdl4kBpsToqhYYMa4mic9KrSBV8PB4WIeeha6gZy1qLxM0k5Ki6DgUnX3UgzpTV9YoCBIyFOoX/paYPKgAv19lYc6uu+lGu+GWm4VuMk90/Ykq5L4u3Rcttfd08Srrlim3L3N3fasm02bDtjar3iMzHCVUOx2byKguvBemhquk+826GdzptPzcSqUiE2veGq2Ovzfhs6Te/NZ8p544ZsN7oJ4Ivx31h4XAZsLfAGFf+DtRbvj7IXzmHBaO4Rocz/ksHM937zoW+HF8sxFMAcQ2rs9xnAegsH8ooAzfJd5nQNa/6yGl0/FJvpjTRYYPPn3qqZ/50Id+/Td+8Rd/MUC45ygX38SvojwgIOndfe2xvSuH/3oiVXjlZJK9AXXsSImhnH09MJxbA09dGPTvYwsG9P6iwoQPCKHFDIUfMXywPPwQlXmw2PfB56RVq1W1VlveGnU6XY+SPXt+zWNRcPAi+AVCQAkl/IHDz14f/UBcj5eMfeGPjrD/0roi4X2EizMG7Q+XYFvwmXNdQaZy6XEsCPd26feL5X5xXTHfOIIXif2BTFzRh6LDAIMzFCkZgAFjoCeJ+wdYylI6AspmCOgS4/DpTfX7ECPCM0AAP+rDwjUcqAAIrcP7CAEl/F1C5cScCuocPP/wPkhfQJfqwsqy3Xr7bXZILEUn6i50MdWdSpPzlSrAkLjlxm5DzPOcfuOa9YYJq+P3ADkwCzyREiwGM4j4kFyghDLFYAtz8zMCQTLq02vYsWqt4aZNPp+/oKzUmd8Zxeep8p6ynfeAe+K5h4ASsgq2cT/hvXM+YMP7inA++7hXFo4NgYRzWVMOi4OOAMWPwUeobdSJstjmz5MfU8+coQ+czzY6LWDouox0o+uzVmI2M3hxdra022zVP9Jo7v7Mo49+5yfvv/+SF/9ZSGCAfZXkc597IP03vus7bizddvP/s7By6B/XunZPsxdfHiTT8Q0hbJu+zSSe+MAWHenlHvYG1mq09ELxkACRwB7EEUg3Kd5zfkBvxfQD8SCR8EXlAfIj8BmBHnM8D9mBRj/A7NycNRpN2dVnvKeHH5nJvymLH8jPczUMfvBLF47xRfvCa4Y//KX7v+jY6YKEa5SaYzjXv02PR3wdXN7l0u2Xfg7PZ32p+HH8shSjfcF+IEJr7cPxydoPkLJNtAp6g3j5xChw6uoF7PT+f7Xd24/nSVUA8G93T9+7537Z3dmZvXAZAuy6rKy7BjRRo8YHIDFxHyT6ZAJKohJijIDxhhGjL8YnQmIMPPgXEDUhkZHAPighugSzC6xZYJmdy07PdE/fe7o9n1O/07/v/Oi9sKynp6a+VXXqVNU5p05dvvWt305349ZadzN4tW4JGnkOHfI1rdvJtqLDmaE1+THYWWjEefNm36H2ViIxokOhe67VJeQVae1bmdbhvQr28xXBjW4s5DZ/+Eh3z333xczheM4qNrbJd6zbCkNg+SL8wqVr3Te++Wz3dLgfXL7erW3uxfIGTtRpfCbwQv5hMF1PMD09eLUcsgObYTyOxLLKpqg9pOvXr3WXLr3YzczORb62bO7LFuRMInSxwsV/ulB6p7PLB6fi++klt6JL7/qGqRlYaejDbTMhG8fwvXxgHLyQgJd3udikD77ZqOWYc/naAc+QbwTIiVyo3VbkjYF0dnJy5qHbu3u/+Z73fPzNx48f/v6Xv/yVF9Tx9cD/i0HBo8ff/nenVm4e+tT21tQnbqxsPrG0vDE1Mb0YXJnuVmyQYmBYZK/TdkNTcgNrK6bh0WAWdycaS0wlEArQlKCN/iHOjC+hgFKSiiOk/GoTfigvul67eU1qJPvu977X3VpdzTIIIMuIPPAJqegWPXj79QmFKuWgOK2Mlg5XWoXLVVyr93AgqHRQOPljWiNQ9QFVp35c0Ulapg0DgEO98ECSFG+9BLwRY0RyNoi34Vy+nV/ZhkJG7843JtshI6/al8PA3PDqFE2WKA1SrOG9bQqemD14Ber+EDOB2/KHkchzHpFmB2Yr4nflMYqGSz86PNxuHF50nOjQ47FMnVs82t117/mYUSzmm5q1WB9vBu0byxuxdL3afetbz3fPf+9SdzNGq+2YhcS4GzOXmPLvuWO2GT+GhC6oV3Ahdc0sgcwOLy7mLGQrZqwOrDlJPT+3YA85jR7e4Wd1eM/J9/grWRVOdvjA82yGAkpvDVpcxTE4SWeQl0OvwMeD4kDTx0af/la5bSBsdISb/pvhx5Kf4Qi5MX4Oe5r90PH8Qjva6DAeFTSQMjjjMQrsbO++48KFt//8Bz7wvpX5+fXvfP3rzwyXAa8RWo3fYPj8X//BhSP3vO0fJmaPPxGCG1+IEcDotRQjnfshtkJhHZNPMGuOho1H3MRuKFpa162woqHawR9MwsBRJkYo0/Bah/acI8cAR5xwcCqfdRgGZTWmt77befrpb3Tfee657sbKcuLbxc+ywhGQ6XqBMEC76pG/TBc+YZdQK015ngvElV/Pdu0L5C1X6fgAquxRvynZD0OVUZc/6fhgP1+Q99x4F10mysmlSShgDHIJ0nX0fM5lxWZkbEuj6WiXY/tj2khwIbe8nSzkMesnLeYXsoMeO3YieaCcdGYjyo6Rt73ebqAs/CoX/2Vc7qNFO06eOtU99thj3YkTJ8NIOEcT9Zg81G3HLCU5EHJts5owWmHUnEB1ONGBvpD6fge/7cBjyMm1jDr7A/fdn0sdl1IxLuIYlMW5+eTR7ELz6UYaowG/OLg+zSgZq68yCg94lhcOJ0/q7YAnyk7+R15x8NNghM7ya2MbT+DKL20qDK08dFm9i448PhMwg8nl+54vmh3zb2+V4Juhg9aOwXH+WNbeuLEUtA/lszouLMzuhP3513//8pc+HvOxb/wo11GWXN8wcJbkxJvOf3Zt/swHdw5NH3K/5mae9uvy1Vx+1UuJQr9TSLHs2bP0iSp743DbseNg5uSMjj3c6Cyme07FC0XGxLAYKTjQwk0J5EtFDuVrDAzMoHFzZSWmyD/onn32W93Va9fSoKxEnLV2KkMoBjplUJRXjtKgwXenKVAWIYBSpqxfALzy+w6k0RyE0a52Fii+X3allQ9fXvUZxQHD2+SCfj4N6Zmt+KkJeas97SCfcmP5FhnyTQh6XqGHmrT9kOBB0J2AE/kZmFb/6LqDsm3y6mw2O/t7YA1PO4ebhRUP/N8MTWvXdBgIdXJNwBNPPNGdPnVX0gY22PcYKHn4IVvhaEx2IL+X0w3e2JAPeWxu2nPc7RbC2NkjW43BjdxsxitP5zscsyGbzN7+5QG3aIdOWIYCHZ1Qvv23KZG3+FogzkeEjiRoqzxAPuF6Lj0tOShD3Tj6AfoGJfdZwmBXPBrqJ01elzPlV9b6UQwE9ofoMuNsD6UZmNYf1FGe9n1W8D0371tdfbYxPTW2Ozk1/uzq2uqn19c3/+nJJ598TbOVJqE3EH71Z37ufQvH7v7k9vTszLe/fynv2MwTjsHvrZgFzLCgfiQpGuFHrrU+7x+JvDuhpKbieY1fyMsmbf4Up6FzrykeZqSCBJM8t91rHXjYucRjfkLLFvFNCDeXl7vLVy53L774Yirk2kBY0uW15ElGR2rR6itLCd8XvOhRihRICIgD5YOD4kBbF99Jn7/vBvGV1gdx6lA0C0e44tq9HPEcSaa4eARPqo6q4/DFOTFrRtQ+F4hc2T5LmVZ+s63xXz5Y2pibBKVYpuzFzMbeijmKW88saccn52LJ1HUbMYvYiMFiPQYJvn2P7Rg5d2L2sx15SH0njA7fUuh2CH3XkieM2fjETNAY644cP9WdPf9ghMNIRKdwgM2MxP0uOQhYxoRuOJLvQ8HsOKFDvs9aW13pbsbou7O9kffRnjp5PHB3u+XlmzHN38zPLjTZqG5fJ5hHwGnYbMi2vbs2cJkN4Dl55YAT8i8Z8OkM5xkwCvKW4aj4CnPw61k6feJ0aj+9QS8rTlt9LmHJA99shXFQPsNlk3ZhfjH5IZ+mtPtfoknZf8ya1A+PxsNIaU9vBhf0o9VZRwPBxvrG2MbqxsnpQzO/tDA/O/bAmxa/dvHif7yqUXlDDco/fupTZ8+cue/Pwh6+/fLq6tgzz327O378WHc4ppFOT/oNE/slftUtZyQUKSxxfpLOohrpYkQ0ew1TkYwE2VECF5Rg8jRspBMwptjpFyZEggIZjj84LDZGX19a6q5cvRLT2+VUPHdcEHJka6CsLK8iGowqjmERXa7SD4KK76erY+2hFF1+HyePX+9X6k4ovNH0O8KD5326Q9J3ljNoE+MiPtsUddPhfIowGUbC+YzkcfBcvb0Ji4z7G6rOdDAsXO6bBN089m9fJcJt9hDpoajCqbrxbM7TwuG0N3zLFM+Mg83es+fOdfeeOx8GI2Y8BqBIJy+Gv1qbHSQGqfW11e6l69e6a1cvdxuba938wlx34uTRWII54LXVLS1dT2Miv1HfVQntJrYwoGkIW/39S5aFwx8GBF+STxHmM0Il/ybPVhvpOrsyKszhLX3k51I8gOFgHMwg5JeGtvKUTV/Rh0N/04hEGjotrum/shiErBsjEpnRYzDEAXIzONepajjKUR7c7CtUMgeRkF/QO7xwNIzV+uTszOxP3XvP247fdfbMf331q199xWso3zCD4mvgvdtjf7o9M/fr1ze3xq+uXO+eefZ/8sOuk8eOx/QjGhI8tryZHI9pVYya1FpDHJlnTGLMCaWJGUkMdHalpVEg0EZYqqjVzk9Q7ibIJrRhU0oo0ow2TYE20pJb5lx68VLEtaWKDSnCweiEYHQqQJSB6eVACixopxAGIz4H+nji+uE+FL42gFb3pnAFmX/Q7peDIZ0GB4XNs8JStLroJdFJhy74Fh3X27IyJvs0wss6eOWcnaa9Zcs2B518cxOubfKqf3TK6JhhcYK0choNPIziIz06StZDtASdsCl40h3INcMD3z6I4+1vfuubcx8lPwyMDm/ZrNPs7jn5fDtmGcsxSLzUff+F74a+bIW+LXT3nj/X3XX3mZDTWMxQbnRL16+HsVmLTjJcYoDDh4+EoQpdjHpZRlnDmfmgr06lA/DpYvJRIwK8IaE3jU+Nd2hzAL50SxJ+gXS4jAM9EqaHcPjSGG+zkfqUwGYqvGYApmLGhW+oqUuUHUXKh57VgPyMVEHyelBuZol2tdlJm8Hgd322Uu2I0SE/zfCZwdb27lTMfH7y4Yfe+bPn7zv3xYsXL77sKds3xKBEJcaeefprv3ZtZf0Tqztjc2PRqI3N1e6FELLLkc/dey4NiMt5x2LKq1X5rQhBIBAKllOW9BvzWeRcB+JB4GkkV0LFxOqIZXhqGihMODlljHIIa2urvcZjQBxeQzvXnzE7ki6c9MIRTBaAatDvw37nj/QU0AhU/fpQ4T6+qINw4XCRkuFK7+ONlvuy4QPog1buIBCwX2ZEap+OaNmpDpQR37imlC1PySNnE02KWV5edxD5rY6sz5vRocBGzmZgyLmdrsXPO3314sjR9yv3nT8fy9eYDUT5q2EU1tZudZcvv9jdWl3uXrj0Qi5fser0yZPd3ffek9cIrG2sppxXVlyAtBL1tEEfyxQGL6vZ9lpSV6LThugTZyce2vLZDJgODI1F07Emf2EDFT1BQ1y51J0Auli4oGYDhSO98bMZEM8+2uRbLkkH0svQpBHKJZ7lXjNmdJwTRtsMpoxTyb5k16DFyVvpnqsu/HwOvrS6tv4URi2C4/fcf//9p06dOvHlp556qp2sG4E3xKBMb147sbs38Zc7uxPv8HZg6eZKnrK8euXF7qVr17sLb7mQy5x2Z4VXjNG4YKLRql20Q2kbg/Li5ZCB9uvkghoWSckAguFMyQoac5pAAQaUEJwXaIxqDKQIHKYTIMVro0is4ilD4LTyesYr8AsqLmIHdJsgCkfaa4FRtMq/X9awyP0ywX76q0EvD5Arc9rMiuh8Hvi5Z5AGPZIZg2h/mIHgR1MoCo83jV7kIK8YzTznUpXCMsoxytmcbYuX4DccfEd74OMba8NA4HGbAcWzXs00ZRzDM9athzGwV/XS1Wv7G5xHDi92h48cDh041B0/caILBc+vkScnZ7rllVuBt5Z7I0uxtHWVhf0VSzWN29qMWU1UyXIZvjth1ciMhM7gBcOjmW7bz6pGoGTsme7x6RW+ALoGR7ji8i0VPqYuNX0rPHHw+mGgDmhL00/UWR8wm/bs9a+lHlD37AeRh0ERlnc6DCpdT/kx0gz64E978Nt5r6hUa1/QanfuDh3ZmL1YEqp7GwzGLBfHDi8uvO3ChQtvuf+u009d/MpXlrMyPfixDYpf33vw3Mnfnp5Z/K3Vte0JX29ORcPtl7x05Vp3+QeXuwcffDDWs4t5rN6lRTFp6SamJ10B1O2EEm7uYIj1kM35WMuOhTUfNAY0oeRjKnYKIBQFMwmkKXs7zk1wGl+Q948GEAxcUzj7A75Ytp/iVCSDIp2AAPoUv08HVDjrFY6PJlfxcA7K98NxzZen2lmQuL2og/L34YdpN/xgUVOYfhk5a2idpPC4KrBwRWVa8CL5Ec/8cnmw0HPgNSMQnSHzoRMuntNQmU6Hz1ikn/FNqQ0s8ja8iBvwkoJPhRLff/6B7ld+8Ze7h975ju7+++7PU7tRo1D4wI8/M017J1evLqUxWV5Zjbwxxw29cAAyD8oFE3LfIHx/fmN4dnYu92R0VCeG8y1MZHQYz4+yJxF5Bjyqjs6Vjrg/R7j4hSd9AwNKV+GVQYZb+kJXS2fFow2/vZUZvlliMKSjj1fC8pnJAM82jeEuxJIwjVXMyPdlFXSqLujA4x8E4rlWD/tMzbB49pvNa+trEzH4X3jo0YceOHZs+ktPPfWfq4OsCT+2QXn/+x99/OjJu/5mZ2PvuLMBa5suKJru/DzF7S2vvDbzFdrRY8e6jZ31bmLGTn4YgZmJMCSx5Li9HY231tyK1oQxOuRbBRtlw00pDax1ZAnWDyUVU4QpTTEKMzCZs+SRT3oKPHDFLS3dyCP3lLIJtG2SodgEoZM1yPIyrilHQmTol9/3gedyB4EO1PyhYPv4B+dqcBDN0bjgWs7+smE8kYkinPOEVt5gxlI4oe7hgoe5aRp0kndNBoBi4mO7nIlBaTMZ3+3YJ9GlckzMTVjtCUEm30KZs478mCXYBA1lzaUOpY0O5K4TIzD6U3tT3aljJ7ozZ+7qboThN9O9ubzS3YzZ72YYgu+/8GJ348ZKLH02onPHgBHsdN/JVujfcsxQDBzTs9Pd4uLRbvHwkVgKzQft6dx7m/RaedjssB8MiDaGzkY+Top2a2/5gE9faqAS9kZR5y4cfC2elcGoODrNYKRxiHDJzTMHv81uGp+pCeOgPowMY1nXd0h35sRy3s9v8Ofm5jMvgz2O0dnOyBvyzNkKOUZfUGrunUkPF9IMl5JLXugj6oYW+fqZEO1ZurHUzc/Njsfs/oF77r576rn/ff7fLl261JQ54McyKB/5yG+cePiRRz67tLT2cExIxrY2Ysky5ceOYv0YlZ5xXiD+nPo7cfpUrq3zPXnMUvDRzruZAePDqFDiacKOxI0th3bWksEawiAAQuPsyZRFx1x0xJegGAd+TvH4sgcuWmYoV2Iand/wBP0m2PY9hfTGyCZoIIx2GZTEiXZ5fi2uD/I2f18GCaP4lQt+5ZFWdWh1vpN+PywHd2fpoNEatqXVxZkFafigraa9Ra/vCihjQZDKKwdy3yEh+BWjmlerlgbK2n/NGuE0LtAofM5oAgb0shyqHbNy9RC+fJmcdKDJ7vrNm9316zGzXHOuBO3JnHHQD7fDK1fnPn36dNOBKCM7lw4T5dMH+oK2V7N469sWemN5pTb0Cl+UnbOXQRyQj05aWvDJQd7kWTyDlr8dPhPv2WCX+hjPhY9+7ZegZVlntgzHAJplRj3UV57cd4kItIS1x0AMv+qysOiDx8GyLPJKq3LFWV4Kl/yH0OQE6INzNsphpNBmzMQfO9Y+W5mdnQ5xH3r3Qw+/7QePPPLof1+8eDEb/2MZlN//3Q9/cG117MOb62MT2zuEke+v0845T+IX1tzt6s0KATsOzFE8X0NOT4TSEVzkxEifz/sZSaOmhmuvqRwGSAeYkIoRjYNjKmbdi+m4L95+jG+CGAtCMprkSBi+Q2zrkefKlavdSy+9lMYG41LJB0zH5saYYLzy9p26NldC6itKwbCOzRgkzXCV1lwTNijholO0cl07gMrbBwoJqoyiBTfp5V/MBLKj43vUJ2haLlBSxjsxdGr5osVZr4xDJ6MTin7VjU/hczAYPBs53elLq6z/t2Pm2ZR3sFcSDuE7/HB0wZmYnCUEbcXKo31n7z3bHT95Ip07Xt1j45xJ/t5OGI7jx0/kYa6ZCDtCHyNnNxs6tDA/mx3e71Ojq/PZ48m3RAtzYXRC/8g89Mw3Y2SIZz45QFe7dF4dumTCpREIo1OzKGFOXoA3aHH4XrMdfNfGqagnH48ZbHsc5ILf+EBOPrnwBslbSR/NzkabXJVgEMwDg1GvtkRv5bj8ycDsdbh+IOz3fshvfXM95EFGgRsu3wAxdpGm/W3vLPpY9AdLuInJMH45XWn7OBxeK8fyUB8yw2JcaEzMiiaOHjny6Fve+qbnP/e5z38TD163QfmrP//ku86cPvf3q2t7J7c2fWPRrBhGaeDUtNlD00pGYTEEjvE6prtCXULs2c871MbeoleCRjXxWxvZ+V2CRLApTHnj2dFuiiJcQtRBCD13wgM3f+w8BOL6AsrlNZz9gJXVW0nXKMegSJefQamOnW8nVDz+a+Ghq87FgfKB9KIBCq8fBo3O0AhVOtjHH5Ldh8Lja2vlB+JG6cR/g1AL9/PgEWh5Bu3LoWDgkt6ddOt5yKehazTERwfp4aTMX8ZVujpxRcszXTh15lQslxdjxhsDRsgo1T96g3Q30Bvd80Rt0HBWhsHIHycPGr4LazfvtZ/9zD2faLO8OqTOR+5VtjMofPhpgAb6VVC8a/s9DQ9UW4B4eZK3A7zKxymvljwGQGE+nMov7EfYJqfbwUy00IfrGX/REKcd8srjBQMcdeerX20MV13RN9vg18HPqnvxHS2+vECZymBM2oyLIVUfe44MzuRi9MWff897H/vnL3zhX668LoPi94Ifefidf7S1ffsX1je2w260NVtuEgUzNsKA+AGmaiyjAIwmRn0VYUyq4hjAqXAyNJxfaDO7kFdjMaKYymjY2c2Tg+GUr2y0MDlPNcYf2AudYJUxgkHxVgcds6aaoRTDhgrkbZOO0RiN6ZWmzlxBPUsvB38Ur/IDz0bhPojr4+NP5ennBfDUWXw5UH6fTh8qXv1KkUA//35bw6g2njQjkYaCqRnE8Q9yo2kHhcsJo2m5Ilwjn2rOxGjqJysMPjqJWZBOYJSnJ+StPe1AJH4M+BnPZJxGIeTIzw7em/HhHVo6Jl3IdochanrQOqB4eSt/8cYsV7j4lHGDZ06aPHkwMOpkA5qLxFzuZS2CvXSyLQkHM54MRz2xPnCDI1lX9KqT0/uajeMVXa+66Sfagy/qD7cMivrIrw+15UszrOhU/YH2S0evZolmbOJVTBiYKDgsuBErkBgYx8Kfm1+YPx3L0C++LoPysY996L2zs4t/e2t1c3pn2x7J7ezEGmG3XwXbPZ/tK2Kv8DT27NmzkbttmtbHbwBjACFycEO/9vNrpJONGqoMDLPJpIHiKw2D+BjoGL9y8jVbxEV19kc5+a5evZZXP7b9labQBYGe43T6QQNN7tUATuGjWe7gvEODIw+oMDAdHoVXolnhfvpB7uXa08fJtMHexn6498zhYfJ34BfdPv1yLwfSyJgrOgVHjxzOWcjUoXYvSmDngDQdA4iwNtKVvLIy9KH0iiEm5zz1GnSVAZdBkV7llNGQJk5rKyxP6mD4VSe0kk40p+KEM24Ahc8vQwTglG7TUT68fl6gDGn8jc32fQ59Vxe4nrW9aIhjQNCiy/oKI2w1oH2VD1Qdio4+U3xX3wI4wvK3vO0t14DMII+j+94ART/ejdlU0Au+v/mJn358dijB1wgf/eiHzs7MLPzxzeXVuS2/SB8d24bejM/Eo1MqEDM5FedrsC85GQbpDIhKlgHAiGrA5FQIPOQgDm5e67fn5wJ8n7EaS5nNMBa7acDQwzRlBGo01DTPzGa9/RD2QMmKmfCVyVe3EnhfEUafywF0yr0ajObt03g56OMeVE7RG3Wgjy+u/1zQfx6lDfo0Xg/06R8E5Fnulconz3OO3N9zT34c6ANTN6lZ6tIT5XCedTBOnoRBPBkXvXSW39ER8txTOF8luzrDhUV8ULpCR/ogftRpQ+mwsjyLEy79RqvqWryp+sChu5z85dCoTl60xWlfheXXPwqKtjL79RDvueqj3kAcEC4czrM49NVBWfJWO4q+Z4aMPHxj5HzP3t7Y1NbG9od+NIPyJ934Y4+/+4NhTN5zfWklrKjlSauIV8Mq0V5jtW+IhDGCwK3xWFEVrAZpdH+GoZObznLVeHEsrjh0a5P26NGjSVcDxZkFldWVV7kYUQLODcNBufKUMSmQp1wJtNwo9OOUwRX0n/vQxyv/lWiraz9P1aXvQB8HVHwfRnEq3I8rEFdlV7iPV89w+q6fjzuorqN1q7Tie+Un67N3350zFHKmW3SATOHJ45nhIKvKX2VL8yk/hZeObh/glg7QL3TEFT301aGepaEpzAnzK04YHlAWnaOT9FUYDtp9/Rau/JUXVHnS0aiBWF60PMuj/sKp21EeWtrO0NTbIuni4PLRLhrKANLKqBWONHiVX1zlVRZctx9aZXqd7GwPOzA3tzD3IxmUP9z4vfOr69u/s7W9NzM7s5Czh431tiPtx7Zu3lrZnxmoiIJNiWZmpqLArTAo1/ZnHpyK+6I4mhxrzvXg5tCyzs7MNzewhHxMxUywsrIaDPe6z7pyJgVQTCYIDMUoh6fEo9kXLFBH+MUw4K1TiPiOOAAXjMYXSC+c8gsqjVPea8F7NejTqfpU3Ti85Ubr2o/r4/fxkm7MCvNVcvgHOcok/SB3EH5wP10ezfcuoBdfcfK6n5bxsLzRSdSLHG2yrq+2w1t9PplpuCelDAP8krP8AK+CW+noA9+PweV9wxpi9hJQPMAjtGsw4uhydSb1gYO+cjhlFm+5iq+0og08l8FStz7d6txm6e1t59BoqFPRz+9wgqT+lPhRdtUX4FNBlS0ODprihPt9o3haaWha3niBoB+3Q4utP2lX7Y0mf51BW90c7Fy+BvjMZz595JF3/cRf7Gzt3rexvpPLilxahKARL+G5k7MscDGLsFWurHYxp5jKxxjxcFS4mAjf7MbsA8hXz9UwPqay5qwz63nt2rWkhTnolzEqB9AqKKaLK4aXKyj8ftwowOnTHX1+JVc4oF9+lVd4KcBwhQv6eHz8LgUvKJx+fMWV69M8CPr5RmGUTrlRGE0XrjrRIwPI4sKRfdmSP0e+ZE/WwmTtjR3dqXKqY5YuCAMyVwZ60vGvcOmZ+HJoweX349QPeJan9KTiylVYPniFiyY97C/RxMPjF3hWX0bV7Ewdq18oT73lR89z5YfnGX14fQcKD228ld8zfH0EFC/Qkq94Jt6zfPKUMc2BIcyIn2jNzxySymuAsbHxJ1durr5v7VbMOmKJOTk+0y3OL8akIpi72ayqRucN4ptmIW1momAVwmBGQmVSiH57eHdoWVsZTaEoCMbLB0o4FAQ+HHRqVCrF4HMYZJQDyqwy0EGbElI45Rk3pyZiurgTximGBbThcSVszwUVx3kGJbRRV1D0RkG9tKOPO/pc4aoPf5R2QT334+AqA1T+fpkVB8SpU9+X1neFz/Whj8P18biCCqsDnKpfKTA5kSvDYWAwK3EhObnC55dMzFrJWnzE5EZs0UUHzTyNG05YXpd9mdHYTzGZgqMs3/3UEQI6U4MW+upTbaAf6qkMZcGHyy9+eZZWz+KBsmqgLF3VkRlQ5QA+Q6JMZZi5u4oh+4qJXdCk8+jQZffhOqDXfrK0XbjtZ2HgVFvIUj6u7Xu0KxPUhw8PTslcnsoHGj+d4GXMycJmb/tUBT489Z2YmOz+D6RYxA0rgq8uAAAAAElFTkSuQmCC;" vertex="1" parent="1">
          <mxGeometry x="800" y="33" width="58.43" height="47" as="geometry" />
        </mxCell>
        <mxCell id="hwFNifnMXfar1LAswDKv-73" value="Jimmy Okoth&lt;div&gt;@manbuildingpipelines.com&lt;/div&gt;" style="text;html=1;align=left;verticalAlign=middle;resizable=0;points=[];autosize=1;strokeColor=none;fillColor=none;fontStyle=1;fontFamily=Comic Sans MS;textShadow=1;" vertex="1" parent="1">
          <mxGeometry x="850" y="40" width="170" height="40" as="geometry" />
        </mxCell>
      </root>
    </mxGraphModel>
  </diagram>
</mxfile>
